G04 (created by PCBNEW (2013-07-07 BZR 4022)-stable) date 3/25/2016 4:56:48 AM*
%MOIN*%
G04 Gerber Fmt 3.4, Leading zero omitted, Abs format*
%FSLAX34Y34*%
G01*
G70*
G90*
G04 APERTURE LIST*
%ADD10C,0.00590551*%
%ADD11C,0.0944882*%
%ADD12C,0.110236*%
%ADD13C,0.0393701*%
%ADD14R,0.055X0.055*%
%ADD15R,0.0394X0.0354*%
%ADD16R,0.063X0.071*%
%ADD17R,0.071X0.063*%
%ADD18R,0.02X0.045*%
%ADD19R,0.0354X0.0394*%
%ADD20C,0.177165*%
%ADD21O,0.0598425X0.03*%
%ADD22C,0.055*%
%ADD23C,0.07*%
%ADD24C,0.0201575*%
%ADD25C,0.01*%
%ADD26C,0.05*%
G04 APERTURE END LIST*
G54D10*
G54D11*
X85300Y-46200D03*
X85300Y-44231D03*
X82540Y-44231D03*
X82540Y-46200D03*
X85500Y-66900D03*
X85500Y-64931D03*
X82740Y-64931D03*
X82740Y-66900D03*
X67100Y-46300D03*
X67100Y-44331D03*
X64340Y-44331D03*
X64340Y-46300D03*
X66700Y-66800D03*
X66700Y-64831D03*
X63940Y-64831D03*
X63940Y-66800D03*
G54D12*
X84600Y-59615D03*
X84600Y-55600D03*
X84600Y-51584D03*
X64600Y-59615D03*
X64600Y-56850D03*
X64600Y-54350D03*
X64600Y-51584D03*
X68100Y-61950D03*
X74600Y-61950D03*
X81100Y-61950D03*
X68100Y-49249D03*
X74600Y-49249D03*
X81100Y-49249D03*
G54D13*
X89396Y-47400D03*
X91403Y-46533D03*
G54D14*
X91300Y-50200D03*
X92300Y-50200D03*
X96300Y-50200D03*
G54D15*
X91300Y-51904D03*
X91300Y-52496D03*
X92300Y-51904D03*
X92300Y-52496D03*
G54D16*
X68650Y-65000D03*
X69750Y-65000D03*
X69250Y-46400D03*
X70350Y-46400D03*
G54D17*
X87400Y-49050D03*
X87400Y-50150D03*
G54D16*
X78050Y-65100D03*
X79150Y-65100D03*
G54D15*
X61200Y-55504D03*
X61200Y-56096D03*
X60400Y-55504D03*
X60400Y-56096D03*
G54D18*
X96350Y-56600D03*
X95850Y-56600D03*
X95350Y-56600D03*
X94850Y-56600D03*
X94350Y-56600D03*
X93850Y-56600D03*
X93350Y-56600D03*
X92850Y-56600D03*
X92850Y-60600D03*
X93350Y-60600D03*
X93850Y-60600D03*
X94350Y-60600D03*
X94850Y-60600D03*
X95350Y-60600D03*
X95850Y-60600D03*
X96350Y-60600D03*
G54D14*
X93300Y-50200D03*
X97300Y-50200D03*
X95300Y-50200D03*
G54D15*
X97200Y-58204D03*
X97200Y-58796D03*
G54D19*
X98704Y-49300D03*
X99296Y-49300D03*
X95604Y-48600D03*
X96196Y-48600D03*
X97796Y-48000D03*
X97204Y-48000D03*
X94304Y-54000D03*
X94896Y-54000D03*
X98704Y-50200D03*
X99296Y-50200D03*
X95404Y-62000D03*
X95996Y-62000D03*
X95804Y-55700D03*
X96396Y-55700D03*
G54D15*
X92000Y-59296D03*
X92000Y-58704D03*
G54D19*
X92896Y-61600D03*
X92304Y-61600D03*
X94196Y-61600D03*
X93604Y-61600D03*
G54D15*
X91300Y-60904D03*
X91300Y-61496D03*
X91300Y-59304D03*
X91300Y-59896D03*
G54D19*
X93204Y-55600D03*
X93796Y-55600D03*
G54D15*
X92000Y-57404D03*
X92000Y-57996D03*
G54D20*
X96616Y-65442D03*
X96616Y-45757D03*
X61183Y-45757D03*
X61183Y-65442D03*
G54D21*
X89188Y-64455D03*
X91000Y-64455D03*
X92811Y-64455D03*
X89188Y-66700D03*
X91000Y-66700D03*
X92811Y-66700D03*
G54D22*
X87600Y-52100D03*
X87600Y-55100D03*
X88800Y-61900D03*
X88800Y-58900D03*
X90000Y-58900D03*
X90000Y-55900D03*
X72500Y-66800D03*
X75500Y-66800D03*
X98000Y-60500D03*
X98000Y-63500D03*
G54D23*
X93600Y-44900D03*
X87600Y-44900D03*
G54D14*
X94300Y-50200D03*
G54D24*
X92304Y-61600D02*
X91404Y-61600D01*
G54D25*
X91404Y-61600D02*
X91300Y-61496D01*
G54D24*
X91300Y-61496D02*
X91300Y-62500D01*
X99800Y-49300D02*
X99296Y-49300D01*
X99296Y-50200D02*
X99800Y-50200D01*
X99800Y-62000D02*
X99800Y-65200D01*
X99800Y-65200D02*
X97900Y-67100D01*
X99100Y-48000D02*
X99800Y-48700D01*
X99800Y-53000D02*
X99800Y-62000D01*
X99800Y-50200D02*
X99800Y-53000D01*
X99800Y-49300D02*
X99800Y-50200D01*
X99800Y-48700D02*
X99800Y-49300D01*
X98800Y-48000D02*
X98800Y-47700D01*
G54D26*
X94300Y-48000D02*
X94300Y-50200D01*
X95100Y-47200D02*
X94300Y-48000D01*
G54D24*
X98300Y-47200D02*
X95100Y-47200D01*
X98800Y-47700D02*
X98300Y-47200D01*
G54D26*
X97796Y-48000D02*
X98800Y-48000D01*
G54D24*
X98800Y-48000D02*
X99100Y-48000D01*
X95996Y-62000D02*
X99800Y-62000D01*
G54D25*
X94304Y-54000D02*
X94304Y-53904D01*
G54D26*
X94304Y-53904D02*
X94300Y-52600D01*
X94300Y-52600D02*
X94300Y-50200D01*
G54D24*
X89300Y-65700D02*
X94200Y-65700D01*
X94200Y-65700D02*
X95600Y-67100D01*
X95600Y-67100D02*
X97900Y-67100D01*
X79150Y-65100D02*
X80940Y-65100D01*
X81740Y-65900D02*
X82740Y-66900D01*
X80940Y-65100D02*
X81740Y-65900D01*
X75500Y-66800D02*
X82640Y-66800D01*
G54D25*
X82640Y-66800D02*
X82740Y-66900D01*
G54D26*
X88800Y-61900D02*
X88800Y-62400D01*
X88800Y-62400D02*
X90100Y-63700D01*
G54D24*
X84600Y-59615D02*
X84600Y-64031D01*
X84600Y-64031D02*
X85500Y-64931D01*
X86268Y-65700D02*
X85500Y-64931D01*
X89300Y-65700D02*
X86268Y-65700D01*
X90100Y-64900D02*
X89300Y-65700D01*
G54D26*
X90100Y-63700D02*
X90100Y-64900D01*
X91300Y-62500D02*
X90800Y-63000D01*
X90800Y-63000D02*
X90100Y-63700D01*
G54D24*
X68650Y-65000D02*
X68650Y-66800D01*
G54D25*
X68650Y-66800D02*
X68600Y-66800D01*
G54D24*
X72500Y-66800D02*
X68600Y-66800D01*
X68600Y-66800D02*
X66700Y-66800D01*
X63940Y-64831D02*
X63940Y-60275D01*
X63940Y-60275D02*
X64600Y-59615D01*
X61200Y-56096D02*
X61200Y-58600D01*
X62215Y-59615D02*
X64600Y-59615D01*
X61200Y-58600D02*
X62215Y-59615D01*
G54D26*
X95300Y-50200D02*
X95300Y-52600D01*
G54D24*
X94896Y-54000D02*
X95300Y-53600D01*
G54D26*
X95300Y-53600D02*
X95300Y-52600D01*
G54D24*
X94850Y-56600D02*
X94850Y-54046D01*
G54D25*
X94850Y-54046D02*
X94896Y-54000D01*
G54D24*
X97204Y-48000D02*
X95700Y-48000D01*
X95604Y-48096D02*
X95604Y-48600D01*
X95700Y-48000D02*
X95604Y-48096D01*
X95604Y-48600D02*
X95300Y-48600D01*
G54D26*
X95300Y-50200D02*
X95300Y-48600D01*
G54D24*
X94850Y-61400D02*
X95950Y-61400D01*
X97300Y-53500D02*
X98800Y-55000D01*
X98500Y-61400D02*
X95950Y-61400D01*
G54D26*
X97300Y-53500D02*
X97300Y-50200D01*
G54D24*
X98800Y-61100D02*
X98500Y-61400D01*
X98800Y-55000D02*
X98800Y-61100D01*
X94850Y-60600D02*
X94850Y-61400D01*
G54D25*
X94850Y-61400D02*
X94850Y-61446D01*
G54D24*
X94850Y-61446D02*
X95404Y-62000D01*
G54D26*
X98704Y-50200D02*
X97300Y-50200D01*
G54D24*
X92000Y-57996D02*
X92000Y-58704D01*
X93300Y-52600D02*
X93300Y-54000D01*
X93300Y-54000D02*
X94350Y-55050D01*
X94350Y-56600D02*
X94350Y-55050D01*
X93300Y-50200D02*
X93300Y-52600D01*
G54D26*
X78050Y-65100D02*
X78050Y-63050D01*
X79149Y-61950D02*
X81100Y-61950D01*
X78050Y-63050D02*
X79149Y-61950D01*
X87400Y-49050D02*
X81299Y-49050D01*
G54D25*
X81299Y-49050D02*
X81100Y-49249D01*
G54D26*
X88400Y-55600D02*
X89700Y-55600D01*
X87600Y-55600D02*
X88400Y-55600D01*
G54D24*
X89700Y-55600D02*
X90000Y-55900D01*
G54D26*
X87600Y-55100D02*
X87600Y-55600D01*
X87200Y-57600D02*
X87200Y-62466D01*
G54D24*
X87200Y-62466D02*
X89188Y-64455D01*
G54D26*
X87200Y-57600D02*
X87200Y-55600D01*
X84600Y-55600D02*
X87200Y-55600D01*
X87200Y-55600D02*
X87600Y-55600D01*
X69750Y-65000D02*
X69750Y-63600D01*
X69750Y-63600D02*
X68100Y-61950D01*
X70350Y-46400D02*
X70350Y-48750D01*
X69850Y-49249D02*
X68100Y-49249D01*
X70350Y-48750D02*
X69850Y-49249D01*
G54D24*
X93850Y-56600D02*
X93850Y-57150D01*
X93596Y-57404D02*
X92000Y-57404D01*
X93850Y-57150D02*
X93596Y-57404D01*
X93850Y-56600D02*
X93850Y-55654D01*
G54D25*
X93850Y-55654D02*
X93796Y-55600D01*
G54D24*
X89300Y-50003D02*
X89300Y-47496D01*
X88415Y-51584D02*
X89300Y-50700D01*
X89300Y-50700D02*
X89300Y-50003D01*
X87600Y-51584D02*
X88415Y-51584D01*
G54D25*
X89300Y-47496D02*
X89396Y-47400D01*
G54D24*
X87400Y-50150D02*
X87400Y-51584D01*
X87600Y-52100D02*
X87600Y-51584D01*
X84600Y-51584D02*
X87200Y-51584D01*
X87200Y-51584D02*
X87400Y-51584D01*
X87400Y-51584D02*
X87600Y-51584D01*
X87600Y-44900D02*
X85968Y-44900D01*
X85968Y-44900D02*
X85300Y-44231D01*
X85300Y-44231D02*
X82540Y-44231D01*
X93604Y-61600D02*
X92896Y-61600D01*
X93604Y-61600D02*
X93604Y-63800D01*
G54D25*
X93604Y-63800D02*
X93600Y-63800D01*
G54D24*
X93350Y-60600D02*
X93350Y-61346D01*
X93350Y-61346D02*
X93604Y-61600D01*
X98000Y-63500D02*
X97700Y-63800D01*
X97700Y-63800D02*
X93600Y-63800D01*
X93600Y-63800D02*
X92400Y-63800D01*
X92400Y-63800D02*
X92000Y-63800D01*
X91000Y-64100D02*
X91000Y-64455D01*
X92000Y-63800D02*
X91300Y-63800D01*
X91300Y-63800D02*
X91000Y-64100D01*
X91300Y-52496D02*
X91300Y-52800D01*
X70750Y-54350D02*
X64600Y-54350D01*
X71900Y-53200D02*
X70750Y-54350D01*
X90900Y-53200D02*
X71900Y-53200D01*
X91300Y-52800D02*
X90900Y-53200D01*
G54D26*
X88800Y-58900D02*
X90000Y-58900D01*
G54D24*
X91403Y-46533D02*
X91966Y-46533D01*
X91966Y-46533D02*
X93600Y-44900D01*
X91300Y-51904D02*
X91300Y-50200D01*
X92300Y-51904D02*
X92300Y-50200D01*
X92300Y-52496D02*
X92300Y-53100D01*
X70450Y-56850D02*
X64600Y-56850D01*
X73200Y-54100D02*
X70450Y-56850D01*
X91300Y-54100D02*
X73200Y-54100D01*
X92300Y-53100D02*
X91300Y-54100D01*
X93350Y-56600D02*
X93350Y-55746D01*
X93350Y-55746D02*
X93204Y-55600D01*
G54D25*
X91300Y-56700D02*
X91300Y-56600D01*
G54D24*
X91300Y-59304D02*
X91300Y-56700D01*
X92300Y-55600D02*
X93204Y-55600D01*
X91300Y-56600D02*
X92300Y-55600D01*
X69250Y-46400D02*
X67200Y-46400D01*
G54D25*
X67200Y-46400D02*
X67100Y-46300D01*
G54D24*
X64340Y-46300D02*
X64340Y-51324D01*
G54D25*
X64340Y-51324D02*
X64600Y-51584D01*
G54D24*
X61200Y-55504D02*
X61200Y-52400D01*
X62015Y-51584D02*
X64600Y-51584D01*
X61200Y-52400D02*
X62015Y-51584D01*
X92600Y-60000D02*
X91404Y-60000D01*
G54D25*
X91404Y-60000D02*
X91300Y-59896D01*
G54D24*
X93850Y-60050D02*
X93850Y-60600D01*
G54D25*
X93800Y-60000D02*
X93850Y-60050D01*
G54D24*
X92600Y-60000D02*
X93800Y-60000D01*
G54D25*
X91300Y-60904D02*
X91300Y-59896D01*
G54D24*
X96300Y-49300D02*
X96300Y-48704D01*
G54D25*
X96300Y-48704D02*
X96196Y-48600D01*
G54D24*
X98000Y-60500D02*
X98000Y-55900D01*
X98000Y-55900D02*
X96300Y-54200D01*
X95350Y-56600D02*
X95350Y-55150D01*
X95350Y-55150D02*
X96300Y-54200D01*
X98704Y-49300D02*
X96300Y-49300D01*
X96300Y-50200D02*
X96300Y-49300D01*
X96300Y-50200D02*
X96300Y-52100D01*
X96300Y-53500D02*
X96300Y-54200D01*
X96300Y-52100D02*
X96300Y-53500D01*
X95800Y-59800D02*
X94700Y-59800D01*
X94350Y-60150D02*
X94350Y-60600D01*
X94700Y-59800D02*
X94350Y-60150D01*
X94350Y-60600D02*
X94350Y-61446D01*
X94350Y-61446D02*
X94196Y-61600D01*
X97200Y-58796D02*
X97200Y-59400D01*
X97200Y-59400D02*
X96800Y-59800D01*
X96800Y-59800D02*
X95800Y-59800D01*
X97200Y-58204D02*
X97200Y-57100D01*
X96700Y-56600D02*
X96350Y-56600D01*
X97200Y-57100D02*
X96700Y-56600D01*
X96396Y-55700D02*
X96396Y-56554D01*
G54D25*
X96396Y-56554D02*
X96350Y-56600D01*
G54D24*
X92000Y-59296D02*
X93804Y-59296D01*
G54D25*
X93804Y-59296D02*
X93800Y-59300D01*
G54D24*
X95850Y-56600D02*
X95850Y-57250D01*
X95850Y-57250D02*
X95500Y-57600D01*
X95850Y-56600D02*
X95850Y-55746D01*
G54D25*
X95850Y-55746D02*
X95804Y-55700D01*
G54D24*
X93800Y-59300D02*
X95500Y-57600D01*
G54D25*
X95850Y-55746D02*
X95804Y-55700D01*
G54D10*
G36*
X69450Y-47179D02*
X69200Y-47429D01*
X69200Y-46942D01*
X69200Y-46450D01*
X69200Y-46350D01*
X69200Y-45857D01*
X69137Y-45795D01*
X68885Y-45794D01*
X68793Y-45832D01*
X68723Y-45903D01*
X68685Y-45995D01*
X68684Y-46094D01*
X68685Y-46287D01*
X68747Y-46350D01*
X69200Y-46350D01*
X69200Y-46450D01*
X68747Y-46450D01*
X68685Y-46512D01*
X68684Y-46705D01*
X68685Y-46804D01*
X68723Y-46896D01*
X68793Y-46967D01*
X68885Y-47005D01*
X69137Y-47005D01*
X69200Y-46942D01*
X69200Y-47429D01*
X68979Y-47650D01*
X67826Y-47650D01*
X67826Y-46422D01*
X67826Y-44454D01*
X67818Y-44167D01*
X67723Y-43939D01*
X67610Y-43891D01*
X67539Y-43962D01*
X67539Y-43820D01*
X67491Y-43707D01*
X67222Y-43605D01*
X66935Y-43613D01*
X66708Y-43707D01*
X66660Y-43820D01*
X67100Y-44260D01*
X67539Y-43820D01*
X67539Y-43962D01*
X67170Y-44331D01*
X67610Y-44771D01*
X67723Y-44723D01*
X67826Y-44454D01*
X67826Y-46422D01*
X67818Y-46135D01*
X67723Y-45908D01*
X67610Y-45860D01*
X67539Y-45930D01*
X67539Y-45789D01*
X67539Y-44842D01*
X67100Y-44402D01*
X67029Y-44472D01*
X67029Y-44331D01*
X66589Y-43891D01*
X66476Y-43939D01*
X66373Y-44208D01*
X66381Y-44495D01*
X66476Y-44723D01*
X66589Y-44771D01*
X67029Y-44331D01*
X67029Y-44472D01*
X66660Y-44842D01*
X66708Y-44955D01*
X66977Y-45057D01*
X67264Y-45049D01*
X67491Y-44955D01*
X67539Y-44842D01*
X67539Y-45789D01*
X67491Y-45676D01*
X67222Y-45573D01*
X66935Y-45581D01*
X66708Y-45676D01*
X66660Y-45789D01*
X67100Y-46229D01*
X67539Y-45789D01*
X67539Y-45930D01*
X67170Y-46300D01*
X67610Y-46739D01*
X67723Y-46691D01*
X67826Y-46422D01*
X67826Y-47650D01*
X67539Y-47650D01*
X67539Y-46810D01*
X67100Y-46370D01*
X67029Y-46441D01*
X67029Y-46300D01*
X66589Y-45860D01*
X66476Y-45908D01*
X66373Y-46177D01*
X66381Y-46464D01*
X66476Y-46691D01*
X66589Y-46739D01*
X67029Y-46300D01*
X67029Y-46441D01*
X66660Y-46810D01*
X66708Y-46923D01*
X66977Y-47026D01*
X67264Y-47018D01*
X67491Y-46923D01*
X67539Y-46810D01*
X67539Y-47650D01*
X67479Y-47650D01*
X66350Y-48779D01*
X66350Y-51679D01*
X65404Y-52624D01*
X65404Y-51725D01*
X65397Y-51407D01*
X65289Y-51145D01*
X65167Y-51087D01*
X65096Y-51158D01*
X65096Y-51016D01*
X65066Y-50952D01*
X65066Y-46422D01*
X65066Y-44454D01*
X65058Y-44167D01*
X64964Y-43939D01*
X64850Y-43891D01*
X64780Y-43962D01*
X64780Y-43820D01*
X64731Y-43707D01*
X64463Y-43605D01*
X64175Y-43613D01*
X63948Y-43707D01*
X63900Y-43820D01*
X64340Y-44260D01*
X64780Y-43820D01*
X64780Y-43962D01*
X64410Y-44331D01*
X64850Y-44771D01*
X64964Y-44723D01*
X65066Y-44454D01*
X65066Y-46422D01*
X65058Y-46135D01*
X64964Y-45908D01*
X64850Y-45860D01*
X64780Y-45930D01*
X64780Y-45789D01*
X64780Y-44842D01*
X64340Y-44402D01*
X64269Y-44472D01*
X64269Y-44331D01*
X63829Y-43891D01*
X63716Y-43939D01*
X63613Y-44208D01*
X63622Y-44495D01*
X63716Y-44723D01*
X63829Y-44771D01*
X64269Y-44331D01*
X64269Y-44472D01*
X63900Y-44842D01*
X63948Y-44955D01*
X64217Y-45057D01*
X64504Y-45049D01*
X64731Y-44955D01*
X64780Y-44842D01*
X64780Y-45789D01*
X64731Y-45676D01*
X64463Y-45573D01*
X64175Y-45581D01*
X63948Y-45676D01*
X63900Y-45789D01*
X64340Y-46229D01*
X64780Y-45789D01*
X64780Y-45930D01*
X64410Y-46300D01*
X64850Y-46739D01*
X64964Y-46691D01*
X65066Y-46422D01*
X65066Y-50952D01*
X65038Y-50895D01*
X64780Y-50794D01*
X64780Y-46810D01*
X64340Y-46370D01*
X64269Y-46441D01*
X64269Y-46300D01*
X63829Y-45860D01*
X63716Y-45908D01*
X63613Y-46177D01*
X63622Y-46464D01*
X63716Y-46691D01*
X63829Y-46739D01*
X64269Y-46300D01*
X64269Y-46441D01*
X63900Y-46810D01*
X63948Y-46923D01*
X64217Y-47026D01*
X64504Y-47018D01*
X64731Y-46923D01*
X64780Y-46810D01*
X64780Y-50794D01*
X64741Y-50779D01*
X64423Y-50786D01*
X64161Y-50895D01*
X64103Y-51016D01*
X64600Y-51513D01*
X65096Y-51016D01*
X65096Y-51158D01*
X64670Y-51584D01*
X65167Y-52081D01*
X65289Y-52023D01*
X65404Y-51725D01*
X65404Y-52624D01*
X65279Y-52750D01*
X65096Y-52750D01*
X65096Y-52151D01*
X64600Y-51654D01*
X64529Y-51725D01*
X64529Y-51584D01*
X64032Y-51087D01*
X63910Y-51145D01*
X63795Y-51442D01*
X63802Y-51761D01*
X63910Y-52023D01*
X64032Y-52081D01*
X64529Y-51584D01*
X64529Y-51725D01*
X64103Y-52151D01*
X64161Y-52273D01*
X64458Y-52388D01*
X64776Y-52381D01*
X65038Y-52273D01*
X65096Y-52151D01*
X65096Y-52750D01*
X63679Y-52750D01*
X62650Y-53779D01*
X62650Y-55550D01*
X62319Y-55550D01*
X62319Y-45532D01*
X62146Y-45114D01*
X61827Y-44795D01*
X61410Y-44621D01*
X60958Y-44621D01*
X60540Y-44794D01*
X60221Y-45113D01*
X60047Y-45530D01*
X60047Y-45982D01*
X60219Y-46400D01*
X60539Y-46719D01*
X60956Y-46893D01*
X61408Y-46893D01*
X61826Y-46720D01*
X62145Y-46401D01*
X62319Y-45984D01*
X62319Y-45532D01*
X62319Y-55550D01*
X61647Y-55550D01*
X61647Y-55277D01*
X61609Y-55185D01*
X61538Y-55115D01*
X61446Y-55077D01*
X61347Y-55076D01*
X61312Y-55077D01*
X61250Y-55139D01*
X61250Y-55454D01*
X61584Y-55454D01*
X61647Y-55391D01*
X61647Y-55277D01*
X61647Y-55550D01*
X61150Y-55550D01*
X61150Y-55454D01*
X61150Y-55139D01*
X61087Y-55077D01*
X61052Y-55076D01*
X60953Y-55077D01*
X60861Y-55115D01*
X60800Y-55176D01*
X60738Y-55115D01*
X60646Y-55077D01*
X60547Y-55076D01*
X60512Y-55077D01*
X60450Y-55139D01*
X60450Y-55454D01*
X60784Y-55454D01*
X60800Y-55438D01*
X60815Y-55454D01*
X61150Y-55454D01*
X61150Y-55550D01*
X60350Y-55550D01*
X60350Y-55454D01*
X60350Y-55139D01*
X60287Y-55077D01*
X60252Y-55076D01*
X60153Y-55077D01*
X60061Y-55115D01*
X59990Y-55185D01*
X59952Y-55277D01*
X59953Y-55391D01*
X60015Y-55454D01*
X60350Y-55454D01*
X60350Y-55550D01*
X59850Y-55550D01*
X59850Y-43450D01*
X69450Y-43450D01*
X69450Y-45794D01*
X69362Y-45795D01*
X69300Y-45857D01*
X69300Y-46350D01*
X69307Y-46350D01*
X69307Y-46450D01*
X69300Y-46450D01*
X69300Y-46942D01*
X69362Y-47005D01*
X69450Y-47005D01*
X69450Y-47179D01*
X69450Y-47179D01*
G37*
G54D25*
X69450Y-47179D02*
X69200Y-47429D01*
X69200Y-46942D01*
X69200Y-46450D01*
X69200Y-46350D01*
X69200Y-45857D01*
X69137Y-45795D01*
X68885Y-45794D01*
X68793Y-45832D01*
X68723Y-45903D01*
X68685Y-45995D01*
X68684Y-46094D01*
X68685Y-46287D01*
X68747Y-46350D01*
X69200Y-46350D01*
X69200Y-46450D01*
X68747Y-46450D01*
X68685Y-46512D01*
X68684Y-46705D01*
X68685Y-46804D01*
X68723Y-46896D01*
X68793Y-46967D01*
X68885Y-47005D01*
X69137Y-47005D01*
X69200Y-46942D01*
X69200Y-47429D01*
X68979Y-47650D01*
X67826Y-47650D01*
X67826Y-46422D01*
X67826Y-44454D01*
X67818Y-44167D01*
X67723Y-43939D01*
X67610Y-43891D01*
X67539Y-43962D01*
X67539Y-43820D01*
X67491Y-43707D01*
X67222Y-43605D01*
X66935Y-43613D01*
X66708Y-43707D01*
X66660Y-43820D01*
X67100Y-44260D01*
X67539Y-43820D01*
X67539Y-43962D01*
X67170Y-44331D01*
X67610Y-44771D01*
X67723Y-44723D01*
X67826Y-44454D01*
X67826Y-46422D01*
X67818Y-46135D01*
X67723Y-45908D01*
X67610Y-45860D01*
X67539Y-45930D01*
X67539Y-45789D01*
X67539Y-44842D01*
X67100Y-44402D01*
X67029Y-44472D01*
X67029Y-44331D01*
X66589Y-43891D01*
X66476Y-43939D01*
X66373Y-44208D01*
X66381Y-44495D01*
X66476Y-44723D01*
X66589Y-44771D01*
X67029Y-44331D01*
X67029Y-44472D01*
X66660Y-44842D01*
X66708Y-44955D01*
X66977Y-45057D01*
X67264Y-45049D01*
X67491Y-44955D01*
X67539Y-44842D01*
X67539Y-45789D01*
X67491Y-45676D01*
X67222Y-45573D01*
X66935Y-45581D01*
X66708Y-45676D01*
X66660Y-45789D01*
X67100Y-46229D01*
X67539Y-45789D01*
X67539Y-45930D01*
X67170Y-46300D01*
X67610Y-46739D01*
X67723Y-46691D01*
X67826Y-46422D01*
X67826Y-47650D01*
X67539Y-47650D01*
X67539Y-46810D01*
X67100Y-46370D01*
X67029Y-46441D01*
X67029Y-46300D01*
X66589Y-45860D01*
X66476Y-45908D01*
X66373Y-46177D01*
X66381Y-46464D01*
X66476Y-46691D01*
X66589Y-46739D01*
X67029Y-46300D01*
X67029Y-46441D01*
X66660Y-46810D01*
X66708Y-46923D01*
X66977Y-47026D01*
X67264Y-47018D01*
X67491Y-46923D01*
X67539Y-46810D01*
X67539Y-47650D01*
X67479Y-47650D01*
X66350Y-48779D01*
X66350Y-51679D01*
X65404Y-52624D01*
X65404Y-51725D01*
X65397Y-51407D01*
X65289Y-51145D01*
X65167Y-51087D01*
X65096Y-51158D01*
X65096Y-51016D01*
X65066Y-50952D01*
X65066Y-46422D01*
X65066Y-44454D01*
X65058Y-44167D01*
X64964Y-43939D01*
X64850Y-43891D01*
X64780Y-43962D01*
X64780Y-43820D01*
X64731Y-43707D01*
X64463Y-43605D01*
X64175Y-43613D01*
X63948Y-43707D01*
X63900Y-43820D01*
X64340Y-44260D01*
X64780Y-43820D01*
X64780Y-43962D01*
X64410Y-44331D01*
X64850Y-44771D01*
X64964Y-44723D01*
X65066Y-44454D01*
X65066Y-46422D01*
X65058Y-46135D01*
X64964Y-45908D01*
X64850Y-45860D01*
X64780Y-45930D01*
X64780Y-45789D01*
X64780Y-44842D01*
X64340Y-44402D01*
X64269Y-44472D01*
X64269Y-44331D01*
X63829Y-43891D01*
X63716Y-43939D01*
X63613Y-44208D01*
X63622Y-44495D01*
X63716Y-44723D01*
X63829Y-44771D01*
X64269Y-44331D01*
X64269Y-44472D01*
X63900Y-44842D01*
X63948Y-44955D01*
X64217Y-45057D01*
X64504Y-45049D01*
X64731Y-44955D01*
X64780Y-44842D01*
X64780Y-45789D01*
X64731Y-45676D01*
X64463Y-45573D01*
X64175Y-45581D01*
X63948Y-45676D01*
X63900Y-45789D01*
X64340Y-46229D01*
X64780Y-45789D01*
X64780Y-45930D01*
X64410Y-46300D01*
X64850Y-46739D01*
X64964Y-46691D01*
X65066Y-46422D01*
X65066Y-50952D01*
X65038Y-50895D01*
X64780Y-50794D01*
X64780Y-46810D01*
X64340Y-46370D01*
X64269Y-46441D01*
X64269Y-46300D01*
X63829Y-45860D01*
X63716Y-45908D01*
X63613Y-46177D01*
X63622Y-46464D01*
X63716Y-46691D01*
X63829Y-46739D01*
X64269Y-46300D01*
X64269Y-46441D01*
X63900Y-46810D01*
X63948Y-46923D01*
X64217Y-47026D01*
X64504Y-47018D01*
X64731Y-46923D01*
X64780Y-46810D01*
X64780Y-50794D01*
X64741Y-50779D01*
X64423Y-50786D01*
X64161Y-50895D01*
X64103Y-51016D01*
X64600Y-51513D01*
X65096Y-51016D01*
X65096Y-51158D01*
X64670Y-51584D01*
X65167Y-52081D01*
X65289Y-52023D01*
X65404Y-51725D01*
X65404Y-52624D01*
X65279Y-52750D01*
X65096Y-52750D01*
X65096Y-52151D01*
X64600Y-51654D01*
X64529Y-51725D01*
X64529Y-51584D01*
X64032Y-51087D01*
X63910Y-51145D01*
X63795Y-51442D01*
X63802Y-51761D01*
X63910Y-52023D01*
X64032Y-52081D01*
X64529Y-51584D01*
X64529Y-51725D01*
X64103Y-52151D01*
X64161Y-52273D01*
X64458Y-52388D01*
X64776Y-52381D01*
X65038Y-52273D01*
X65096Y-52151D01*
X65096Y-52750D01*
X63679Y-52750D01*
X62650Y-53779D01*
X62650Y-55550D01*
X62319Y-55550D01*
X62319Y-45532D01*
X62146Y-45114D01*
X61827Y-44795D01*
X61410Y-44621D01*
X60958Y-44621D01*
X60540Y-44794D01*
X60221Y-45113D01*
X60047Y-45530D01*
X60047Y-45982D01*
X60219Y-46400D01*
X60539Y-46719D01*
X60956Y-46893D01*
X61408Y-46893D01*
X61826Y-46720D01*
X62145Y-46401D01*
X62319Y-45984D01*
X62319Y-45532D01*
X62319Y-55550D01*
X61647Y-55550D01*
X61647Y-55277D01*
X61609Y-55185D01*
X61538Y-55115D01*
X61446Y-55077D01*
X61347Y-55076D01*
X61312Y-55077D01*
X61250Y-55139D01*
X61250Y-55454D01*
X61584Y-55454D01*
X61647Y-55391D01*
X61647Y-55277D01*
X61647Y-55550D01*
X61150Y-55550D01*
X61150Y-55454D01*
X61150Y-55139D01*
X61087Y-55077D01*
X61052Y-55076D01*
X60953Y-55077D01*
X60861Y-55115D01*
X60800Y-55176D01*
X60738Y-55115D01*
X60646Y-55077D01*
X60547Y-55076D01*
X60512Y-55077D01*
X60450Y-55139D01*
X60450Y-55454D01*
X60784Y-55454D01*
X60800Y-55438D01*
X60815Y-55454D01*
X61150Y-55454D01*
X61150Y-55550D01*
X60350Y-55550D01*
X60350Y-55454D01*
X60350Y-55139D01*
X60287Y-55077D01*
X60252Y-55076D01*
X60153Y-55077D01*
X60061Y-55115D01*
X59990Y-55185D01*
X59952Y-55277D01*
X59953Y-55391D01*
X60015Y-55454D01*
X60350Y-55454D01*
X60350Y-55550D01*
X59850Y-55550D01*
X59850Y-43450D01*
X69450Y-43450D01*
X69450Y-45794D01*
X69362Y-45795D01*
X69300Y-45857D01*
X69300Y-46350D01*
X69307Y-46350D01*
X69307Y-46450D01*
X69300Y-46450D01*
X69300Y-46942D01*
X69362Y-47005D01*
X69450Y-47005D01*
X69450Y-47179D01*
G54D10*
G36*
X73150Y-68150D02*
X72797Y-68150D01*
X72797Y-67167D01*
X72500Y-66870D01*
X72429Y-66941D01*
X72429Y-66800D01*
X72132Y-66502D01*
X72039Y-66527D01*
X71970Y-66724D01*
X71981Y-66932D01*
X72039Y-67072D01*
X72132Y-67097D01*
X72429Y-66800D01*
X72429Y-66941D01*
X72202Y-67167D01*
X72227Y-67260D01*
X72424Y-67329D01*
X72632Y-67318D01*
X72772Y-67260D01*
X72797Y-67167D01*
X72797Y-68150D01*
X68600Y-68150D01*
X68600Y-65542D01*
X68600Y-65050D01*
X68600Y-64950D01*
X68600Y-64457D01*
X68537Y-64395D01*
X68285Y-64394D01*
X68193Y-64432D01*
X68123Y-64503D01*
X68085Y-64595D01*
X68084Y-64694D01*
X68085Y-64887D01*
X68147Y-64950D01*
X68600Y-64950D01*
X68600Y-65050D01*
X68147Y-65050D01*
X68085Y-65112D01*
X68084Y-65305D01*
X68085Y-65404D01*
X68123Y-65496D01*
X68193Y-65567D01*
X68285Y-65605D01*
X68537Y-65605D01*
X68600Y-65542D01*
X68600Y-68150D01*
X67426Y-68150D01*
X67426Y-66922D01*
X67426Y-64954D01*
X67418Y-64667D01*
X67323Y-64439D01*
X67210Y-64391D01*
X67139Y-64462D01*
X67139Y-64320D01*
X67091Y-64207D01*
X66822Y-64105D01*
X66535Y-64113D01*
X66308Y-64207D01*
X66260Y-64320D01*
X66700Y-64760D01*
X67139Y-64320D01*
X67139Y-64462D01*
X66770Y-64831D01*
X67210Y-65271D01*
X67323Y-65223D01*
X67426Y-64954D01*
X67426Y-66922D01*
X67418Y-66635D01*
X67323Y-66408D01*
X67210Y-66360D01*
X67139Y-66430D01*
X67139Y-66289D01*
X67139Y-65342D01*
X66700Y-64902D01*
X66629Y-64972D01*
X66629Y-64831D01*
X66189Y-64391D01*
X66076Y-64439D01*
X65973Y-64708D01*
X65981Y-64995D01*
X66076Y-65223D01*
X66189Y-65271D01*
X66629Y-64831D01*
X66629Y-64972D01*
X66260Y-65342D01*
X66308Y-65455D01*
X66577Y-65557D01*
X66864Y-65549D01*
X67091Y-65455D01*
X67139Y-65342D01*
X67139Y-66289D01*
X67091Y-66176D01*
X66822Y-66073D01*
X66535Y-66081D01*
X66308Y-66176D01*
X66260Y-66289D01*
X66700Y-66729D01*
X67139Y-66289D01*
X67139Y-66430D01*
X66770Y-66800D01*
X67210Y-67239D01*
X67323Y-67191D01*
X67426Y-66922D01*
X67426Y-68150D01*
X67139Y-68150D01*
X67139Y-67310D01*
X66700Y-66870D01*
X66629Y-66941D01*
X66629Y-66800D01*
X66189Y-66360D01*
X66076Y-66408D01*
X65973Y-66677D01*
X65981Y-66964D01*
X66076Y-67191D01*
X66189Y-67239D01*
X66629Y-66800D01*
X66629Y-66941D01*
X66260Y-67310D01*
X66308Y-67423D01*
X66577Y-67526D01*
X66864Y-67518D01*
X67091Y-67423D01*
X67139Y-67310D01*
X67139Y-68150D01*
X65404Y-68150D01*
X65404Y-59757D01*
X65397Y-59438D01*
X65289Y-59176D01*
X65167Y-59118D01*
X65096Y-59189D01*
X65096Y-59048D01*
X65038Y-58926D01*
X64741Y-58811D01*
X64423Y-58818D01*
X64161Y-58926D01*
X64103Y-59048D01*
X64600Y-59545D01*
X65096Y-59048D01*
X65096Y-59189D01*
X64670Y-59615D01*
X65167Y-60112D01*
X65289Y-60054D01*
X65404Y-59757D01*
X65404Y-68150D01*
X65096Y-68150D01*
X65096Y-60183D01*
X64600Y-59686D01*
X64529Y-59757D01*
X64529Y-59615D01*
X64032Y-59118D01*
X63910Y-59176D01*
X63795Y-59474D01*
X63802Y-59792D01*
X63910Y-60054D01*
X64032Y-60112D01*
X64529Y-59615D01*
X64529Y-59757D01*
X64103Y-60183D01*
X64161Y-60304D01*
X64458Y-60420D01*
X64776Y-60413D01*
X65038Y-60304D01*
X65096Y-60183D01*
X65096Y-68150D01*
X64666Y-68150D01*
X64666Y-66922D01*
X64666Y-64954D01*
X64658Y-64667D01*
X64564Y-64439D01*
X64450Y-64391D01*
X64380Y-64462D01*
X64380Y-64320D01*
X64331Y-64207D01*
X64063Y-64105D01*
X63775Y-64113D01*
X63548Y-64207D01*
X63500Y-64320D01*
X63940Y-64760D01*
X64380Y-64320D01*
X64380Y-64462D01*
X64010Y-64831D01*
X64450Y-65271D01*
X64564Y-65223D01*
X64666Y-64954D01*
X64666Y-66922D01*
X64658Y-66635D01*
X64564Y-66408D01*
X64450Y-66360D01*
X64380Y-66430D01*
X64380Y-66289D01*
X64380Y-65342D01*
X63940Y-64902D01*
X63869Y-64972D01*
X63869Y-64831D01*
X63429Y-64391D01*
X63316Y-64439D01*
X63213Y-64708D01*
X63222Y-64995D01*
X63316Y-65223D01*
X63429Y-65271D01*
X63869Y-64831D01*
X63869Y-64972D01*
X63500Y-65342D01*
X63548Y-65455D01*
X63817Y-65557D01*
X64104Y-65549D01*
X64331Y-65455D01*
X64380Y-65342D01*
X64380Y-66289D01*
X64331Y-66176D01*
X64063Y-66073D01*
X63775Y-66081D01*
X63548Y-66176D01*
X63500Y-66289D01*
X63940Y-66729D01*
X64380Y-66289D01*
X64380Y-66430D01*
X64010Y-66800D01*
X64450Y-67239D01*
X64564Y-67191D01*
X64666Y-66922D01*
X64666Y-68150D01*
X64380Y-68150D01*
X64380Y-67310D01*
X63940Y-66870D01*
X63869Y-66941D01*
X63869Y-66800D01*
X63429Y-66360D01*
X63316Y-66408D01*
X63213Y-66677D01*
X63222Y-66964D01*
X63316Y-67191D01*
X63429Y-67239D01*
X63869Y-66800D01*
X63869Y-66941D01*
X63500Y-67310D01*
X63548Y-67423D01*
X63817Y-67526D01*
X64104Y-67518D01*
X64331Y-67423D01*
X64380Y-67310D01*
X64380Y-68150D01*
X62319Y-68150D01*
X62319Y-65217D01*
X62146Y-64799D01*
X61827Y-64480D01*
X61647Y-64405D01*
X61647Y-56322D01*
X61647Y-56208D01*
X61584Y-56146D01*
X61250Y-56146D01*
X61250Y-56460D01*
X61312Y-56523D01*
X61347Y-56523D01*
X61446Y-56522D01*
X61538Y-56484D01*
X61609Y-56414D01*
X61647Y-56322D01*
X61647Y-64405D01*
X61410Y-64306D01*
X61150Y-64306D01*
X61150Y-56460D01*
X61150Y-56146D01*
X60815Y-56146D01*
X60800Y-56161D01*
X60784Y-56146D01*
X60450Y-56146D01*
X60450Y-56460D01*
X60512Y-56523D01*
X60547Y-56523D01*
X60646Y-56522D01*
X60738Y-56484D01*
X60800Y-56423D01*
X60861Y-56484D01*
X60953Y-56522D01*
X61052Y-56523D01*
X61087Y-56523D01*
X61150Y-56460D01*
X61150Y-64306D01*
X60958Y-64306D01*
X60540Y-64479D01*
X60350Y-64669D01*
X60350Y-56460D01*
X60350Y-56146D01*
X60015Y-56146D01*
X59953Y-56208D01*
X59952Y-56322D01*
X59990Y-56414D01*
X60061Y-56484D01*
X60153Y-56522D01*
X60252Y-56523D01*
X60287Y-56523D01*
X60350Y-56460D01*
X60350Y-64669D01*
X60221Y-64798D01*
X60047Y-65215D01*
X60047Y-65667D01*
X60219Y-66085D01*
X60539Y-66404D01*
X60956Y-66578D01*
X61408Y-66578D01*
X61826Y-66405D01*
X62145Y-66086D01*
X62319Y-65669D01*
X62319Y-65217D01*
X62319Y-68150D01*
X59550Y-68150D01*
X59550Y-56050D01*
X62650Y-56050D01*
X62650Y-57420D01*
X63679Y-58450D01*
X65279Y-58450D01*
X66150Y-59320D01*
X66150Y-62620D01*
X67079Y-63550D01*
X68379Y-63550D01*
X68950Y-64120D01*
X68950Y-64394D01*
X68762Y-64395D01*
X68700Y-64457D01*
X68700Y-64950D01*
X68707Y-64950D01*
X68707Y-65050D01*
X68700Y-65050D01*
X68700Y-65542D01*
X68762Y-65605D01*
X68950Y-65605D01*
X68950Y-65720D01*
X69579Y-66350D01*
X72224Y-66350D01*
X72202Y-66432D01*
X72500Y-66729D01*
X72505Y-66723D01*
X72576Y-66794D01*
X72570Y-66800D01*
X72867Y-67097D01*
X72960Y-67072D01*
X73029Y-66875D01*
X73018Y-66667D01*
X72963Y-66534D01*
X73150Y-66720D01*
X73150Y-68150D01*
X73150Y-68150D01*
G37*
G54D25*
X73150Y-68150D02*
X72797Y-68150D01*
X72797Y-67167D01*
X72500Y-66870D01*
X72429Y-66941D01*
X72429Y-66800D01*
X72132Y-66502D01*
X72039Y-66527D01*
X71970Y-66724D01*
X71981Y-66932D01*
X72039Y-67072D01*
X72132Y-67097D01*
X72429Y-66800D01*
X72429Y-66941D01*
X72202Y-67167D01*
X72227Y-67260D01*
X72424Y-67329D01*
X72632Y-67318D01*
X72772Y-67260D01*
X72797Y-67167D01*
X72797Y-68150D01*
X68600Y-68150D01*
X68600Y-65542D01*
X68600Y-65050D01*
X68600Y-64950D01*
X68600Y-64457D01*
X68537Y-64395D01*
X68285Y-64394D01*
X68193Y-64432D01*
X68123Y-64503D01*
X68085Y-64595D01*
X68084Y-64694D01*
X68085Y-64887D01*
X68147Y-64950D01*
X68600Y-64950D01*
X68600Y-65050D01*
X68147Y-65050D01*
X68085Y-65112D01*
X68084Y-65305D01*
X68085Y-65404D01*
X68123Y-65496D01*
X68193Y-65567D01*
X68285Y-65605D01*
X68537Y-65605D01*
X68600Y-65542D01*
X68600Y-68150D01*
X67426Y-68150D01*
X67426Y-66922D01*
X67426Y-64954D01*
X67418Y-64667D01*
X67323Y-64439D01*
X67210Y-64391D01*
X67139Y-64462D01*
X67139Y-64320D01*
X67091Y-64207D01*
X66822Y-64105D01*
X66535Y-64113D01*
X66308Y-64207D01*
X66260Y-64320D01*
X66700Y-64760D01*
X67139Y-64320D01*
X67139Y-64462D01*
X66770Y-64831D01*
X67210Y-65271D01*
X67323Y-65223D01*
X67426Y-64954D01*
X67426Y-66922D01*
X67418Y-66635D01*
X67323Y-66408D01*
X67210Y-66360D01*
X67139Y-66430D01*
X67139Y-66289D01*
X67139Y-65342D01*
X66700Y-64902D01*
X66629Y-64972D01*
X66629Y-64831D01*
X66189Y-64391D01*
X66076Y-64439D01*
X65973Y-64708D01*
X65981Y-64995D01*
X66076Y-65223D01*
X66189Y-65271D01*
X66629Y-64831D01*
X66629Y-64972D01*
X66260Y-65342D01*
X66308Y-65455D01*
X66577Y-65557D01*
X66864Y-65549D01*
X67091Y-65455D01*
X67139Y-65342D01*
X67139Y-66289D01*
X67091Y-66176D01*
X66822Y-66073D01*
X66535Y-66081D01*
X66308Y-66176D01*
X66260Y-66289D01*
X66700Y-66729D01*
X67139Y-66289D01*
X67139Y-66430D01*
X66770Y-66800D01*
X67210Y-67239D01*
X67323Y-67191D01*
X67426Y-66922D01*
X67426Y-68150D01*
X67139Y-68150D01*
X67139Y-67310D01*
X66700Y-66870D01*
X66629Y-66941D01*
X66629Y-66800D01*
X66189Y-66360D01*
X66076Y-66408D01*
X65973Y-66677D01*
X65981Y-66964D01*
X66076Y-67191D01*
X66189Y-67239D01*
X66629Y-66800D01*
X66629Y-66941D01*
X66260Y-67310D01*
X66308Y-67423D01*
X66577Y-67526D01*
X66864Y-67518D01*
X67091Y-67423D01*
X67139Y-67310D01*
X67139Y-68150D01*
X65404Y-68150D01*
X65404Y-59757D01*
X65397Y-59438D01*
X65289Y-59176D01*
X65167Y-59118D01*
X65096Y-59189D01*
X65096Y-59048D01*
X65038Y-58926D01*
X64741Y-58811D01*
X64423Y-58818D01*
X64161Y-58926D01*
X64103Y-59048D01*
X64600Y-59545D01*
X65096Y-59048D01*
X65096Y-59189D01*
X64670Y-59615D01*
X65167Y-60112D01*
X65289Y-60054D01*
X65404Y-59757D01*
X65404Y-68150D01*
X65096Y-68150D01*
X65096Y-60183D01*
X64600Y-59686D01*
X64529Y-59757D01*
X64529Y-59615D01*
X64032Y-59118D01*
X63910Y-59176D01*
X63795Y-59474D01*
X63802Y-59792D01*
X63910Y-60054D01*
X64032Y-60112D01*
X64529Y-59615D01*
X64529Y-59757D01*
X64103Y-60183D01*
X64161Y-60304D01*
X64458Y-60420D01*
X64776Y-60413D01*
X65038Y-60304D01*
X65096Y-60183D01*
X65096Y-68150D01*
X64666Y-68150D01*
X64666Y-66922D01*
X64666Y-64954D01*
X64658Y-64667D01*
X64564Y-64439D01*
X64450Y-64391D01*
X64380Y-64462D01*
X64380Y-64320D01*
X64331Y-64207D01*
X64063Y-64105D01*
X63775Y-64113D01*
X63548Y-64207D01*
X63500Y-64320D01*
X63940Y-64760D01*
X64380Y-64320D01*
X64380Y-64462D01*
X64010Y-64831D01*
X64450Y-65271D01*
X64564Y-65223D01*
X64666Y-64954D01*
X64666Y-66922D01*
X64658Y-66635D01*
X64564Y-66408D01*
X64450Y-66360D01*
X64380Y-66430D01*
X64380Y-66289D01*
X64380Y-65342D01*
X63940Y-64902D01*
X63869Y-64972D01*
X63869Y-64831D01*
X63429Y-64391D01*
X63316Y-64439D01*
X63213Y-64708D01*
X63222Y-64995D01*
X63316Y-65223D01*
X63429Y-65271D01*
X63869Y-64831D01*
X63869Y-64972D01*
X63500Y-65342D01*
X63548Y-65455D01*
X63817Y-65557D01*
X64104Y-65549D01*
X64331Y-65455D01*
X64380Y-65342D01*
X64380Y-66289D01*
X64331Y-66176D01*
X64063Y-66073D01*
X63775Y-66081D01*
X63548Y-66176D01*
X63500Y-66289D01*
X63940Y-66729D01*
X64380Y-66289D01*
X64380Y-66430D01*
X64010Y-66800D01*
X64450Y-67239D01*
X64564Y-67191D01*
X64666Y-66922D01*
X64666Y-68150D01*
X64380Y-68150D01*
X64380Y-67310D01*
X63940Y-66870D01*
X63869Y-66941D01*
X63869Y-66800D01*
X63429Y-66360D01*
X63316Y-66408D01*
X63213Y-66677D01*
X63222Y-66964D01*
X63316Y-67191D01*
X63429Y-67239D01*
X63869Y-66800D01*
X63869Y-66941D01*
X63500Y-67310D01*
X63548Y-67423D01*
X63817Y-67526D01*
X64104Y-67518D01*
X64331Y-67423D01*
X64380Y-67310D01*
X64380Y-68150D01*
X62319Y-68150D01*
X62319Y-65217D01*
X62146Y-64799D01*
X61827Y-64480D01*
X61647Y-64405D01*
X61647Y-56322D01*
X61647Y-56208D01*
X61584Y-56146D01*
X61250Y-56146D01*
X61250Y-56460D01*
X61312Y-56523D01*
X61347Y-56523D01*
X61446Y-56522D01*
X61538Y-56484D01*
X61609Y-56414D01*
X61647Y-56322D01*
X61647Y-64405D01*
X61410Y-64306D01*
X61150Y-64306D01*
X61150Y-56460D01*
X61150Y-56146D01*
X60815Y-56146D01*
X60800Y-56161D01*
X60784Y-56146D01*
X60450Y-56146D01*
X60450Y-56460D01*
X60512Y-56523D01*
X60547Y-56523D01*
X60646Y-56522D01*
X60738Y-56484D01*
X60800Y-56423D01*
X60861Y-56484D01*
X60953Y-56522D01*
X61052Y-56523D01*
X61087Y-56523D01*
X61150Y-56460D01*
X61150Y-64306D01*
X60958Y-64306D01*
X60540Y-64479D01*
X60350Y-64669D01*
X60350Y-56460D01*
X60350Y-56146D01*
X60015Y-56146D01*
X59953Y-56208D01*
X59952Y-56322D01*
X59990Y-56414D01*
X60061Y-56484D01*
X60153Y-56522D01*
X60252Y-56523D01*
X60287Y-56523D01*
X60350Y-56460D01*
X60350Y-64669D01*
X60221Y-64798D01*
X60047Y-65215D01*
X60047Y-65667D01*
X60219Y-66085D01*
X60539Y-66404D01*
X60956Y-66578D01*
X61408Y-66578D01*
X61826Y-66405D01*
X62145Y-66086D01*
X62319Y-65669D01*
X62319Y-65217D01*
X62319Y-68150D01*
X59550Y-68150D01*
X59550Y-56050D01*
X62650Y-56050D01*
X62650Y-57420D01*
X63679Y-58450D01*
X65279Y-58450D01*
X66150Y-59320D01*
X66150Y-62620D01*
X67079Y-63550D01*
X68379Y-63550D01*
X68950Y-64120D01*
X68950Y-64394D01*
X68762Y-64395D01*
X68700Y-64457D01*
X68700Y-64950D01*
X68707Y-64950D01*
X68707Y-65050D01*
X68700Y-65050D01*
X68700Y-65542D01*
X68762Y-65605D01*
X68950Y-65605D01*
X68950Y-65720D01*
X69579Y-66350D01*
X72224Y-66350D01*
X72202Y-66432D01*
X72500Y-66729D01*
X72505Y-66723D01*
X72576Y-66794D01*
X72570Y-66800D01*
X72867Y-67097D01*
X72960Y-67072D01*
X73029Y-66875D01*
X73018Y-66667D01*
X72963Y-66534D01*
X73150Y-66720D01*
X73150Y-68150D01*
G54D10*
G36*
X89250Y-45979D02*
X88204Y-47024D01*
X88204Y-44993D01*
X88194Y-44755D01*
X88122Y-44582D01*
X88022Y-44548D01*
X87951Y-44619D01*
X87951Y-44477D01*
X87917Y-44377D01*
X87693Y-44295D01*
X87455Y-44305D01*
X87282Y-44377D01*
X87248Y-44477D01*
X87600Y-44829D01*
X87951Y-44477D01*
X87951Y-44619D01*
X87670Y-44900D01*
X88022Y-45251D01*
X88122Y-45217D01*
X88204Y-44993D01*
X88204Y-47024D01*
X87951Y-47277D01*
X87951Y-45322D01*
X87600Y-44970D01*
X87529Y-45041D01*
X87529Y-44900D01*
X87177Y-44548D01*
X87077Y-44582D01*
X86995Y-44806D01*
X87005Y-45044D01*
X87077Y-45217D01*
X87177Y-45251D01*
X87529Y-44900D01*
X87529Y-45041D01*
X87248Y-45322D01*
X87282Y-45422D01*
X87506Y-45504D01*
X87744Y-45494D01*
X87917Y-45422D01*
X87951Y-45322D01*
X87951Y-47277D01*
X87879Y-47350D01*
X86026Y-47350D01*
X86026Y-46322D01*
X86026Y-44354D01*
X86018Y-44067D01*
X85923Y-43839D01*
X85810Y-43791D01*
X85739Y-43862D01*
X85739Y-43720D01*
X85691Y-43607D01*
X85422Y-43505D01*
X85135Y-43513D01*
X84908Y-43607D01*
X84860Y-43720D01*
X85300Y-44160D01*
X85739Y-43720D01*
X85739Y-43862D01*
X85370Y-44231D01*
X85810Y-44671D01*
X85923Y-44623D01*
X86026Y-44354D01*
X86026Y-46322D01*
X86018Y-46035D01*
X85923Y-45808D01*
X85810Y-45760D01*
X85739Y-45830D01*
X85739Y-45689D01*
X85739Y-44742D01*
X85300Y-44302D01*
X85229Y-44372D01*
X85229Y-44231D01*
X84789Y-43791D01*
X84676Y-43839D01*
X84573Y-44108D01*
X84581Y-44395D01*
X84676Y-44623D01*
X84789Y-44671D01*
X85229Y-44231D01*
X85229Y-44372D01*
X84860Y-44742D01*
X84908Y-44855D01*
X85177Y-44957D01*
X85464Y-44949D01*
X85691Y-44855D01*
X85739Y-44742D01*
X85739Y-45689D01*
X85691Y-45576D01*
X85422Y-45473D01*
X85135Y-45481D01*
X84908Y-45576D01*
X84860Y-45689D01*
X85300Y-46129D01*
X85739Y-45689D01*
X85739Y-45830D01*
X85370Y-46200D01*
X85810Y-46639D01*
X85923Y-46591D01*
X86026Y-46322D01*
X86026Y-47350D01*
X85739Y-47350D01*
X85739Y-46710D01*
X85300Y-46270D01*
X85229Y-46341D01*
X85229Y-46200D01*
X84789Y-45760D01*
X84676Y-45808D01*
X84573Y-46077D01*
X84581Y-46364D01*
X84676Y-46591D01*
X84789Y-46639D01*
X85229Y-46200D01*
X85229Y-46341D01*
X84860Y-46710D01*
X84908Y-46823D01*
X85177Y-46926D01*
X85464Y-46918D01*
X85691Y-46823D01*
X85739Y-46710D01*
X85739Y-47350D01*
X83266Y-47350D01*
X83266Y-46322D01*
X83266Y-44354D01*
X83258Y-44067D01*
X83164Y-43839D01*
X83050Y-43791D01*
X82980Y-43862D01*
X82980Y-43720D01*
X82931Y-43607D01*
X82663Y-43505D01*
X82375Y-43513D01*
X82148Y-43607D01*
X82100Y-43720D01*
X82540Y-44160D01*
X82980Y-43720D01*
X82980Y-43862D01*
X82610Y-44231D01*
X83050Y-44671D01*
X83164Y-44623D01*
X83266Y-44354D01*
X83266Y-46322D01*
X83258Y-46035D01*
X83164Y-45808D01*
X83050Y-45760D01*
X82980Y-45830D01*
X82980Y-45689D01*
X82980Y-44742D01*
X82540Y-44302D01*
X82469Y-44372D01*
X82469Y-44231D01*
X82029Y-43791D01*
X81916Y-43839D01*
X81813Y-44108D01*
X81822Y-44395D01*
X81916Y-44623D01*
X82029Y-44671D01*
X82469Y-44231D01*
X82469Y-44372D01*
X82100Y-44742D01*
X82148Y-44855D01*
X82417Y-44957D01*
X82704Y-44949D01*
X82931Y-44855D01*
X82980Y-44742D01*
X82980Y-45689D01*
X82931Y-45576D01*
X82663Y-45473D01*
X82375Y-45481D01*
X82148Y-45576D01*
X82100Y-45689D01*
X82540Y-46129D01*
X82980Y-45689D01*
X82980Y-45830D01*
X82610Y-46200D01*
X83050Y-46639D01*
X83164Y-46591D01*
X83266Y-46322D01*
X83266Y-47350D01*
X82980Y-47350D01*
X82980Y-46710D01*
X82540Y-46270D01*
X82469Y-46341D01*
X82469Y-46200D01*
X82029Y-45760D01*
X81916Y-45808D01*
X81813Y-46077D01*
X81822Y-46364D01*
X81916Y-46591D01*
X82029Y-46639D01*
X82469Y-46200D01*
X82469Y-46341D01*
X82100Y-46710D01*
X82148Y-46823D01*
X82417Y-46926D01*
X82704Y-46918D01*
X82931Y-46823D01*
X82980Y-46710D01*
X82980Y-47350D01*
X81820Y-47350D01*
X81150Y-46679D01*
X81150Y-43450D01*
X89250Y-43450D01*
X89250Y-43900D01*
X89250Y-45979D01*
X89250Y-45979D01*
G37*
G54D25*
X89250Y-45979D02*
X88204Y-47024D01*
X88204Y-44993D01*
X88194Y-44755D01*
X88122Y-44582D01*
X88022Y-44548D01*
X87951Y-44619D01*
X87951Y-44477D01*
X87917Y-44377D01*
X87693Y-44295D01*
X87455Y-44305D01*
X87282Y-44377D01*
X87248Y-44477D01*
X87600Y-44829D01*
X87951Y-44477D01*
X87951Y-44619D01*
X87670Y-44900D01*
X88022Y-45251D01*
X88122Y-45217D01*
X88204Y-44993D01*
X88204Y-47024D01*
X87951Y-47277D01*
X87951Y-45322D01*
X87600Y-44970D01*
X87529Y-45041D01*
X87529Y-44900D01*
X87177Y-44548D01*
X87077Y-44582D01*
X86995Y-44806D01*
X87005Y-45044D01*
X87077Y-45217D01*
X87177Y-45251D01*
X87529Y-44900D01*
X87529Y-45041D01*
X87248Y-45322D01*
X87282Y-45422D01*
X87506Y-45504D01*
X87744Y-45494D01*
X87917Y-45422D01*
X87951Y-45322D01*
X87951Y-47277D01*
X87879Y-47350D01*
X86026Y-47350D01*
X86026Y-46322D01*
X86026Y-44354D01*
X86018Y-44067D01*
X85923Y-43839D01*
X85810Y-43791D01*
X85739Y-43862D01*
X85739Y-43720D01*
X85691Y-43607D01*
X85422Y-43505D01*
X85135Y-43513D01*
X84908Y-43607D01*
X84860Y-43720D01*
X85300Y-44160D01*
X85739Y-43720D01*
X85739Y-43862D01*
X85370Y-44231D01*
X85810Y-44671D01*
X85923Y-44623D01*
X86026Y-44354D01*
X86026Y-46322D01*
X86018Y-46035D01*
X85923Y-45808D01*
X85810Y-45760D01*
X85739Y-45830D01*
X85739Y-45689D01*
X85739Y-44742D01*
X85300Y-44302D01*
X85229Y-44372D01*
X85229Y-44231D01*
X84789Y-43791D01*
X84676Y-43839D01*
X84573Y-44108D01*
X84581Y-44395D01*
X84676Y-44623D01*
X84789Y-44671D01*
X85229Y-44231D01*
X85229Y-44372D01*
X84860Y-44742D01*
X84908Y-44855D01*
X85177Y-44957D01*
X85464Y-44949D01*
X85691Y-44855D01*
X85739Y-44742D01*
X85739Y-45689D01*
X85691Y-45576D01*
X85422Y-45473D01*
X85135Y-45481D01*
X84908Y-45576D01*
X84860Y-45689D01*
X85300Y-46129D01*
X85739Y-45689D01*
X85739Y-45830D01*
X85370Y-46200D01*
X85810Y-46639D01*
X85923Y-46591D01*
X86026Y-46322D01*
X86026Y-47350D01*
X85739Y-47350D01*
X85739Y-46710D01*
X85300Y-46270D01*
X85229Y-46341D01*
X85229Y-46200D01*
X84789Y-45760D01*
X84676Y-45808D01*
X84573Y-46077D01*
X84581Y-46364D01*
X84676Y-46591D01*
X84789Y-46639D01*
X85229Y-46200D01*
X85229Y-46341D01*
X84860Y-46710D01*
X84908Y-46823D01*
X85177Y-46926D01*
X85464Y-46918D01*
X85691Y-46823D01*
X85739Y-46710D01*
X85739Y-47350D01*
X83266Y-47350D01*
X83266Y-46322D01*
X83266Y-44354D01*
X83258Y-44067D01*
X83164Y-43839D01*
X83050Y-43791D01*
X82980Y-43862D01*
X82980Y-43720D01*
X82931Y-43607D01*
X82663Y-43505D01*
X82375Y-43513D01*
X82148Y-43607D01*
X82100Y-43720D01*
X82540Y-44160D01*
X82980Y-43720D01*
X82980Y-43862D01*
X82610Y-44231D01*
X83050Y-44671D01*
X83164Y-44623D01*
X83266Y-44354D01*
X83266Y-46322D01*
X83258Y-46035D01*
X83164Y-45808D01*
X83050Y-45760D01*
X82980Y-45830D01*
X82980Y-45689D01*
X82980Y-44742D01*
X82540Y-44302D01*
X82469Y-44372D01*
X82469Y-44231D01*
X82029Y-43791D01*
X81916Y-43839D01*
X81813Y-44108D01*
X81822Y-44395D01*
X81916Y-44623D01*
X82029Y-44671D01*
X82469Y-44231D01*
X82469Y-44372D01*
X82100Y-44742D01*
X82148Y-44855D01*
X82417Y-44957D01*
X82704Y-44949D01*
X82931Y-44855D01*
X82980Y-44742D01*
X82980Y-45689D01*
X82931Y-45576D01*
X82663Y-45473D01*
X82375Y-45481D01*
X82148Y-45576D01*
X82100Y-45689D01*
X82540Y-46129D01*
X82980Y-45689D01*
X82980Y-45830D01*
X82610Y-46200D01*
X83050Y-46639D01*
X83164Y-46591D01*
X83266Y-46322D01*
X83266Y-47350D01*
X82980Y-47350D01*
X82980Y-46710D01*
X82540Y-46270D01*
X82469Y-46341D01*
X82469Y-46200D01*
X82029Y-45760D01*
X81916Y-45808D01*
X81813Y-46077D01*
X81822Y-46364D01*
X81916Y-46591D01*
X82029Y-46639D01*
X82469Y-46200D01*
X82469Y-46341D01*
X82100Y-46710D01*
X82148Y-46823D01*
X82417Y-46926D01*
X82704Y-46918D01*
X82931Y-46823D01*
X82980Y-46710D01*
X82980Y-47350D01*
X81820Y-47350D01*
X81150Y-46679D01*
X81150Y-43450D01*
X89250Y-43450D01*
X89250Y-43900D01*
X89250Y-45979D01*
G54D10*
G36*
X100350Y-68150D02*
X99723Y-68150D01*
X99723Y-50347D01*
X99723Y-50052D01*
X99723Y-49447D01*
X99723Y-49152D01*
X99722Y-49053D01*
X99684Y-48961D01*
X99614Y-48890D01*
X99522Y-48852D01*
X99408Y-48853D01*
X99346Y-48915D01*
X99346Y-49250D01*
X99660Y-49250D01*
X99723Y-49187D01*
X99723Y-49152D01*
X99723Y-49447D01*
X99723Y-49412D01*
X99660Y-49350D01*
X99346Y-49350D01*
X99346Y-49684D01*
X99408Y-49747D01*
X99522Y-49747D01*
X99614Y-49709D01*
X99684Y-49638D01*
X99722Y-49546D01*
X99723Y-49447D01*
X99723Y-50052D01*
X99722Y-49953D01*
X99684Y-49861D01*
X99614Y-49790D01*
X99522Y-49752D01*
X99408Y-49753D01*
X99346Y-49815D01*
X99346Y-50150D01*
X99660Y-50150D01*
X99723Y-50087D01*
X99723Y-50052D01*
X99723Y-50347D01*
X99723Y-50312D01*
X99660Y-50250D01*
X99346Y-50250D01*
X99346Y-50584D01*
X99408Y-50647D01*
X99522Y-50647D01*
X99614Y-50609D01*
X99684Y-50538D01*
X99722Y-50446D01*
X99723Y-50347D01*
X99723Y-68150D01*
X93370Y-68150D01*
X93370Y-66700D01*
X93340Y-66546D01*
X93253Y-66417D01*
X93124Y-66330D01*
X92970Y-66300D01*
X92651Y-66300D01*
X92497Y-66330D01*
X92368Y-66417D01*
X92281Y-66546D01*
X92251Y-66700D01*
X92281Y-66853D01*
X92368Y-66982D01*
X92497Y-67069D01*
X92651Y-67100D01*
X92970Y-67100D01*
X93124Y-67069D01*
X93253Y-66982D01*
X93340Y-66853D01*
X93370Y-66700D01*
X93370Y-68150D01*
X91559Y-68150D01*
X91559Y-66700D01*
X91529Y-66546D01*
X91442Y-66417D01*
X91313Y-66330D01*
X91159Y-66300D01*
X90840Y-66300D01*
X90686Y-66330D01*
X90557Y-66417D01*
X90470Y-66546D01*
X90440Y-66700D01*
X90470Y-66853D01*
X90557Y-66982D01*
X90686Y-67069D01*
X90840Y-67100D01*
X91159Y-67100D01*
X91313Y-67069D01*
X91442Y-66982D01*
X91529Y-66853D01*
X91559Y-66700D01*
X91559Y-68150D01*
X89748Y-68150D01*
X89748Y-66700D01*
X89718Y-66546D01*
X89631Y-66417D01*
X89502Y-66330D01*
X89348Y-66300D01*
X89029Y-66300D01*
X88875Y-66330D01*
X88746Y-66417D01*
X88659Y-66546D01*
X88629Y-66700D01*
X88659Y-66853D01*
X88746Y-66982D01*
X88875Y-67069D01*
X89029Y-67100D01*
X89348Y-67100D01*
X89502Y-67069D01*
X89631Y-66982D01*
X89718Y-66853D01*
X89748Y-66700D01*
X89748Y-68150D01*
X86226Y-68150D01*
X86226Y-67022D01*
X86226Y-65054D01*
X86218Y-64767D01*
X86123Y-64539D01*
X86010Y-64491D01*
X85939Y-64562D01*
X85939Y-64420D01*
X85891Y-64307D01*
X85622Y-64205D01*
X85404Y-64211D01*
X85404Y-59757D01*
X85397Y-59438D01*
X85289Y-59176D01*
X85167Y-59118D01*
X85096Y-59189D01*
X85096Y-59048D01*
X85038Y-58926D01*
X84741Y-58811D01*
X84423Y-58818D01*
X84161Y-58926D01*
X84103Y-59048D01*
X84600Y-59545D01*
X85096Y-59048D01*
X85096Y-59189D01*
X84670Y-59615D01*
X85167Y-60112D01*
X85289Y-60054D01*
X85404Y-59757D01*
X85404Y-64211D01*
X85335Y-64213D01*
X85108Y-64307D01*
X85096Y-64334D01*
X85096Y-60183D01*
X84600Y-59686D01*
X84529Y-59757D01*
X84529Y-59615D01*
X84032Y-59118D01*
X83910Y-59176D01*
X83795Y-59474D01*
X83802Y-59792D01*
X83910Y-60054D01*
X84032Y-60112D01*
X84529Y-59615D01*
X84529Y-59757D01*
X84103Y-60183D01*
X84161Y-60304D01*
X84458Y-60420D01*
X84776Y-60413D01*
X85038Y-60304D01*
X85096Y-60183D01*
X85096Y-64334D01*
X85060Y-64420D01*
X85500Y-64860D01*
X85939Y-64420D01*
X85939Y-64562D01*
X85570Y-64931D01*
X86010Y-65371D01*
X86123Y-65323D01*
X86226Y-65054D01*
X86226Y-67022D01*
X86218Y-66735D01*
X86123Y-66508D01*
X86010Y-66460D01*
X85939Y-66530D01*
X85939Y-66389D01*
X85939Y-65442D01*
X85500Y-65002D01*
X85429Y-65072D01*
X85429Y-64931D01*
X84989Y-64491D01*
X84876Y-64539D01*
X84773Y-64808D01*
X84781Y-65095D01*
X84876Y-65323D01*
X84989Y-65371D01*
X85429Y-64931D01*
X85429Y-65072D01*
X85060Y-65442D01*
X85108Y-65555D01*
X85377Y-65657D01*
X85664Y-65649D01*
X85891Y-65555D01*
X85939Y-65442D01*
X85939Y-66389D01*
X85891Y-66276D01*
X85622Y-66173D01*
X85335Y-66181D01*
X85108Y-66276D01*
X85060Y-66389D01*
X85500Y-66829D01*
X85939Y-66389D01*
X85939Y-66530D01*
X85570Y-66900D01*
X86010Y-67339D01*
X86123Y-67291D01*
X86226Y-67022D01*
X86226Y-68150D01*
X85939Y-68150D01*
X85939Y-67410D01*
X85500Y-66970D01*
X85429Y-67041D01*
X85429Y-66900D01*
X84989Y-66460D01*
X84876Y-66508D01*
X84773Y-66777D01*
X84781Y-67064D01*
X84876Y-67291D01*
X84989Y-67339D01*
X85429Y-66900D01*
X85429Y-67041D01*
X85060Y-67410D01*
X85108Y-67523D01*
X85377Y-67626D01*
X85664Y-67618D01*
X85891Y-67523D01*
X85939Y-67410D01*
X85939Y-68150D01*
X83466Y-68150D01*
X83466Y-67022D01*
X83466Y-65054D01*
X83458Y-64767D01*
X83364Y-64539D01*
X83250Y-64491D01*
X83180Y-64562D01*
X83180Y-64420D01*
X83131Y-64307D01*
X82863Y-64205D01*
X82575Y-64213D01*
X82348Y-64307D01*
X82300Y-64420D01*
X82740Y-64860D01*
X83180Y-64420D01*
X83180Y-64562D01*
X82810Y-64931D01*
X83250Y-65371D01*
X83364Y-65323D01*
X83466Y-65054D01*
X83466Y-67022D01*
X83458Y-66735D01*
X83364Y-66508D01*
X83250Y-66460D01*
X83180Y-66530D01*
X83180Y-66389D01*
X83180Y-65442D01*
X82740Y-65002D01*
X82669Y-65072D01*
X82669Y-64931D01*
X82229Y-64491D01*
X82116Y-64539D01*
X82013Y-64808D01*
X82022Y-65095D01*
X82116Y-65323D01*
X82229Y-65371D01*
X82669Y-64931D01*
X82669Y-65072D01*
X82300Y-65442D01*
X82348Y-65555D01*
X82617Y-65657D01*
X82904Y-65649D01*
X83131Y-65555D01*
X83180Y-65442D01*
X83180Y-66389D01*
X83131Y-66276D01*
X82863Y-66173D01*
X82575Y-66181D01*
X82348Y-66276D01*
X82300Y-66389D01*
X82740Y-66829D01*
X83180Y-66389D01*
X83180Y-66530D01*
X82810Y-66900D01*
X83250Y-67339D01*
X83364Y-67291D01*
X83466Y-67022D01*
X83466Y-68150D01*
X83180Y-68150D01*
X83180Y-67410D01*
X82740Y-66970D01*
X82669Y-67041D01*
X82669Y-66900D01*
X82229Y-66460D01*
X82116Y-66508D01*
X82013Y-66777D01*
X82022Y-67064D01*
X82116Y-67291D01*
X82229Y-67339D01*
X82669Y-66900D01*
X82669Y-67041D01*
X82300Y-67410D01*
X82348Y-67523D01*
X82617Y-67626D01*
X82904Y-67618D01*
X83131Y-67523D01*
X83180Y-67410D01*
X83180Y-68150D01*
X79715Y-68150D01*
X79715Y-65405D01*
X79715Y-64794D01*
X79714Y-64695D01*
X79676Y-64603D01*
X79606Y-64532D01*
X79514Y-64494D01*
X79262Y-64495D01*
X79200Y-64557D01*
X79200Y-65050D01*
X79652Y-65050D01*
X79715Y-64987D01*
X79715Y-64794D01*
X79715Y-65405D01*
X79715Y-65212D01*
X79652Y-65150D01*
X79200Y-65150D01*
X79200Y-65642D01*
X79262Y-65705D01*
X79514Y-65705D01*
X79606Y-65667D01*
X79676Y-65596D01*
X79714Y-65504D01*
X79715Y-65405D01*
X79715Y-68150D01*
X76029Y-68150D01*
X76029Y-66875D01*
X76018Y-66667D01*
X75960Y-66527D01*
X75867Y-66502D01*
X75797Y-66573D01*
X75797Y-66432D01*
X75772Y-66339D01*
X75575Y-66270D01*
X75367Y-66281D01*
X75227Y-66339D01*
X75202Y-66432D01*
X75500Y-66729D01*
X75797Y-66432D01*
X75797Y-66573D01*
X75570Y-66800D01*
X75867Y-67097D01*
X75960Y-67072D01*
X76029Y-66875D01*
X76029Y-68150D01*
X75797Y-68150D01*
X75797Y-67167D01*
X75500Y-66870D01*
X75429Y-66941D01*
X75429Y-66800D01*
X75132Y-66502D01*
X75039Y-66527D01*
X74970Y-66724D01*
X74981Y-66932D01*
X75039Y-67072D01*
X75132Y-67097D01*
X75429Y-66800D01*
X75429Y-66941D01*
X75202Y-67167D01*
X75227Y-67260D01*
X75424Y-67329D01*
X75632Y-67318D01*
X75772Y-67260D01*
X75797Y-67167D01*
X75797Y-68150D01*
X74650Y-68150D01*
X74650Y-66720D01*
X75120Y-66250D01*
X78520Y-66250D01*
X78950Y-65820D01*
X78950Y-65705D01*
X79037Y-65705D01*
X79100Y-65642D01*
X79100Y-65150D01*
X79092Y-65150D01*
X79092Y-65050D01*
X79100Y-65050D01*
X79100Y-64557D01*
X79037Y-64495D01*
X78950Y-64494D01*
X78950Y-64220D01*
X79520Y-63650D01*
X81620Y-63650D01*
X82550Y-62720D01*
X82550Y-58520D01*
X82920Y-58150D01*
X85279Y-58150D01*
X86150Y-59020D01*
X86150Y-60300D01*
X86150Y-63520D01*
X87579Y-64950D01*
X93820Y-64950D01*
X94320Y-64450D01*
X96044Y-64450D01*
X95973Y-64479D01*
X95654Y-64798D01*
X95480Y-65215D01*
X95480Y-65667D01*
X95653Y-66085D01*
X95972Y-66404D01*
X96389Y-66578D01*
X96841Y-66578D01*
X97259Y-66405D01*
X97578Y-66086D01*
X97752Y-65669D01*
X97752Y-65217D01*
X97580Y-64799D01*
X97260Y-64480D01*
X97188Y-64450D01*
X98850Y-64450D01*
X98850Y-61820D01*
X99250Y-61420D01*
X99250Y-48479D01*
X98120Y-47350D01*
X97752Y-47350D01*
X97752Y-45532D01*
X97580Y-45114D01*
X97260Y-44795D01*
X96843Y-44621D01*
X96391Y-44621D01*
X95973Y-44794D01*
X95654Y-45113D01*
X95480Y-45530D01*
X95480Y-45982D01*
X95653Y-46400D01*
X95972Y-46719D01*
X96389Y-46893D01*
X96841Y-46893D01*
X97259Y-46720D01*
X97578Y-46401D01*
X97752Y-45984D01*
X97752Y-45532D01*
X97752Y-47350D01*
X95050Y-47350D01*
X95050Y-46500D01*
X95050Y-43350D01*
X100350Y-43350D01*
X100350Y-68150D01*
X100350Y-68150D01*
G37*
G54D25*
X100350Y-68150D02*
X99723Y-68150D01*
X99723Y-50347D01*
X99723Y-50052D01*
X99723Y-49447D01*
X99723Y-49152D01*
X99722Y-49053D01*
X99684Y-48961D01*
X99614Y-48890D01*
X99522Y-48852D01*
X99408Y-48853D01*
X99346Y-48915D01*
X99346Y-49250D01*
X99660Y-49250D01*
X99723Y-49187D01*
X99723Y-49152D01*
X99723Y-49447D01*
X99723Y-49412D01*
X99660Y-49350D01*
X99346Y-49350D01*
X99346Y-49684D01*
X99408Y-49747D01*
X99522Y-49747D01*
X99614Y-49709D01*
X99684Y-49638D01*
X99722Y-49546D01*
X99723Y-49447D01*
X99723Y-50052D01*
X99722Y-49953D01*
X99684Y-49861D01*
X99614Y-49790D01*
X99522Y-49752D01*
X99408Y-49753D01*
X99346Y-49815D01*
X99346Y-50150D01*
X99660Y-50150D01*
X99723Y-50087D01*
X99723Y-50052D01*
X99723Y-50347D01*
X99723Y-50312D01*
X99660Y-50250D01*
X99346Y-50250D01*
X99346Y-50584D01*
X99408Y-50647D01*
X99522Y-50647D01*
X99614Y-50609D01*
X99684Y-50538D01*
X99722Y-50446D01*
X99723Y-50347D01*
X99723Y-68150D01*
X93370Y-68150D01*
X93370Y-66700D01*
X93340Y-66546D01*
X93253Y-66417D01*
X93124Y-66330D01*
X92970Y-66300D01*
X92651Y-66300D01*
X92497Y-66330D01*
X92368Y-66417D01*
X92281Y-66546D01*
X92251Y-66700D01*
X92281Y-66853D01*
X92368Y-66982D01*
X92497Y-67069D01*
X92651Y-67100D01*
X92970Y-67100D01*
X93124Y-67069D01*
X93253Y-66982D01*
X93340Y-66853D01*
X93370Y-66700D01*
X93370Y-68150D01*
X91559Y-68150D01*
X91559Y-66700D01*
X91529Y-66546D01*
X91442Y-66417D01*
X91313Y-66330D01*
X91159Y-66300D01*
X90840Y-66300D01*
X90686Y-66330D01*
X90557Y-66417D01*
X90470Y-66546D01*
X90440Y-66700D01*
X90470Y-66853D01*
X90557Y-66982D01*
X90686Y-67069D01*
X90840Y-67100D01*
X91159Y-67100D01*
X91313Y-67069D01*
X91442Y-66982D01*
X91529Y-66853D01*
X91559Y-66700D01*
X91559Y-68150D01*
X89748Y-68150D01*
X89748Y-66700D01*
X89718Y-66546D01*
X89631Y-66417D01*
X89502Y-66330D01*
X89348Y-66300D01*
X89029Y-66300D01*
X88875Y-66330D01*
X88746Y-66417D01*
X88659Y-66546D01*
X88629Y-66700D01*
X88659Y-66853D01*
X88746Y-66982D01*
X88875Y-67069D01*
X89029Y-67100D01*
X89348Y-67100D01*
X89502Y-67069D01*
X89631Y-66982D01*
X89718Y-66853D01*
X89748Y-66700D01*
X89748Y-68150D01*
X86226Y-68150D01*
X86226Y-67022D01*
X86226Y-65054D01*
X86218Y-64767D01*
X86123Y-64539D01*
X86010Y-64491D01*
X85939Y-64562D01*
X85939Y-64420D01*
X85891Y-64307D01*
X85622Y-64205D01*
X85404Y-64211D01*
X85404Y-59757D01*
X85397Y-59438D01*
X85289Y-59176D01*
X85167Y-59118D01*
X85096Y-59189D01*
X85096Y-59048D01*
X85038Y-58926D01*
X84741Y-58811D01*
X84423Y-58818D01*
X84161Y-58926D01*
X84103Y-59048D01*
X84600Y-59545D01*
X85096Y-59048D01*
X85096Y-59189D01*
X84670Y-59615D01*
X85167Y-60112D01*
X85289Y-60054D01*
X85404Y-59757D01*
X85404Y-64211D01*
X85335Y-64213D01*
X85108Y-64307D01*
X85096Y-64334D01*
X85096Y-60183D01*
X84600Y-59686D01*
X84529Y-59757D01*
X84529Y-59615D01*
X84032Y-59118D01*
X83910Y-59176D01*
X83795Y-59474D01*
X83802Y-59792D01*
X83910Y-60054D01*
X84032Y-60112D01*
X84529Y-59615D01*
X84529Y-59757D01*
X84103Y-60183D01*
X84161Y-60304D01*
X84458Y-60420D01*
X84776Y-60413D01*
X85038Y-60304D01*
X85096Y-60183D01*
X85096Y-64334D01*
X85060Y-64420D01*
X85500Y-64860D01*
X85939Y-64420D01*
X85939Y-64562D01*
X85570Y-64931D01*
X86010Y-65371D01*
X86123Y-65323D01*
X86226Y-65054D01*
X86226Y-67022D01*
X86218Y-66735D01*
X86123Y-66508D01*
X86010Y-66460D01*
X85939Y-66530D01*
X85939Y-66389D01*
X85939Y-65442D01*
X85500Y-65002D01*
X85429Y-65072D01*
X85429Y-64931D01*
X84989Y-64491D01*
X84876Y-64539D01*
X84773Y-64808D01*
X84781Y-65095D01*
X84876Y-65323D01*
X84989Y-65371D01*
X85429Y-64931D01*
X85429Y-65072D01*
X85060Y-65442D01*
X85108Y-65555D01*
X85377Y-65657D01*
X85664Y-65649D01*
X85891Y-65555D01*
X85939Y-65442D01*
X85939Y-66389D01*
X85891Y-66276D01*
X85622Y-66173D01*
X85335Y-66181D01*
X85108Y-66276D01*
X85060Y-66389D01*
X85500Y-66829D01*
X85939Y-66389D01*
X85939Y-66530D01*
X85570Y-66900D01*
X86010Y-67339D01*
X86123Y-67291D01*
X86226Y-67022D01*
X86226Y-68150D01*
X85939Y-68150D01*
X85939Y-67410D01*
X85500Y-66970D01*
X85429Y-67041D01*
X85429Y-66900D01*
X84989Y-66460D01*
X84876Y-66508D01*
X84773Y-66777D01*
X84781Y-67064D01*
X84876Y-67291D01*
X84989Y-67339D01*
X85429Y-66900D01*
X85429Y-67041D01*
X85060Y-67410D01*
X85108Y-67523D01*
X85377Y-67626D01*
X85664Y-67618D01*
X85891Y-67523D01*
X85939Y-67410D01*
X85939Y-68150D01*
X83466Y-68150D01*
X83466Y-67022D01*
X83466Y-65054D01*
X83458Y-64767D01*
X83364Y-64539D01*
X83250Y-64491D01*
X83180Y-64562D01*
X83180Y-64420D01*
X83131Y-64307D01*
X82863Y-64205D01*
X82575Y-64213D01*
X82348Y-64307D01*
X82300Y-64420D01*
X82740Y-64860D01*
X83180Y-64420D01*
X83180Y-64562D01*
X82810Y-64931D01*
X83250Y-65371D01*
X83364Y-65323D01*
X83466Y-65054D01*
X83466Y-67022D01*
X83458Y-66735D01*
X83364Y-66508D01*
X83250Y-66460D01*
X83180Y-66530D01*
X83180Y-66389D01*
X83180Y-65442D01*
X82740Y-65002D01*
X82669Y-65072D01*
X82669Y-64931D01*
X82229Y-64491D01*
X82116Y-64539D01*
X82013Y-64808D01*
X82022Y-65095D01*
X82116Y-65323D01*
X82229Y-65371D01*
X82669Y-64931D01*
X82669Y-65072D01*
X82300Y-65442D01*
X82348Y-65555D01*
X82617Y-65657D01*
X82904Y-65649D01*
X83131Y-65555D01*
X83180Y-65442D01*
X83180Y-66389D01*
X83131Y-66276D01*
X82863Y-66173D01*
X82575Y-66181D01*
X82348Y-66276D01*
X82300Y-66389D01*
X82740Y-66829D01*
X83180Y-66389D01*
X83180Y-66530D01*
X82810Y-66900D01*
X83250Y-67339D01*
X83364Y-67291D01*
X83466Y-67022D01*
X83466Y-68150D01*
X83180Y-68150D01*
X83180Y-67410D01*
X82740Y-66970D01*
X82669Y-67041D01*
X82669Y-66900D01*
X82229Y-66460D01*
X82116Y-66508D01*
X82013Y-66777D01*
X82022Y-67064D01*
X82116Y-67291D01*
X82229Y-67339D01*
X82669Y-66900D01*
X82669Y-67041D01*
X82300Y-67410D01*
X82348Y-67523D01*
X82617Y-67626D01*
X82904Y-67618D01*
X83131Y-67523D01*
X83180Y-67410D01*
X83180Y-68150D01*
X79715Y-68150D01*
X79715Y-65405D01*
X79715Y-64794D01*
X79714Y-64695D01*
X79676Y-64603D01*
X79606Y-64532D01*
X79514Y-64494D01*
X79262Y-64495D01*
X79200Y-64557D01*
X79200Y-65050D01*
X79652Y-65050D01*
X79715Y-64987D01*
X79715Y-64794D01*
X79715Y-65405D01*
X79715Y-65212D01*
X79652Y-65150D01*
X79200Y-65150D01*
X79200Y-65642D01*
X79262Y-65705D01*
X79514Y-65705D01*
X79606Y-65667D01*
X79676Y-65596D01*
X79714Y-65504D01*
X79715Y-65405D01*
X79715Y-68150D01*
X76029Y-68150D01*
X76029Y-66875D01*
X76018Y-66667D01*
X75960Y-66527D01*
X75867Y-66502D01*
X75797Y-66573D01*
X75797Y-66432D01*
X75772Y-66339D01*
X75575Y-66270D01*
X75367Y-66281D01*
X75227Y-66339D01*
X75202Y-66432D01*
X75500Y-66729D01*
X75797Y-66432D01*
X75797Y-66573D01*
X75570Y-66800D01*
X75867Y-67097D01*
X75960Y-67072D01*
X76029Y-66875D01*
X76029Y-68150D01*
X75797Y-68150D01*
X75797Y-67167D01*
X75500Y-66870D01*
X75429Y-66941D01*
X75429Y-66800D01*
X75132Y-66502D01*
X75039Y-66527D01*
X74970Y-66724D01*
X74981Y-66932D01*
X75039Y-67072D01*
X75132Y-67097D01*
X75429Y-66800D01*
X75429Y-66941D01*
X75202Y-67167D01*
X75227Y-67260D01*
X75424Y-67329D01*
X75632Y-67318D01*
X75772Y-67260D01*
X75797Y-67167D01*
X75797Y-68150D01*
X74650Y-68150D01*
X74650Y-66720D01*
X75120Y-66250D01*
X78520Y-66250D01*
X78950Y-65820D01*
X78950Y-65705D01*
X79037Y-65705D01*
X79100Y-65642D01*
X79100Y-65150D01*
X79092Y-65150D01*
X79092Y-65050D01*
X79100Y-65050D01*
X79100Y-64557D01*
X79037Y-64495D01*
X78950Y-64494D01*
X78950Y-64220D01*
X79520Y-63650D01*
X81620Y-63650D01*
X82550Y-62720D01*
X82550Y-58520D01*
X82920Y-58150D01*
X85279Y-58150D01*
X86150Y-59020D01*
X86150Y-60300D01*
X86150Y-63520D01*
X87579Y-64950D01*
X93820Y-64950D01*
X94320Y-64450D01*
X96044Y-64450D01*
X95973Y-64479D01*
X95654Y-64798D01*
X95480Y-65215D01*
X95480Y-65667D01*
X95653Y-66085D01*
X95972Y-66404D01*
X96389Y-66578D01*
X96841Y-66578D01*
X97259Y-66405D01*
X97578Y-66086D01*
X97752Y-65669D01*
X97752Y-65217D01*
X97580Y-64799D01*
X97260Y-64480D01*
X97188Y-64450D01*
X98850Y-64450D01*
X98850Y-61820D01*
X99250Y-61420D01*
X99250Y-48479D01*
X98120Y-47350D01*
X97752Y-47350D01*
X97752Y-45532D01*
X97580Y-45114D01*
X97260Y-44795D01*
X96843Y-44621D01*
X96391Y-44621D01*
X95973Y-44794D01*
X95654Y-45113D01*
X95480Y-45530D01*
X95480Y-45982D01*
X95653Y-46400D01*
X95972Y-46719D01*
X96389Y-46893D01*
X96841Y-46893D01*
X97259Y-46720D01*
X97578Y-46401D01*
X97752Y-45984D01*
X97752Y-45532D01*
X97752Y-47350D01*
X95050Y-47350D01*
X95050Y-46500D01*
X95050Y-43350D01*
X100350Y-43350D01*
X100350Y-68150D01*
G54D10*
G36*
X90150Y-51879D02*
X89848Y-52181D01*
X89848Y-47457D01*
X89835Y-47279D01*
X89791Y-47174D01*
X89707Y-47159D01*
X89636Y-47230D01*
X89636Y-47088D01*
X89621Y-47004D01*
X89453Y-46947D01*
X89275Y-46960D01*
X89170Y-47004D01*
X89155Y-47088D01*
X89396Y-47329D01*
X89636Y-47088D01*
X89636Y-47230D01*
X89466Y-47400D01*
X89707Y-47640D01*
X89791Y-47625D01*
X89848Y-47457D01*
X89848Y-52181D01*
X89636Y-52392D01*
X89636Y-47711D01*
X89396Y-47470D01*
X89325Y-47541D01*
X89325Y-47400D01*
X89084Y-47159D01*
X89000Y-47174D01*
X88944Y-47342D01*
X88956Y-47520D01*
X89000Y-47625D01*
X89084Y-47640D01*
X89325Y-47400D01*
X89325Y-47541D01*
X89155Y-47711D01*
X89170Y-47795D01*
X89338Y-47852D01*
X89516Y-47839D01*
X89621Y-47795D01*
X89636Y-47711D01*
X89636Y-52392D01*
X89479Y-52550D01*
X88129Y-52550D01*
X88129Y-52175D01*
X88118Y-51967D01*
X88060Y-51827D01*
X88005Y-51812D01*
X88005Y-50514D01*
X88005Y-50262D01*
X87942Y-50200D01*
X87450Y-50200D01*
X87450Y-50652D01*
X87512Y-50715D01*
X87705Y-50715D01*
X87804Y-50714D01*
X87896Y-50676D01*
X87967Y-50606D01*
X88005Y-50514D01*
X88005Y-51812D01*
X87967Y-51802D01*
X87897Y-51873D01*
X87897Y-51732D01*
X87872Y-51639D01*
X87675Y-51570D01*
X87467Y-51581D01*
X87350Y-51630D01*
X87350Y-50652D01*
X87350Y-50200D01*
X86857Y-50200D01*
X86795Y-50262D01*
X86794Y-50514D01*
X86832Y-50606D01*
X86903Y-50676D01*
X86995Y-50714D01*
X87094Y-50715D01*
X87287Y-50715D01*
X87350Y-50652D01*
X87350Y-51630D01*
X87327Y-51639D01*
X87302Y-51732D01*
X87600Y-52029D01*
X87897Y-51732D01*
X87897Y-51873D01*
X87670Y-52100D01*
X87967Y-52397D01*
X88060Y-52372D01*
X88129Y-52175D01*
X88129Y-52550D01*
X87875Y-52550D01*
X87897Y-52467D01*
X87600Y-52170D01*
X87529Y-52241D01*
X87529Y-52100D01*
X87232Y-51802D01*
X87139Y-51827D01*
X87070Y-52024D01*
X87081Y-52232D01*
X87139Y-52372D01*
X87232Y-52397D01*
X87529Y-52100D01*
X87529Y-52241D01*
X87302Y-52467D01*
X87324Y-52550D01*
X85404Y-52550D01*
X85404Y-51725D01*
X85397Y-51407D01*
X85289Y-51145D01*
X85167Y-51087D01*
X85096Y-51158D01*
X85096Y-51016D01*
X85038Y-50895D01*
X84741Y-50779D01*
X84423Y-50786D01*
X84161Y-50895D01*
X84103Y-51016D01*
X84600Y-51513D01*
X85096Y-51016D01*
X85096Y-51158D01*
X84670Y-51584D01*
X85167Y-52081D01*
X85289Y-52023D01*
X85404Y-51725D01*
X85404Y-52550D01*
X85096Y-52550D01*
X85096Y-52151D01*
X84600Y-51654D01*
X84529Y-51725D01*
X84529Y-51584D01*
X84032Y-51087D01*
X83910Y-51145D01*
X83795Y-51442D01*
X83802Y-51761D01*
X83910Y-52023D01*
X84032Y-52081D01*
X84529Y-51584D01*
X84529Y-51725D01*
X84103Y-52151D01*
X84161Y-52273D01*
X84458Y-52388D01*
X84776Y-52381D01*
X85038Y-52273D01*
X85096Y-52151D01*
X85096Y-52550D01*
X82650Y-52550D01*
X82650Y-51020D01*
X83720Y-49950D01*
X86794Y-49950D01*
X86795Y-50037D01*
X86857Y-50100D01*
X87350Y-50100D01*
X87350Y-50092D01*
X87450Y-50092D01*
X87450Y-50100D01*
X87942Y-50100D01*
X88005Y-50037D01*
X88005Y-49950D01*
X88020Y-49950D01*
X88350Y-49620D01*
X88350Y-47520D01*
X89120Y-46750D01*
X89679Y-46750D01*
X90150Y-47220D01*
X90150Y-51879D01*
X90150Y-51879D01*
G37*
G54D25*
X90150Y-51879D02*
X89848Y-52181D01*
X89848Y-47457D01*
X89835Y-47279D01*
X89791Y-47174D01*
X89707Y-47159D01*
X89636Y-47230D01*
X89636Y-47088D01*
X89621Y-47004D01*
X89453Y-46947D01*
X89275Y-46960D01*
X89170Y-47004D01*
X89155Y-47088D01*
X89396Y-47329D01*
X89636Y-47088D01*
X89636Y-47230D01*
X89466Y-47400D01*
X89707Y-47640D01*
X89791Y-47625D01*
X89848Y-47457D01*
X89848Y-52181D01*
X89636Y-52392D01*
X89636Y-47711D01*
X89396Y-47470D01*
X89325Y-47541D01*
X89325Y-47400D01*
X89084Y-47159D01*
X89000Y-47174D01*
X88944Y-47342D01*
X88956Y-47520D01*
X89000Y-47625D01*
X89084Y-47640D01*
X89325Y-47400D01*
X89325Y-47541D01*
X89155Y-47711D01*
X89170Y-47795D01*
X89338Y-47852D01*
X89516Y-47839D01*
X89621Y-47795D01*
X89636Y-47711D01*
X89636Y-52392D01*
X89479Y-52550D01*
X88129Y-52550D01*
X88129Y-52175D01*
X88118Y-51967D01*
X88060Y-51827D01*
X88005Y-51812D01*
X88005Y-50514D01*
X88005Y-50262D01*
X87942Y-50200D01*
X87450Y-50200D01*
X87450Y-50652D01*
X87512Y-50715D01*
X87705Y-50715D01*
X87804Y-50714D01*
X87896Y-50676D01*
X87967Y-50606D01*
X88005Y-50514D01*
X88005Y-51812D01*
X87967Y-51802D01*
X87897Y-51873D01*
X87897Y-51732D01*
X87872Y-51639D01*
X87675Y-51570D01*
X87467Y-51581D01*
X87350Y-51630D01*
X87350Y-50652D01*
X87350Y-50200D01*
X86857Y-50200D01*
X86795Y-50262D01*
X86794Y-50514D01*
X86832Y-50606D01*
X86903Y-50676D01*
X86995Y-50714D01*
X87094Y-50715D01*
X87287Y-50715D01*
X87350Y-50652D01*
X87350Y-51630D01*
X87327Y-51639D01*
X87302Y-51732D01*
X87600Y-52029D01*
X87897Y-51732D01*
X87897Y-51873D01*
X87670Y-52100D01*
X87967Y-52397D01*
X88060Y-52372D01*
X88129Y-52175D01*
X88129Y-52550D01*
X87875Y-52550D01*
X87897Y-52467D01*
X87600Y-52170D01*
X87529Y-52241D01*
X87529Y-52100D01*
X87232Y-51802D01*
X87139Y-51827D01*
X87070Y-52024D01*
X87081Y-52232D01*
X87139Y-52372D01*
X87232Y-52397D01*
X87529Y-52100D01*
X87529Y-52241D01*
X87302Y-52467D01*
X87324Y-52550D01*
X85404Y-52550D01*
X85404Y-51725D01*
X85397Y-51407D01*
X85289Y-51145D01*
X85167Y-51087D01*
X85096Y-51158D01*
X85096Y-51016D01*
X85038Y-50895D01*
X84741Y-50779D01*
X84423Y-50786D01*
X84161Y-50895D01*
X84103Y-51016D01*
X84600Y-51513D01*
X85096Y-51016D01*
X85096Y-51158D01*
X84670Y-51584D01*
X85167Y-52081D01*
X85289Y-52023D01*
X85404Y-51725D01*
X85404Y-52550D01*
X85096Y-52550D01*
X85096Y-52151D01*
X84600Y-51654D01*
X84529Y-51725D01*
X84529Y-51584D01*
X84032Y-51087D01*
X83910Y-51145D01*
X83795Y-51442D01*
X83802Y-51761D01*
X83910Y-52023D01*
X84032Y-52081D01*
X84529Y-51584D01*
X84529Y-51725D01*
X84103Y-52151D01*
X84161Y-52273D01*
X84458Y-52388D01*
X84776Y-52381D01*
X85038Y-52273D01*
X85096Y-52151D01*
X85096Y-52550D01*
X82650Y-52550D01*
X82650Y-51020D01*
X83720Y-49950D01*
X86794Y-49950D01*
X86795Y-50037D01*
X86857Y-50100D01*
X87350Y-50100D01*
X87350Y-50092D01*
X87450Y-50092D01*
X87450Y-50100D01*
X87942Y-50100D01*
X88005Y-50037D01*
X88005Y-49950D01*
X88020Y-49950D01*
X88350Y-49620D01*
X88350Y-47520D01*
X89120Y-46750D01*
X89679Y-46750D01*
X90150Y-47220D01*
X90150Y-51879D01*
G54D10*
G36*
X94350Y-46679D02*
X94204Y-46824D01*
X94204Y-44993D01*
X94194Y-44755D01*
X94122Y-44582D01*
X94022Y-44548D01*
X93951Y-44619D01*
X93951Y-44477D01*
X93917Y-44377D01*
X93693Y-44295D01*
X93455Y-44305D01*
X93282Y-44377D01*
X93248Y-44477D01*
X93600Y-44829D01*
X93951Y-44477D01*
X93951Y-44619D01*
X93670Y-44900D01*
X94022Y-45251D01*
X94122Y-45217D01*
X94204Y-44993D01*
X94204Y-46824D01*
X93951Y-47077D01*
X93951Y-45322D01*
X93600Y-44970D01*
X93529Y-45041D01*
X93529Y-44900D01*
X93177Y-44548D01*
X93077Y-44582D01*
X92995Y-44806D01*
X93005Y-45044D01*
X93077Y-45217D01*
X93177Y-45251D01*
X93529Y-44900D01*
X93529Y-45041D01*
X93248Y-45322D01*
X93282Y-45422D01*
X93506Y-45504D01*
X93744Y-45494D01*
X93917Y-45422D01*
X93951Y-45322D01*
X93951Y-47077D01*
X93779Y-47250D01*
X91855Y-47250D01*
X91855Y-46590D01*
X91843Y-46413D01*
X91799Y-46308D01*
X91715Y-46293D01*
X91644Y-46364D01*
X91644Y-46222D01*
X91629Y-46138D01*
X91461Y-46081D01*
X91283Y-46094D01*
X91178Y-46138D01*
X91163Y-46222D01*
X91403Y-46463D01*
X91644Y-46222D01*
X91644Y-46364D01*
X91474Y-46533D01*
X91715Y-46774D01*
X91799Y-46759D01*
X91855Y-46590D01*
X91855Y-47250D01*
X91644Y-47250D01*
X91644Y-46844D01*
X91403Y-46604D01*
X91333Y-46675D01*
X91333Y-46533D01*
X91092Y-46293D01*
X91008Y-46308D01*
X90951Y-46476D01*
X90964Y-46654D01*
X91008Y-46759D01*
X91092Y-46774D01*
X91333Y-46533D01*
X91333Y-46675D01*
X91163Y-46844D01*
X91178Y-46929D01*
X91346Y-46985D01*
X91524Y-46973D01*
X91629Y-46929D01*
X91644Y-46844D01*
X91644Y-47250D01*
X90920Y-47250D01*
X89850Y-46179D01*
X89850Y-43400D01*
X89850Y-43350D01*
X94300Y-43350D01*
X94350Y-43350D01*
X94350Y-46679D01*
X94350Y-46679D01*
G37*
G54D25*
X94350Y-46679D02*
X94204Y-46824D01*
X94204Y-44993D01*
X94194Y-44755D01*
X94122Y-44582D01*
X94022Y-44548D01*
X93951Y-44619D01*
X93951Y-44477D01*
X93917Y-44377D01*
X93693Y-44295D01*
X93455Y-44305D01*
X93282Y-44377D01*
X93248Y-44477D01*
X93600Y-44829D01*
X93951Y-44477D01*
X93951Y-44619D01*
X93670Y-44900D01*
X94022Y-45251D01*
X94122Y-45217D01*
X94204Y-44993D01*
X94204Y-46824D01*
X93951Y-47077D01*
X93951Y-45322D01*
X93600Y-44970D01*
X93529Y-45041D01*
X93529Y-44900D01*
X93177Y-44548D01*
X93077Y-44582D01*
X92995Y-44806D01*
X93005Y-45044D01*
X93077Y-45217D01*
X93177Y-45251D01*
X93529Y-44900D01*
X93529Y-45041D01*
X93248Y-45322D01*
X93282Y-45422D01*
X93506Y-45504D01*
X93744Y-45494D01*
X93917Y-45422D01*
X93951Y-45322D01*
X93951Y-47077D01*
X93779Y-47250D01*
X91855Y-47250D01*
X91855Y-46590D01*
X91843Y-46413D01*
X91799Y-46308D01*
X91715Y-46293D01*
X91644Y-46364D01*
X91644Y-46222D01*
X91629Y-46138D01*
X91461Y-46081D01*
X91283Y-46094D01*
X91178Y-46138D01*
X91163Y-46222D01*
X91403Y-46463D01*
X91644Y-46222D01*
X91644Y-46364D01*
X91474Y-46533D01*
X91715Y-46774D01*
X91799Y-46759D01*
X91855Y-46590D01*
X91855Y-47250D01*
X91644Y-47250D01*
X91644Y-46844D01*
X91403Y-46604D01*
X91333Y-46675D01*
X91333Y-46533D01*
X91092Y-46293D01*
X91008Y-46308D01*
X90951Y-46476D01*
X90964Y-46654D01*
X91008Y-46759D01*
X91092Y-46774D01*
X91333Y-46533D01*
X91333Y-46675D01*
X91163Y-46844D01*
X91178Y-46929D01*
X91346Y-46985D01*
X91524Y-46973D01*
X91629Y-46929D01*
X91644Y-46844D01*
X91644Y-47250D01*
X90920Y-47250D01*
X89850Y-46179D01*
X89850Y-43400D01*
X89850Y-43350D01*
X94300Y-43350D01*
X94350Y-43350D01*
X94350Y-46679D01*
M02*
