M48
INCH,TZ
T1C0.020
T2C0.022
T3C0.032
T4C0.045
T5C0.047
T6C0.073
T7C0.094
T8C0.173
%
G90
G05
T2
X89396Y-47400
X91404Y-46534
T3
X72500Y-66800
X75500Y-66800
X87600Y-52100
X87600Y-55100
X88800Y-58900
X88800Y-61900
X90000Y-55900
X90000Y-58900
X98000Y-60500
X98000Y-63500
T4
X87600Y-44900
X93600Y-44900
T5
X91300Y-50200
X92300Y-50200
X93300Y-50200
X94300Y-50200
X95300Y-50200
X96300Y-50200
X97300Y-50200
T6
X63940Y-64831
X63940Y-66800
X64340Y-44331
X64340Y-46300
X66700Y-64831
X66700Y-66800
X67100Y-44331
X67100Y-46300
X82540Y-44231
X82540Y-46200
X82740Y-64931
X82740Y-66900
X85300Y-44231
X85300Y-46200
X85500Y-64931
X85500Y-66900
T7
X64600Y-51584
X64600Y-54350
X64600Y-56850
X64600Y-59616
X68100Y-49250
X68100Y-61950
X74600Y-49250
X74600Y-61950
X81100Y-49250
X81100Y-61950
X84600Y-51584
X84600Y-55600
X84600Y-59616
T8
X61183Y-45757
X61183Y-65443
X96617Y-45757
X96617Y-65443
T1
X89039Y-64456G85X89339Y-64456
G05
X89039Y-66700G85X89339Y-66700
G05
X90850Y-64456G85X91150Y-64456
G05
X90850Y-66700G85X91150Y-66700
G05
X92661Y-64456G85X92961Y-64456
G05
X92661Y-66700G85X92961Y-66700
G05
T0
M30
