G04 (created by PCBNEW (2013-07-07 BZR 4022)-stable) date 3/25/2016 4:56:48 AM*
%MOIN*%
G04 Gerber Fmt 3.4, Leading zero omitted, Abs format*
%FSLAX34Y34*%
G01*
G70*
G90*
G04 APERTURE LIST*
%ADD10C,0.00590551*%
%ADD11C,0.0944882*%
%ADD12C,0.110236*%
%ADD13C,0.0393701*%
%ADD14R,0.055X0.055*%
%ADD15R,0.0394X0.0354*%
%ADD16R,0.063X0.071*%
%ADD17R,0.071X0.063*%
%ADD18R,0.02X0.045*%
%ADD19R,0.0354X0.0394*%
%ADD20C,0.177165*%
%ADD21O,0.0598425X0.03*%
%ADD22C,0.055*%
%ADD23C,0.07*%
G04 APERTURE END LIST*
G54D10*
G54D11*
X85300Y-46200D03*
X85300Y-44231D03*
X82540Y-44231D03*
X82540Y-46200D03*
X85500Y-66900D03*
X85500Y-64931D03*
X82740Y-64931D03*
X82740Y-66900D03*
X67100Y-46300D03*
X67100Y-44331D03*
X64340Y-44331D03*
X64340Y-46300D03*
X66700Y-66800D03*
X66700Y-64831D03*
X63940Y-64831D03*
X63940Y-66800D03*
G54D12*
X84600Y-59615D03*
X84600Y-55600D03*
X84600Y-51584D03*
X64600Y-59615D03*
X64600Y-56850D03*
X64600Y-54350D03*
X64600Y-51584D03*
X68100Y-61950D03*
X74600Y-61950D03*
X81100Y-61950D03*
X68100Y-49249D03*
X74600Y-49249D03*
X81100Y-49249D03*
G54D13*
X89396Y-47400D03*
X91403Y-46533D03*
G54D14*
X91300Y-50200D03*
X92300Y-50200D03*
X96300Y-50200D03*
G54D15*
X91300Y-51904D03*
X91300Y-52496D03*
X92300Y-51904D03*
X92300Y-52496D03*
G54D16*
X68650Y-65000D03*
X69750Y-65000D03*
X69250Y-46400D03*
X70350Y-46400D03*
G54D17*
X87400Y-49050D03*
X87400Y-50150D03*
G54D16*
X78050Y-65100D03*
X79150Y-65100D03*
G54D15*
X61200Y-55504D03*
X61200Y-56096D03*
X60400Y-55504D03*
X60400Y-56096D03*
G54D18*
X96350Y-56600D03*
X95850Y-56600D03*
X95350Y-56600D03*
X94850Y-56600D03*
X94350Y-56600D03*
X93850Y-56600D03*
X93350Y-56600D03*
X92850Y-56600D03*
X92850Y-60600D03*
X93350Y-60600D03*
X93850Y-60600D03*
X94350Y-60600D03*
X94850Y-60600D03*
X95350Y-60600D03*
X95850Y-60600D03*
X96350Y-60600D03*
G54D14*
X93300Y-50200D03*
X97300Y-50200D03*
X95300Y-50200D03*
G54D15*
X97200Y-58204D03*
X97200Y-58796D03*
G54D19*
X98704Y-49300D03*
X99296Y-49300D03*
X95604Y-48600D03*
X96196Y-48600D03*
X97796Y-48000D03*
X97204Y-48000D03*
X94304Y-54000D03*
X94896Y-54000D03*
X98704Y-50200D03*
X99296Y-50200D03*
X95404Y-62000D03*
X95996Y-62000D03*
X95804Y-55700D03*
X96396Y-55700D03*
G54D15*
X92000Y-59296D03*
X92000Y-58704D03*
G54D19*
X92896Y-61600D03*
X92304Y-61600D03*
X94196Y-61600D03*
X93604Y-61600D03*
G54D15*
X91300Y-60904D03*
X91300Y-61496D03*
X91300Y-59304D03*
X91300Y-59896D03*
G54D19*
X93204Y-55600D03*
X93796Y-55600D03*
G54D15*
X92000Y-57404D03*
X92000Y-57996D03*
G54D20*
X96616Y-65442D03*
X96616Y-45757D03*
X61183Y-45757D03*
X61183Y-65442D03*
G54D21*
X89188Y-64455D03*
X91000Y-64455D03*
X92811Y-64455D03*
X89188Y-66700D03*
X91000Y-66700D03*
X92811Y-66700D03*
G54D22*
X87600Y-52100D03*
X87600Y-55100D03*
X88800Y-61900D03*
X88800Y-58900D03*
X90000Y-58900D03*
X90000Y-55900D03*
X72500Y-66800D03*
X75500Y-66800D03*
X98000Y-60500D03*
X98000Y-63500D03*
G54D23*
X93600Y-44900D03*
X87600Y-44900D03*
G54D14*
X94300Y-50200D03*
M02*
