G04 (created by PCBNEW (2013-07-07 BZR 4022)-stable) date 6/16/2014 1:11:51 AM*
%MOIN*%
G04 Gerber Fmt 3.4, Leading zero omitted, Abs format*
%FSLAX34Y34*%
G01*
G70*
G90*
G04 APERTURE LIST*
%ADD10C,0.00590551*%
%ADD11C,0.0472441*%
%ADD12C,0.0551181*%
%ADD13R,0.055X0.055*%
%ADD14R,0.059X0.0512*%
%ADD15R,0.0512X0.059*%
%ADD16R,0.0354X0.0394*%
%ADD17R,0.110236X0.0433071*%
%ADD18C,0.177165*%
%ADD19C,0.06*%
%ADD20C,0.02*%
%ADD21C,0.01*%
G04 APERTURE END LIST*
G54D10*
G54D11*
X50000Y-19500D03*
X50000Y-20287D03*
X50000Y-21074D03*
X50000Y-21862D03*
X50000Y-22649D03*
X50000Y-18712D03*
X50000Y-17925D03*
X50000Y-17137D03*
X50000Y-16350D03*
G54D12*
X25000Y-16350D03*
X25000Y-17137D03*
X25000Y-17925D03*
X25000Y-18712D03*
X25000Y-19500D03*
X25000Y-20287D03*
X25000Y-21074D03*
X25000Y-21862D03*
X25000Y-22649D03*
G54D13*
X70900Y-15600D03*
X71900Y-15600D03*
X66700Y-18100D03*
X62300Y-14600D03*
X65700Y-18100D03*
X63300Y-14600D03*
X60500Y-18500D03*
X59500Y-18500D03*
G54D14*
X63300Y-20125D03*
X63300Y-20875D03*
G54D15*
X34175Y-26000D03*
X33425Y-26000D03*
G54D14*
X52200Y-21925D03*
X52200Y-22675D03*
G54D15*
X42775Y-26000D03*
X42025Y-26000D03*
G54D14*
X65700Y-20125D03*
X65700Y-20875D03*
X70900Y-20125D03*
X70900Y-20875D03*
G54D16*
X37704Y-29800D03*
X38296Y-29800D03*
X43796Y-30000D03*
X43204Y-30000D03*
G54D17*
X60500Y-22389D03*
X60500Y-23610D03*
X63000Y-22389D03*
X63000Y-23610D03*
X65500Y-22389D03*
X65500Y-23610D03*
X70500Y-22389D03*
X70500Y-23610D03*
X68000Y-23610D03*
X68000Y-22389D03*
X73000Y-23610D03*
X73000Y-22389D03*
G54D14*
X60500Y-20125D03*
X60500Y-20875D03*
G54D18*
X72433Y-29437D03*
X54716Y-15657D03*
X19283Y-15657D03*
X19283Y-29437D03*
G54D19*
X45300Y-21100D03*
X46300Y-22100D03*
X45300Y-23100D03*
G54D13*
X52500Y-28500D03*
X52500Y-27500D03*
X48000Y-29600D03*
X48000Y-28600D03*
X37000Y-28500D03*
X43000Y-28500D03*
X42000Y-28500D03*
X44000Y-28500D03*
X38000Y-28500D03*
X41000Y-28500D03*
X40000Y-28500D03*
X39000Y-28500D03*
X36000Y-28500D03*
X35000Y-28500D03*
G54D20*
X52200Y-22675D02*
X50025Y-22675D01*
X50025Y-22675D02*
X50000Y-22649D01*
X43000Y-29000D02*
X43200Y-29200D01*
X43200Y-29996D02*
X43204Y-30000D01*
X43200Y-29200D02*
X43200Y-29996D01*
X38296Y-29800D02*
X42200Y-29800D01*
X43000Y-29000D02*
X43000Y-28500D01*
X42200Y-29800D02*
X43000Y-29000D01*
X44200Y-27500D02*
X45300Y-28600D01*
X45300Y-28600D02*
X48000Y-28600D01*
X44200Y-27500D02*
X52500Y-27500D01*
X50000Y-22649D02*
X48825Y-22649D01*
X44700Y-26775D02*
X44700Y-26800D01*
X48825Y-22649D02*
X44700Y-26775D01*
X43000Y-28500D02*
X43000Y-28000D01*
X44700Y-23700D02*
X45300Y-23100D01*
X44700Y-27000D02*
X44700Y-26800D01*
X44700Y-26800D02*
X44700Y-23700D01*
X44200Y-27500D02*
X44700Y-27000D01*
X43500Y-27500D02*
X44200Y-27500D01*
X43000Y-28000D02*
X43500Y-27500D01*
X33425Y-26000D02*
X30400Y-26000D01*
X26262Y-21862D02*
X25000Y-21862D01*
X30400Y-26000D02*
X26262Y-21862D01*
X63300Y-20875D02*
X63300Y-22089D01*
X63300Y-22089D02*
X63000Y-22389D01*
X60500Y-18500D02*
X60500Y-20125D01*
X63300Y-14600D02*
X63300Y-20125D01*
X65700Y-18100D02*
X65700Y-20125D01*
X65700Y-21600D02*
X67210Y-21600D01*
X67210Y-21600D02*
X68000Y-22389D01*
X65700Y-20875D02*
X65700Y-21600D01*
X65700Y-21600D02*
X65700Y-22189D01*
X65700Y-22189D02*
X65500Y-22389D01*
X59000Y-23000D02*
X59000Y-19000D01*
X59610Y-23610D02*
X59000Y-23000D01*
X60500Y-23610D02*
X59610Y-23610D01*
X59000Y-19000D02*
X59500Y-18500D01*
X63000Y-23610D02*
X62110Y-23610D01*
X61900Y-15000D02*
X62300Y-14600D01*
X61900Y-23400D02*
X61900Y-15000D01*
X62110Y-23610D02*
X61900Y-23400D01*
X68000Y-23610D02*
X68989Y-23610D01*
X66700Y-18800D02*
X66700Y-18100D01*
X69200Y-21300D02*
X66700Y-18800D01*
X69200Y-23400D02*
X69200Y-21300D01*
X68989Y-23610D02*
X69200Y-23400D01*
X65500Y-23610D02*
X68000Y-23610D01*
X36000Y-27200D02*
X35800Y-27200D01*
X36000Y-28500D02*
X36000Y-27200D01*
X34600Y-26000D02*
X34175Y-26000D01*
X35800Y-27200D02*
X34600Y-26000D01*
X50000Y-17925D02*
X43274Y-17925D01*
X38000Y-23200D02*
X38000Y-28500D01*
X43274Y-17925D02*
X38000Y-23200D01*
X41000Y-26000D02*
X42025Y-26000D01*
X41000Y-28500D02*
X41000Y-26000D01*
X41000Y-26000D02*
X41000Y-22800D01*
X43512Y-20287D02*
X50000Y-20287D01*
X41000Y-22800D02*
X43512Y-20287D01*
X70900Y-21989D02*
X72600Y-21989D01*
X72600Y-21989D02*
X73000Y-22389D01*
X70900Y-20875D02*
X70900Y-21989D01*
X70900Y-21989D02*
X70500Y-22389D01*
X35000Y-28500D02*
X30850Y-28500D01*
X30850Y-28500D02*
X25000Y-22649D01*
X70900Y-15600D02*
X70900Y-20125D01*
X70500Y-23610D02*
X73000Y-23610D01*
X73000Y-23610D02*
X73010Y-23600D01*
X73010Y-23600D02*
X74000Y-23600D01*
X74000Y-23600D02*
X74300Y-23300D01*
X74300Y-23300D02*
X74300Y-20600D01*
X74300Y-20600D02*
X71900Y-18200D01*
X71900Y-18200D02*
X71900Y-15600D01*
X44000Y-28500D02*
X45100Y-29600D01*
X45100Y-29600D02*
X48000Y-29600D01*
X43796Y-30000D02*
X43800Y-30000D01*
X44000Y-29800D02*
X44000Y-28500D01*
X43800Y-30000D02*
X44000Y-29800D01*
X50000Y-21074D02*
X47325Y-21074D01*
X47325Y-21074D02*
X46300Y-22100D01*
X39000Y-28500D02*
X39000Y-23000D01*
X43287Y-18712D02*
X50000Y-18712D01*
X39000Y-23000D02*
X43287Y-18712D01*
X40000Y-28500D02*
X40000Y-22700D01*
X43200Y-19500D02*
X50000Y-19500D01*
X40000Y-22700D02*
X43200Y-19500D01*
X37000Y-28500D02*
X37000Y-29400D01*
X37400Y-29800D02*
X37704Y-29800D01*
X37000Y-29400D02*
X37400Y-29800D01*
X37704Y-29800D02*
X37700Y-29804D01*
X50300Y-30700D02*
X52500Y-28500D01*
X38200Y-30700D02*
X50300Y-30700D01*
X37700Y-30200D02*
X38200Y-30700D01*
X37700Y-29804D02*
X37700Y-30200D01*
X37000Y-28500D02*
X37000Y-27000D01*
X25025Y-21100D02*
X25000Y-21074D01*
X31100Y-21100D02*
X25025Y-21100D01*
X37000Y-27000D02*
X31100Y-21100D01*
X60500Y-20875D02*
X60500Y-22389D01*
X50000Y-21862D02*
X52137Y-21862D01*
X52137Y-21862D02*
X52200Y-21925D01*
X50000Y-21862D02*
X48037Y-21862D01*
X47100Y-22800D02*
X47800Y-22100D01*
X46000Y-22800D02*
X47100Y-22800D01*
X46000Y-22800D02*
X44800Y-21600D01*
X48037Y-21862D02*
X47800Y-22100D01*
X42775Y-27200D02*
X42900Y-27200D01*
X43800Y-22600D02*
X44800Y-21600D01*
X44800Y-21600D02*
X45300Y-21100D01*
X43800Y-26300D02*
X43800Y-22600D01*
X42900Y-27200D02*
X43800Y-26300D01*
X42000Y-28500D02*
X42000Y-28000D01*
X42775Y-27225D02*
X42775Y-27200D01*
X42775Y-27200D02*
X42775Y-26000D01*
X42000Y-28000D02*
X42775Y-27225D01*
G54D10*
G36*
X35650Y-27985D02*
X35583Y-28012D01*
X35513Y-28083D01*
X35500Y-28114D01*
X35487Y-28083D01*
X35416Y-28013D01*
X35324Y-27975D01*
X35225Y-27974D01*
X34675Y-27974D01*
X34583Y-28012D01*
X34513Y-28083D01*
X34485Y-28150D01*
X30995Y-28150D01*
X25525Y-22680D01*
X25525Y-22545D01*
X25445Y-22352D01*
X25349Y-22255D01*
X25393Y-22212D01*
X26117Y-22212D01*
X30152Y-26247D01*
X30266Y-26323D01*
X30400Y-26350D01*
X32921Y-26350D01*
X32956Y-26436D01*
X33027Y-26506D01*
X33119Y-26544D01*
X33218Y-26545D01*
X33730Y-26545D01*
X33800Y-26516D01*
X33869Y-26544D01*
X33968Y-26545D01*
X34480Y-26545D01*
X34572Y-26507D01*
X34592Y-26487D01*
X35552Y-27447D01*
X35552Y-27447D01*
X35650Y-27512D01*
X35650Y-27985D01*
X35650Y-27985D01*
G37*
G54D21*
X35650Y-27985D02*
X35583Y-28012D01*
X35513Y-28083D01*
X35500Y-28114D01*
X35487Y-28083D01*
X35416Y-28013D01*
X35324Y-27975D01*
X35225Y-27974D01*
X34675Y-27974D01*
X34583Y-28012D01*
X34513Y-28083D01*
X34485Y-28150D01*
X30995Y-28150D01*
X25525Y-22680D01*
X25525Y-22545D01*
X25445Y-22352D01*
X25349Y-22255D01*
X25393Y-22212D01*
X26117Y-22212D01*
X30152Y-26247D01*
X30266Y-26323D01*
X30400Y-26350D01*
X32921Y-26350D01*
X32956Y-26436D01*
X33027Y-26506D01*
X33119Y-26544D01*
X33218Y-26545D01*
X33730Y-26545D01*
X33800Y-26516D01*
X33869Y-26544D01*
X33968Y-26545D01*
X34480Y-26545D01*
X34572Y-26507D01*
X34592Y-26487D01*
X35552Y-27447D01*
X35552Y-27447D01*
X35650Y-27512D01*
X35650Y-27985D01*
G54D10*
G36*
X36650Y-27985D02*
X36583Y-28012D01*
X36513Y-28083D01*
X36500Y-28114D01*
X36487Y-28083D01*
X36416Y-28013D01*
X36350Y-27985D01*
X36350Y-27200D01*
X36323Y-27066D01*
X36247Y-26952D01*
X36133Y-26876D01*
X36000Y-26850D01*
X35944Y-26850D01*
X34847Y-25752D01*
X34733Y-25676D01*
X34681Y-25666D01*
X34681Y-25655D01*
X34643Y-25563D01*
X34572Y-25493D01*
X34480Y-25455D01*
X34381Y-25454D01*
X33869Y-25454D01*
X33799Y-25483D01*
X33730Y-25455D01*
X33631Y-25454D01*
X33119Y-25454D01*
X33027Y-25492D01*
X32957Y-25563D01*
X32921Y-25650D01*
X30544Y-25650D01*
X26509Y-21614D01*
X26396Y-21538D01*
X26262Y-21512D01*
X25393Y-21512D01*
X25349Y-21468D01*
X25368Y-21450D01*
X30955Y-21450D01*
X36650Y-27144D01*
X36650Y-27985D01*
X36650Y-27985D01*
G37*
G54D21*
X36650Y-27985D02*
X36583Y-28012D01*
X36513Y-28083D01*
X36500Y-28114D01*
X36487Y-28083D01*
X36416Y-28013D01*
X36350Y-27985D01*
X36350Y-27200D01*
X36323Y-27066D01*
X36247Y-26952D01*
X36133Y-26876D01*
X36000Y-26850D01*
X35944Y-26850D01*
X34847Y-25752D01*
X34733Y-25676D01*
X34681Y-25666D01*
X34681Y-25655D01*
X34643Y-25563D01*
X34572Y-25493D01*
X34480Y-25455D01*
X34381Y-25454D01*
X33869Y-25454D01*
X33799Y-25483D01*
X33730Y-25455D01*
X33631Y-25454D01*
X33119Y-25454D01*
X33027Y-25492D01*
X32957Y-25563D01*
X32921Y-25650D01*
X30544Y-25650D01*
X26509Y-21614D01*
X26396Y-21538D01*
X26262Y-21512D01*
X25393Y-21512D01*
X25349Y-21468D01*
X25368Y-21450D01*
X30955Y-21450D01*
X36650Y-27144D01*
X36650Y-27985D01*
G54D10*
G36*
X38650Y-27985D02*
X38583Y-28012D01*
X38513Y-28083D01*
X38500Y-28114D01*
X38487Y-28083D01*
X38416Y-28013D01*
X38350Y-27985D01*
X38350Y-23344D01*
X38650Y-23044D01*
X38650Y-27985D01*
X38650Y-27985D01*
G37*
G54D21*
X38650Y-27985D02*
X38583Y-28012D01*
X38513Y-28083D01*
X38500Y-28114D01*
X38487Y-28083D01*
X38416Y-28013D01*
X38350Y-27985D01*
X38350Y-23344D01*
X38650Y-23044D01*
X38650Y-27985D01*
G54D10*
G36*
X39650Y-27985D02*
X39583Y-28012D01*
X39513Y-28083D01*
X39500Y-28114D01*
X39487Y-28083D01*
X39416Y-28013D01*
X39350Y-27985D01*
X39350Y-23144D01*
X39650Y-22844D01*
X39650Y-27985D01*
X39650Y-27985D01*
G37*
G54D21*
X39650Y-27985D02*
X39583Y-28012D01*
X39513Y-28083D01*
X39500Y-28114D01*
X39487Y-28083D01*
X39416Y-28013D01*
X39350Y-27985D01*
X39350Y-23144D01*
X39650Y-22844D01*
X39650Y-27985D01*
G54D10*
G36*
X42425Y-27080D02*
X41752Y-27752D01*
X41676Y-27866D01*
X41653Y-27984D01*
X41583Y-28012D01*
X41513Y-28083D01*
X41500Y-28114D01*
X41487Y-28083D01*
X41416Y-28013D01*
X41350Y-27985D01*
X41350Y-26350D01*
X41521Y-26350D01*
X41556Y-26436D01*
X41627Y-26506D01*
X41719Y-26544D01*
X41818Y-26545D01*
X42330Y-26545D01*
X42400Y-26516D01*
X42425Y-26526D01*
X42425Y-27080D01*
X42425Y-27080D01*
G37*
G54D21*
X42425Y-27080D02*
X41752Y-27752D01*
X41676Y-27866D01*
X41653Y-27984D01*
X41583Y-28012D01*
X41513Y-28083D01*
X41500Y-28114D01*
X41487Y-28083D01*
X41416Y-28013D01*
X41350Y-27985D01*
X41350Y-26350D01*
X41521Y-26350D01*
X41556Y-26436D01*
X41627Y-26506D01*
X41719Y-26544D01*
X41818Y-26545D01*
X42330Y-26545D01*
X42400Y-26516D01*
X42425Y-26526D01*
X42425Y-27080D01*
G54D10*
G36*
X42550Y-28954D02*
X42055Y-29450D01*
X38673Y-29450D01*
X38614Y-29391D01*
X38522Y-29353D01*
X38423Y-29352D01*
X38069Y-29352D01*
X37999Y-29381D01*
X37930Y-29353D01*
X37831Y-29352D01*
X37477Y-29352D01*
X37456Y-29361D01*
X37350Y-29255D01*
X37350Y-29014D01*
X37416Y-28987D01*
X37486Y-28916D01*
X37499Y-28885D01*
X37512Y-28916D01*
X37583Y-28986D01*
X37675Y-29024D01*
X37774Y-29025D01*
X38324Y-29025D01*
X38416Y-28987D01*
X38486Y-28916D01*
X38499Y-28885D01*
X38512Y-28916D01*
X38583Y-28986D01*
X38675Y-29024D01*
X38774Y-29025D01*
X39324Y-29025D01*
X39416Y-28987D01*
X39486Y-28916D01*
X39499Y-28885D01*
X39512Y-28916D01*
X39583Y-28986D01*
X39675Y-29024D01*
X39774Y-29025D01*
X40324Y-29025D01*
X40416Y-28987D01*
X40486Y-28916D01*
X40499Y-28885D01*
X40512Y-28916D01*
X40583Y-28986D01*
X40675Y-29024D01*
X40774Y-29025D01*
X41324Y-29025D01*
X41416Y-28987D01*
X41486Y-28916D01*
X41499Y-28885D01*
X41512Y-28916D01*
X41583Y-28986D01*
X41675Y-29024D01*
X41774Y-29025D01*
X42324Y-29025D01*
X42416Y-28987D01*
X42486Y-28916D01*
X42499Y-28885D01*
X42512Y-28916D01*
X42550Y-28954D01*
X42550Y-28954D01*
G37*
G54D21*
X42550Y-28954D02*
X42055Y-29450D01*
X38673Y-29450D01*
X38614Y-29391D01*
X38522Y-29353D01*
X38423Y-29352D01*
X38069Y-29352D01*
X37999Y-29381D01*
X37930Y-29353D01*
X37831Y-29352D01*
X37477Y-29352D01*
X37456Y-29361D01*
X37350Y-29255D01*
X37350Y-29014D01*
X37416Y-28987D01*
X37486Y-28916D01*
X37499Y-28885D01*
X37512Y-28916D01*
X37583Y-28986D01*
X37675Y-29024D01*
X37774Y-29025D01*
X38324Y-29025D01*
X38416Y-28987D01*
X38486Y-28916D01*
X38499Y-28885D01*
X38512Y-28916D01*
X38583Y-28986D01*
X38675Y-29024D01*
X38774Y-29025D01*
X39324Y-29025D01*
X39416Y-28987D01*
X39486Y-28916D01*
X39499Y-28885D01*
X39512Y-28916D01*
X39583Y-28986D01*
X39675Y-29024D01*
X39774Y-29025D01*
X40324Y-29025D01*
X40416Y-28987D01*
X40486Y-28916D01*
X40499Y-28885D01*
X40512Y-28916D01*
X40583Y-28986D01*
X40675Y-29024D01*
X40774Y-29025D01*
X41324Y-29025D01*
X41416Y-28987D01*
X41486Y-28916D01*
X41499Y-28885D01*
X41512Y-28916D01*
X41583Y-28986D01*
X41675Y-29024D01*
X41774Y-29025D01*
X42324Y-29025D01*
X42416Y-28987D01*
X42486Y-28916D01*
X42499Y-28885D01*
X42512Y-28916D01*
X42550Y-28954D01*
G54D10*
G36*
X42826Y-30350D02*
X38344Y-30350D01*
X38242Y-30247D01*
X38522Y-30247D01*
X38614Y-30209D01*
X38673Y-30150D01*
X42200Y-30150D01*
X42333Y-30123D01*
X42333Y-30123D01*
X42447Y-30047D01*
X42801Y-29692D01*
X42777Y-29753D01*
X42776Y-29852D01*
X42776Y-30246D01*
X42814Y-30338D01*
X42826Y-30350D01*
X42826Y-30350D01*
G37*
G54D21*
X42826Y-30350D02*
X38344Y-30350D01*
X38242Y-30247D01*
X38522Y-30247D01*
X38614Y-30209D01*
X38673Y-30150D01*
X42200Y-30150D01*
X42333Y-30123D01*
X42333Y-30123D01*
X42447Y-30047D01*
X42801Y-29692D01*
X42777Y-29753D01*
X42776Y-29852D01*
X42776Y-30246D01*
X42814Y-30338D01*
X42826Y-30350D01*
G54D10*
G36*
X42968Y-27536D02*
X42752Y-27752D01*
X42676Y-27866D01*
X42653Y-27984D01*
X42583Y-28012D01*
X42513Y-28083D01*
X42500Y-28114D01*
X42487Y-28083D01*
X42449Y-28045D01*
X42956Y-27538D01*
X42968Y-27536D01*
X42968Y-27536D01*
G37*
G54D21*
X42968Y-27536D02*
X42752Y-27752D01*
X42676Y-27866D01*
X42653Y-27984D01*
X42583Y-28012D01*
X42513Y-28083D01*
X42500Y-28114D01*
X42487Y-28083D01*
X42449Y-28045D01*
X42956Y-27538D01*
X42968Y-27536D01*
G54D10*
G36*
X43650Y-29552D02*
X43569Y-29552D01*
X43550Y-29561D01*
X43550Y-29200D01*
X43523Y-29066D01*
X43448Y-28954D01*
X43486Y-28916D01*
X43499Y-28885D01*
X43512Y-28916D01*
X43583Y-28986D01*
X43650Y-29014D01*
X43650Y-29552D01*
X43650Y-29552D01*
G37*
G54D21*
X43650Y-29552D02*
X43569Y-29552D01*
X43550Y-29561D01*
X43550Y-29200D01*
X43523Y-29066D01*
X43448Y-28954D01*
X43486Y-28916D01*
X43499Y-28885D01*
X43512Y-28916D01*
X43583Y-28986D01*
X43650Y-29014D01*
X43650Y-29552D01*
G54D10*
G36*
X44179Y-27974D02*
X43675Y-27974D01*
X43583Y-28012D01*
X43513Y-28083D01*
X43500Y-28114D01*
X43487Y-28083D01*
X43449Y-28045D01*
X43644Y-27850D01*
X44055Y-27850D01*
X44179Y-27974D01*
X44179Y-27974D01*
G37*
G54D21*
X44179Y-27974D02*
X43675Y-27974D01*
X43583Y-28012D01*
X43513Y-28083D01*
X43500Y-28114D01*
X43487Y-28083D01*
X43449Y-28045D01*
X43644Y-27850D01*
X44055Y-27850D01*
X44179Y-27974D01*
G54D10*
G36*
X44984Y-20637D02*
X44834Y-20788D01*
X44750Y-20990D01*
X44749Y-21155D01*
X44552Y-21352D01*
X43552Y-22352D01*
X43476Y-22466D01*
X43450Y-22600D01*
X43450Y-26155D01*
X43280Y-26324D01*
X43281Y-26245D01*
X43281Y-25655D01*
X43243Y-25563D01*
X43172Y-25493D01*
X43080Y-25455D01*
X42981Y-25454D01*
X42469Y-25454D01*
X42399Y-25483D01*
X42330Y-25455D01*
X42231Y-25454D01*
X41719Y-25454D01*
X41627Y-25492D01*
X41557Y-25563D01*
X41521Y-25650D01*
X41350Y-25650D01*
X41350Y-22944D01*
X43657Y-20637D01*
X44984Y-20637D01*
X44984Y-20637D01*
G37*
G54D21*
X44984Y-20637D02*
X44834Y-20788D01*
X44750Y-20990D01*
X44749Y-21155D01*
X44552Y-21352D01*
X43552Y-22352D01*
X43476Y-22466D01*
X43450Y-22600D01*
X43450Y-26155D01*
X43280Y-26324D01*
X43281Y-26245D01*
X43281Y-25655D01*
X43243Y-25563D01*
X43172Y-25493D01*
X43080Y-25455D01*
X42981Y-25454D01*
X42469Y-25454D01*
X42399Y-25483D01*
X42330Y-25455D01*
X42231Y-25454D01*
X41719Y-25454D01*
X41627Y-25492D01*
X41557Y-25563D01*
X41521Y-25650D01*
X41350Y-25650D01*
X41350Y-22944D01*
X43657Y-20637D01*
X44984Y-20637D01*
G54D10*
G36*
X45254Y-22549D02*
X45191Y-22549D01*
X44988Y-22633D01*
X44834Y-22788D01*
X44750Y-22990D01*
X44749Y-23155D01*
X44452Y-23452D01*
X44376Y-23566D01*
X44350Y-23700D01*
X44350Y-26775D01*
X44350Y-26800D01*
X44350Y-26855D01*
X44055Y-27150D01*
X43500Y-27150D01*
X43431Y-27163D01*
X44047Y-26547D01*
X44123Y-26433D01*
X44123Y-26433D01*
X44150Y-26300D01*
X44150Y-22744D01*
X44800Y-22094D01*
X45254Y-22549D01*
X45254Y-22549D01*
G37*
G54D21*
X45254Y-22549D02*
X45191Y-22549D01*
X44988Y-22633D01*
X44834Y-22788D01*
X44750Y-22990D01*
X44749Y-23155D01*
X44452Y-23452D01*
X44376Y-23566D01*
X44350Y-23700D01*
X44350Y-26775D01*
X44350Y-26800D01*
X44350Y-26855D01*
X44055Y-27150D01*
X43500Y-27150D01*
X43431Y-27163D01*
X44047Y-26547D01*
X44123Y-26433D01*
X44123Y-26433D01*
X44150Y-26300D01*
X44150Y-22744D01*
X44800Y-22094D01*
X45254Y-22549D01*
G54D10*
G36*
X47614Y-29099D02*
X47583Y-29112D01*
X47513Y-29183D01*
X47485Y-29250D01*
X45244Y-29250D01*
X44525Y-28530D01*
X44525Y-28320D01*
X45052Y-28847D01*
X45052Y-28847D01*
X45166Y-28923D01*
X45300Y-28950D01*
X47485Y-28950D01*
X47512Y-29016D01*
X47583Y-29086D01*
X47614Y-29099D01*
X47614Y-29099D01*
G37*
G54D21*
X47614Y-29099D02*
X47583Y-29112D01*
X47513Y-29183D01*
X47485Y-29250D01*
X45244Y-29250D01*
X44525Y-28530D01*
X44525Y-28320D01*
X45052Y-28847D01*
X45052Y-28847D01*
X45166Y-28923D01*
X45300Y-28950D01*
X47485Y-28950D01*
X47512Y-29016D01*
X47583Y-29086D01*
X47614Y-29099D01*
G54D10*
G36*
X49706Y-18318D02*
X49662Y-18362D01*
X43332Y-18362D01*
X43419Y-18275D01*
X49662Y-18275D01*
X49706Y-18318D01*
X49706Y-18318D01*
G37*
G54D21*
X49706Y-18318D02*
X49662Y-18362D01*
X43332Y-18362D01*
X43419Y-18275D01*
X49662Y-18275D01*
X49706Y-18318D01*
G54D10*
G36*
X49706Y-19106D02*
X49662Y-19150D01*
X43344Y-19150D01*
X43432Y-19062D01*
X49662Y-19062D01*
X49706Y-19106D01*
X49706Y-19106D01*
G37*
G54D21*
X49706Y-19106D02*
X49662Y-19150D01*
X43344Y-19150D01*
X43432Y-19062D01*
X49662Y-19062D01*
X49706Y-19106D01*
G54D10*
G36*
X49706Y-19893D02*
X49662Y-19937D01*
X43512Y-19937D01*
X43378Y-19964D01*
X43265Y-20039D01*
X43265Y-20039D01*
X43265Y-20039D01*
X40752Y-22552D01*
X40676Y-22666D01*
X40650Y-22800D01*
X40650Y-26000D01*
X40650Y-27985D01*
X40583Y-28012D01*
X40513Y-28083D01*
X40500Y-28114D01*
X40487Y-28083D01*
X40416Y-28013D01*
X40350Y-27985D01*
X40350Y-22844D01*
X43344Y-19850D01*
X49662Y-19850D01*
X49706Y-19893D01*
X49706Y-19893D01*
G37*
G54D21*
X49706Y-19893D02*
X49662Y-19937D01*
X43512Y-19937D01*
X43378Y-19964D01*
X43265Y-20039D01*
X43265Y-20039D01*
X43265Y-20039D01*
X40752Y-22552D01*
X40676Y-22666D01*
X40650Y-22800D01*
X40650Y-26000D01*
X40650Y-27985D01*
X40583Y-28012D01*
X40513Y-28083D01*
X40500Y-28114D01*
X40487Y-28083D01*
X40416Y-28013D01*
X40350Y-27985D01*
X40350Y-22844D01*
X43344Y-19850D01*
X49662Y-19850D01*
X49706Y-19893D01*
G54D10*
G36*
X49706Y-20681D02*
X49662Y-20724D01*
X47325Y-20724D01*
X47191Y-20751D01*
X47077Y-20827D01*
X46354Y-21550D01*
X46191Y-21549D01*
X45988Y-21633D01*
X45834Y-21788D01*
X45750Y-21990D01*
X45750Y-22055D01*
X45345Y-21650D01*
X45408Y-21650D01*
X45611Y-21566D01*
X45765Y-21411D01*
X45849Y-21209D01*
X45850Y-20991D01*
X45766Y-20788D01*
X45615Y-20637D01*
X49662Y-20637D01*
X49706Y-20681D01*
X49706Y-20681D01*
G37*
G54D21*
X49706Y-20681D02*
X49662Y-20724D01*
X47325Y-20724D01*
X47191Y-20751D01*
X47077Y-20827D01*
X46354Y-21550D01*
X46191Y-21549D01*
X45988Y-21633D01*
X45834Y-21788D01*
X45750Y-21990D01*
X45750Y-22055D01*
X45345Y-21650D01*
X45408Y-21650D01*
X45611Y-21566D01*
X45765Y-21411D01*
X45849Y-21209D01*
X45850Y-20991D01*
X45766Y-20788D01*
X45615Y-20637D01*
X49662Y-20637D01*
X49706Y-20681D01*
G54D10*
G36*
X49706Y-21468D02*
X49662Y-21512D01*
X48037Y-21512D01*
X47903Y-21538D01*
X47790Y-21614D01*
X47790Y-21614D01*
X47790Y-21614D01*
X47552Y-21852D01*
X47552Y-21852D01*
X46955Y-22450D01*
X46727Y-22450D01*
X46765Y-22411D01*
X46849Y-22209D01*
X46850Y-22044D01*
X47470Y-21424D01*
X49662Y-21424D01*
X49706Y-21468D01*
X49706Y-21468D01*
G37*
G54D21*
X49706Y-21468D02*
X49662Y-21512D01*
X48037Y-21512D01*
X47903Y-21538D01*
X47790Y-21614D01*
X47790Y-21614D01*
X47790Y-21614D01*
X47552Y-21852D01*
X47552Y-21852D01*
X46955Y-22450D01*
X46727Y-22450D01*
X46765Y-22411D01*
X46849Y-22209D01*
X46850Y-22044D01*
X47470Y-21424D01*
X49662Y-21424D01*
X49706Y-21468D01*
G54D10*
G36*
X49706Y-22255D02*
X49662Y-22299D01*
X48825Y-22299D01*
X48825Y-22299D01*
X48691Y-22326D01*
X48577Y-22402D01*
X48577Y-22402D01*
X48577Y-22402D01*
X45050Y-25930D01*
X45050Y-23844D01*
X45245Y-23649D01*
X45408Y-23650D01*
X45611Y-23566D01*
X45765Y-23411D01*
X45849Y-23209D01*
X45849Y-23112D01*
X45866Y-23123D01*
X45999Y-23149D01*
X46000Y-23150D01*
X47100Y-23150D01*
X47233Y-23123D01*
X47233Y-23123D01*
X47347Y-23047D01*
X48047Y-22347D01*
X48047Y-22347D01*
X48047Y-22347D01*
X48182Y-22212D01*
X49662Y-22212D01*
X49706Y-22255D01*
X49706Y-22255D01*
G37*
G54D21*
X49706Y-22255D02*
X49662Y-22299D01*
X48825Y-22299D01*
X48825Y-22299D01*
X48691Y-22326D01*
X48577Y-22402D01*
X48577Y-22402D01*
X48577Y-22402D01*
X45050Y-25930D01*
X45050Y-23844D01*
X45245Y-23649D01*
X45408Y-23650D01*
X45611Y-23566D01*
X45765Y-23411D01*
X45849Y-23209D01*
X45849Y-23112D01*
X45866Y-23123D01*
X45999Y-23149D01*
X46000Y-23150D01*
X47100Y-23150D01*
X47233Y-23123D01*
X47233Y-23123D01*
X47347Y-23047D01*
X48047Y-22347D01*
X48047Y-22347D01*
X48047Y-22347D01*
X48182Y-22212D01*
X49662Y-22212D01*
X49706Y-22255D01*
G54D10*
G36*
X51683Y-22300D02*
X51673Y-22325D01*
X50362Y-22325D01*
X50293Y-22255D01*
X50337Y-22212D01*
X51654Y-22212D01*
X51654Y-22230D01*
X51683Y-22300D01*
X51683Y-22300D01*
G37*
G54D21*
X51683Y-22300D02*
X51673Y-22325D01*
X50362Y-22325D01*
X50293Y-22255D01*
X50337Y-22212D01*
X51654Y-22212D01*
X51654Y-22230D01*
X51683Y-22300D01*
G54D10*
G36*
X52114Y-27999D02*
X52083Y-28012D01*
X52013Y-28083D01*
X51975Y-28175D01*
X51974Y-28274D01*
X51974Y-28530D01*
X50155Y-30350D01*
X44173Y-30350D01*
X44184Y-30338D01*
X44222Y-30246D01*
X44223Y-30147D01*
X44223Y-30071D01*
X44247Y-30047D01*
X44323Y-29933D01*
X44350Y-29800D01*
X44350Y-29344D01*
X44852Y-29847D01*
X44852Y-29847D01*
X44966Y-29923D01*
X45100Y-29950D01*
X47485Y-29950D01*
X47512Y-30016D01*
X47583Y-30086D01*
X47675Y-30124D01*
X47774Y-30125D01*
X48324Y-30125D01*
X48416Y-30087D01*
X48486Y-30016D01*
X48524Y-29924D01*
X48525Y-29825D01*
X48525Y-29275D01*
X48487Y-29183D01*
X48416Y-29113D01*
X48385Y-29100D01*
X48416Y-29087D01*
X48486Y-29016D01*
X48524Y-28924D01*
X48525Y-28825D01*
X48525Y-28275D01*
X48487Y-28183D01*
X48416Y-28113D01*
X48324Y-28075D01*
X48225Y-28074D01*
X47675Y-28074D01*
X47583Y-28112D01*
X47513Y-28183D01*
X47485Y-28250D01*
X45444Y-28250D01*
X45044Y-27850D01*
X51985Y-27850D01*
X52012Y-27916D01*
X52083Y-27986D01*
X52114Y-27999D01*
X52114Y-27999D01*
G37*
G54D21*
X52114Y-27999D02*
X52083Y-28012D01*
X52013Y-28083D01*
X51975Y-28175D01*
X51974Y-28274D01*
X51974Y-28530D01*
X50155Y-30350D01*
X44173Y-30350D01*
X44184Y-30338D01*
X44222Y-30246D01*
X44223Y-30147D01*
X44223Y-30071D01*
X44247Y-30047D01*
X44323Y-29933D01*
X44350Y-29800D01*
X44350Y-29344D01*
X44852Y-29847D01*
X44852Y-29847D01*
X44966Y-29923D01*
X45100Y-29950D01*
X47485Y-29950D01*
X47512Y-30016D01*
X47583Y-30086D01*
X47675Y-30124D01*
X47774Y-30125D01*
X48324Y-30125D01*
X48416Y-30087D01*
X48486Y-30016D01*
X48524Y-29924D01*
X48525Y-29825D01*
X48525Y-29275D01*
X48487Y-29183D01*
X48416Y-29113D01*
X48385Y-29100D01*
X48416Y-29087D01*
X48486Y-29016D01*
X48524Y-28924D01*
X48525Y-28825D01*
X48525Y-28275D01*
X48487Y-28183D01*
X48416Y-28113D01*
X48324Y-28075D01*
X48225Y-28074D01*
X47675Y-28074D01*
X47583Y-28112D01*
X47513Y-28183D01*
X47485Y-28250D01*
X45444Y-28250D01*
X45044Y-27850D01*
X51985Y-27850D01*
X52012Y-27916D01*
X52083Y-27986D01*
X52114Y-27999D01*
G54D10*
G36*
X62950Y-21923D02*
X62399Y-21923D01*
X62307Y-21961D01*
X62250Y-22018D01*
X62250Y-15144D01*
X62269Y-15125D01*
X62624Y-15125D01*
X62716Y-15087D01*
X62786Y-15016D01*
X62799Y-14985D01*
X62812Y-15016D01*
X62883Y-15086D01*
X62950Y-15114D01*
X62950Y-19621D01*
X62863Y-19656D01*
X62793Y-19727D01*
X62755Y-19819D01*
X62754Y-19918D01*
X62754Y-20430D01*
X62783Y-20500D01*
X62755Y-20569D01*
X62754Y-20668D01*
X62754Y-21180D01*
X62792Y-21272D01*
X62863Y-21342D01*
X62950Y-21378D01*
X62950Y-21923D01*
X62950Y-21923D01*
G37*
G54D21*
X62950Y-21923D02*
X62399Y-21923D01*
X62307Y-21961D01*
X62250Y-22018D01*
X62250Y-15144D01*
X62269Y-15125D01*
X62624Y-15125D01*
X62716Y-15087D01*
X62786Y-15016D01*
X62799Y-14985D01*
X62812Y-15016D01*
X62883Y-15086D01*
X62950Y-15114D01*
X62950Y-19621D01*
X62863Y-19656D01*
X62793Y-19727D01*
X62755Y-19819D01*
X62754Y-19918D01*
X62754Y-20430D01*
X62783Y-20500D01*
X62755Y-20569D01*
X62754Y-20668D01*
X62754Y-21180D01*
X62792Y-21272D01*
X62863Y-21342D01*
X62950Y-21378D01*
X62950Y-21923D01*
G54D10*
G36*
X74730Y-31230D02*
X74650Y-31230D01*
X74650Y-23300D01*
X74649Y-23300D01*
X74650Y-23300D01*
X74650Y-20600D01*
X74649Y-20599D01*
X74623Y-20466D01*
X74547Y-20352D01*
X74547Y-20352D01*
X72250Y-18055D01*
X72250Y-16114D01*
X72316Y-16087D01*
X72386Y-16016D01*
X72424Y-15924D01*
X72425Y-15825D01*
X72425Y-15275D01*
X72387Y-15183D01*
X72316Y-15113D01*
X72224Y-15075D01*
X72125Y-15074D01*
X71575Y-15074D01*
X71483Y-15112D01*
X71413Y-15183D01*
X71400Y-15214D01*
X71387Y-15183D01*
X71316Y-15113D01*
X71224Y-15075D01*
X71125Y-15074D01*
X70575Y-15074D01*
X70483Y-15112D01*
X70413Y-15183D01*
X70375Y-15275D01*
X70374Y-15374D01*
X70374Y-15924D01*
X70412Y-16016D01*
X70483Y-16086D01*
X70550Y-16114D01*
X70550Y-19621D01*
X70463Y-19656D01*
X70393Y-19727D01*
X70355Y-19819D01*
X70354Y-19918D01*
X70354Y-20430D01*
X70383Y-20500D01*
X70355Y-20569D01*
X70354Y-20668D01*
X70354Y-21180D01*
X70392Y-21272D01*
X70463Y-21342D01*
X70550Y-21378D01*
X70550Y-21844D01*
X70471Y-21923D01*
X69899Y-21923D01*
X69807Y-21961D01*
X69737Y-22031D01*
X69698Y-22123D01*
X69698Y-22222D01*
X69698Y-22655D01*
X69736Y-22747D01*
X69807Y-22818D01*
X69898Y-22856D01*
X69998Y-22856D01*
X71100Y-22856D01*
X71192Y-22818D01*
X71262Y-22748D01*
X71301Y-22656D01*
X71301Y-22556D01*
X71301Y-22339D01*
X72198Y-22339D01*
X72198Y-22655D01*
X72236Y-22747D01*
X72307Y-22818D01*
X72398Y-22856D01*
X72498Y-22856D01*
X73600Y-22856D01*
X73692Y-22818D01*
X73762Y-22748D01*
X73801Y-22656D01*
X73801Y-22556D01*
X73801Y-22123D01*
X73763Y-22031D01*
X73692Y-21961D01*
X73601Y-21923D01*
X73501Y-21923D01*
X73028Y-21923D01*
X72847Y-21742D01*
X72733Y-21666D01*
X72600Y-21639D01*
X71250Y-21639D01*
X71250Y-21378D01*
X71336Y-21343D01*
X71406Y-21272D01*
X71444Y-21180D01*
X71445Y-21081D01*
X71445Y-20569D01*
X71416Y-20499D01*
X71444Y-20430D01*
X71445Y-20331D01*
X71445Y-19819D01*
X71407Y-19727D01*
X71336Y-19657D01*
X71250Y-19621D01*
X71250Y-16114D01*
X71316Y-16087D01*
X71386Y-16016D01*
X71399Y-15985D01*
X71412Y-16016D01*
X71483Y-16086D01*
X71550Y-16114D01*
X71550Y-18200D01*
X71576Y-18333D01*
X71652Y-18447D01*
X73950Y-20744D01*
X73950Y-23155D01*
X73855Y-23250D01*
X73760Y-23250D01*
X73692Y-23181D01*
X73601Y-23143D01*
X73501Y-23143D01*
X72399Y-23143D01*
X72307Y-23181D01*
X72237Y-23251D01*
X72233Y-23260D01*
X71266Y-23260D01*
X71263Y-23252D01*
X71192Y-23181D01*
X71101Y-23143D01*
X71001Y-23143D01*
X69899Y-23143D01*
X69807Y-23181D01*
X69737Y-23251D01*
X69698Y-23343D01*
X69698Y-23443D01*
X69698Y-23876D01*
X69736Y-23968D01*
X69807Y-24038D01*
X69898Y-24076D01*
X69998Y-24076D01*
X71100Y-24076D01*
X71192Y-24038D01*
X71262Y-23968D01*
X71266Y-23960D01*
X72233Y-23960D01*
X72236Y-23968D01*
X72307Y-24038D01*
X72398Y-24076D01*
X72498Y-24076D01*
X73600Y-24076D01*
X73692Y-24038D01*
X73762Y-23968D01*
X73770Y-23950D01*
X74000Y-23950D01*
X74133Y-23923D01*
X74133Y-23923D01*
X74247Y-23847D01*
X74547Y-23547D01*
X74547Y-23547D01*
X74547Y-23547D01*
X74623Y-23433D01*
X74650Y-23300D01*
X74650Y-31230D01*
X73569Y-31230D01*
X73569Y-29658D01*
X73568Y-29435D01*
X73569Y-29212D01*
X73568Y-29209D01*
X73568Y-29206D01*
X73398Y-28797D01*
X73397Y-28796D01*
X73396Y-28794D01*
X73077Y-28474D01*
X73073Y-28473D01*
X73072Y-28471D01*
X72866Y-28386D01*
X72659Y-28301D01*
X72657Y-28301D01*
X72654Y-28300D01*
X72431Y-28301D01*
X72208Y-28300D01*
X72205Y-28302D01*
X72202Y-28302D01*
X71793Y-28471D01*
X71792Y-28472D01*
X71790Y-28473D01*
X71470Y-28792D01*
X71469Y-28796D01*
X71467Y-28797D01*
X71383Y-29003D01*
X71297Y-29210D01*
X71297Y-29212D01*
X71296Y-29215D01*
X71297Y-29438D01*
X71297Y-29661D01*
X71298Y-29664D01*
X71298Y-29667D01*
X71467Y-30076D01*
X71468Y-30077D01*
X71469Y-30079D01*
X71788Y-30399D01*
X71792Y-30400D01*
X71793Y-30402D01*
X72000Y-30487D01*
X72206Y-30572D01*
X72208Y-30572D01*
X72211Y-30573D01*
X72434Y-30572D01*
X72658Y-30573D01*
X72660Y-30571D01*
X72663Y-30571D01*
X73072Y-30402D01*
X73073Y-30401D01*
X73075Y-30400D01*
X73395Y-30081D01*
X73396Y-30077D01*
X73398Y-30076D01*
X73483Y-29870D01*
X73568Y-29663D01*
X73568Y-29661D01*
X73569Y-29658D01*
X73569Y-31230D01*
X69550Y-31230D01*
X69550Y-23400D01*
X69550Y-21300D01*
X69523Y-21166D01*
X69523Y-21166D01*
X69447Y-21052D01*
X67050Y-18655D01*
X67050Y-18614D01*
X67116Y-18587D01*
X67186Y-18516D01*
X67224Y-18424D01*
X67225Y-18325D01*
X67225Y-17775D01*
X67187Y-17683D01*
X67116Y-17613D01*
X67024Y-17575D01*
X66925Y-17574D01*
X66375Y-17574D01*
X66283Y-17612D01*
X66213Y-17683D01*
X66200Y-17714D01*
X66187Y-17683D01*
X66116Y-17613D01*
X66024Y-17575D01*
X65925Y-17574D01*
X65375Y-17574D01*
X65283Y-17612D01*
X65213Y-17683D01*
X65175Y-17775D01*
X65174Y-17874D01*
X65174Y-18424D01*
X65212Y-18516D01*
X65283Y-18586D01*
X65350Y-18614D01*
X65350Y-19621D01*
X65263Y-19656D01*
X65193Y-19727D01*
X65155Y-19819D01*
X65154Y-19918D01*
X65154Y-20430D01*
X65183Y-20500D01*
X65155Y-20569D01*
X65154Y-20668D01*
X65154Y-21180D01*
X65192Y-21272D01*
X65263Y-21342D01*
X65350Y-21378D01*
X65350Y-21600D01*
X65350Y-21923D01*
X64899Y-21923D01*
X64807Y-21961D01*
X64737Y-22031D01*
X64698Y-22123D01*
X64698Y-22222D01*
X64698Y-22655D01*
X64736Y-22747D01*
X64807Y-22818D01*
X64898Y-22856D01*
X64998Y-22856D01*
X66100Y-22856D01*
X66192Y-22818D01*
X66262Y-22748D01*
X66301Y-22656D01*
X66301Y-22556D01*
X66301Y-22123D01*
X66263Y-22031D01*
X66192Y-21961D01*
X66165Y-21950D01*
X67065Y-21950D01*
X67210Y-22095D01*
X67198Y-22123D01*
X67198Y-22222D01*
X67198Y-22655D01*
X67236Y-22747D01*
X67307Y-22818D01*
X67398Y-22856D01*
X67498Y-22856D01*
X68600Y-22856D01*
X68692Y-22818D01*
X68762Y-22748D01*
X68801Y-22656D01*
X68801Y-22556D01*
X68801Y-22123D01*
X68763Y-22031D01*
X68692Y-21961D01*
X68601Y-21923D01*
X68501Y-21923D01*
X68028Y-21923D01*
X67457Y-21352D01*
X67344Y-21276D01*
X67210Y-21250D01*
X66216Y-21250D01*
X66244Y-21180D01*
X66245Y-21081D01*
X66245Y-20569D01*
X66216Y-20499D01*
X66244Y-20430D01*
X66245Y-20331D01*
X66245Y-19819D01*
X66207Y-19727D01*
X66136Y-19657D01*
X66050Y-19621D01*
X66050Y-18614D01*
X66116Y-18587D01*
X66186Y-18516D01*
X66199Y-18485D01*
X66212Y-18516D01*
X66283Y-18586D01*
X66350Y-18614D01*
X66350Y-18800D01*
X66376Y-18933D01*
X66452Y-19047D01*
X68850Y-21444D01*
X68850Y-23255D01*
X68844Y-23260D01*
X68766Y-23260D01*
X68763Y-23252D01*
X68692Y-23181D01*
X68601Y-23143D01*
X68501Y-23143D01*
X67399Y-23143D01*
X67307Y-23181D01*
X67237Y-23251D01*
X67233Y-23260D01*
X66266Y-23260D01*
X66263Y-23252D01*
X66192Y-23181D01*
X66101Y-23143D01*
X66001Y-23143D01*
X64899Y-23143D01*
X64807Y-23181D01*
X64737Y-23251D01*
X64698Y-23343D01*
X64698Y-23443D01*
X64698Y-23876D01*
X64736Y-23968D01*
X64807Y-24038D01*
X64898Y-24076D01*
X64998Y-24076D01*
X66100Y-24076D01*
X66192Y-24038D01*
X66262Y-23968D01*
X66266Y-23960D01*
X67233Y-23960D01*
X67236Y-23968D01*
X67307Y-24038D01*
X67398Y-24076D01*
X67498Y-24076D01*
X68600Y-24076D01*
X68692Y-24038D01*
X68762Y-23968D01*
X68766Y-23960D01*
X68989Y-23960D01*
X69123Y-23933D01*
X69123Y-23933D01*
X69237Y-23857D01*
X69447Y-23647D01*
X69523Y-23533D01*
X69523Y-23533D01*
X69550Y-23400D01*
X69550Y-31230D01*
X63845Y-31230D01*
X63845Y-21081D01*
X63845Y-20569D01*
X63816Y-20499D01*
X63844Y-20430D01*
X63845Y-20331D01*
X63845Y-19819D01*
X63807Y-19727D01*
X63736Y-19657D01*
X63650Y-19621D01*
X63650Y-15114D01*
X63716Y-15087D01*
X63786Y-15016D01*
X63824Y-14924D01*
X63825Y-14825D01*
X63825Y-14275D01*
X63787Y-14183D01*
X63716Y-14113D01*
X63624Y-14075D01*
X63525Y-14074D01*
X62975Y-14074D01*
X62883Y-14112D01*
X62813Y-14183D01*
X62800Y-14214D01*
X62787Y-14183D01*
X62716Y-14113D01*
X62624Y-14075D01*
X62525Y-14074D01*
X61975Y-14074D01*
X61883Y-14112D01*
X61813Y-14183D01*
X61775Y-14275D01*
X61774Y-14374D01*
X61774Y-14630D01*
X61652Y-14752D01*
X61576Y-14866D01*
X61550Y-15000D01*
X61550Y-23400D01*
X61576Y-23533D01*
X61652Y-23647D01*
X61862Y-23857D01*
X61976Y-23933D01*
X61976Y-23933D01*
X62110Y-23960D01*
X62233Y-23960D01*
X62236Y-23968D01*
X62307Y-24038D01*
X62398Y-24076D01*
X62498Y-24076D01*
X63600Y-24076D01*
X63692Y-24038D01*
X63762Y-23968D01*
X63801Y-23876D01*
X63801Y-23777D01*
X63801Y-23344D01*
X63763Y-23252D01*
X63692Y-23181D01*
X63601Y-23143D01*
X63501Y-23143D01*
X62399Y-23143D01*
X62307Y-23181D01*
X62250Y-23238D01*
X62250Y-22760D01*
X62307Y-22818D01*
X62398Y-22856D01*
X62498Y-22856D01*
X63600Y-22856D01*
X63692Y-22818D01*
X63762Y-22748D01*
X63801Y-22656D01*
X63801Y-22556D01*
X63801Y-22123D01*
X63763Y-22031D01*
X63692Y-21961D01*
X63650Y-21943D01*
X63650Y-21378D01*
X63736Y-21343D01*
X63806Y-21272D01*
X63844Y-21180D01*
X63845Y-21081D01*
X63845Y-31230D01*
X61301Y-31230D01*
X61301Y-23777D01*
X61301Y-23344D01*
X61263Y-23252D01*
X61192Y-23181D01*
X61101Y-23143D01*
X61001Y-23143D01*
X59899Y-23143D01*
X59807Y-23181D01*
X59741Y-23246D01*
X59350Y-22855D01*
X59350Y-19144D01*
X59469Y-19025D01*
X59824Y-19025D01*
X59916Y-18987D01*
X59986Y-18916D01*
X59999Y-18885D01*
X60012Y-18916D01*
X60083Y-18986D01*
X60150Y-19014D01*
X60150Y-19621D01*
X60063Y-19656D01*
X59993Y-19727D01*
X59955Y-19819D01*
X59954Y-19918D01*
X59954Y-20430D01*
X59983Y-20500D01*
X59955Y-20569D01*
X59954Y-20668D01*
X59954Y-21180D01*
X59992Y-21272D01*
X60063Y-21342D01*
X60150Y-21378D01*
X60150Y-21923D01*
X59899Y-21923D01*
X59807Y-21961D01*
X59737Y-22031D01*
X59698Y-22123D01*
X59698Y-22222D01*
X59698Y-22655D01*
X59736Y-22747D01*
X59807Y-22818D01*
X59898Y-22856D01*
X59998Y-22856D01*
X61100Y-22856D01*
X61192Y-22818D01*
X61262Y-22748D01*
X61301Y-22656D01*
X61301Y-22556D01*
X61301Y-22123D01*
X61263Y-22031D01*
X61192Y-21961D01*
X61101Y-21923D01*
X61001Y-21923D01*
X60850Y-21923D01*
X60850Y-21378D01*
X60936Y-21343D01*
X61006Y-21272D01*
X61044Y-21180D01*
X61045Y-21081D01*
X61045Y-20569D01*
X61016Y-20499D01*
X61044Y-20430D01*
X61045Y-20331D01*
X61045Y-19819D01*
X61007Y-19727D01*
X60936Y-19657D01*
X60850Y-19621D01*
X60850Y-19014D01*
X60916Y-18987D01*
X60986Y-18916D01*
X61024Y-18824D01*
X61025Y-18725D01*
X61025Y-18175D01*
X60987Y-18083D01*
X60916Y-18013D01*
X60824Y-17975D01*
X60725Y-17974D01*
X60175Y-17974D01*
X60083Y-18012D01*
X60013Y-18083D01*
X60000Y-18114D01*
X59987Y-18083D01*
X59916Y-18013D01*
X59824Y-17975D01*
X59725Y-17974D01*
X59175Y-17974D01*
X59083Y-18012D01*
X59013Y-18083D01*
X58975Y-18175D01*
X58974Y-18274D01*
X58974Y-18530D01*
X58752Y-18752D01*
X58676Y-18866D01*
X58650Y-19000D01*
X58650Y-23000D01*
X58676Y-23133D01*
X58752Y-23247D01*
X59362Y-23857D01*
X59476Y-23933D01*
X59476Y-23933D01*
X59610Y-23960D01*
X59733Y-23960D01*
X59736Y-23968D01*
X59807Y-24038D01*
X59898Y-24076D01*
X59998Y-24076D01*
X61100Y-24076D01*
X61192Y-24038D01*
X61262Y-23968D01*
X61301Y-23876D01*
X61301Y-23777D01*
X61301Y-31230D01*
X55853Y-31230D01*
X55853Y-15878D01*
X55852Y-15655D01*
X55852Y-15432D01*
X55851Y-15429D01*
X55851Y-15427D01*
X55681Y-15017D01*
X55680Y-15017D01*
X55680Y-15014D01*
X55360Y-14695D01*
X55357Y-14693D01*
X55356Y-14692D01*
X55149Y-14607D01*
X54943Y-14521D01*
X54940Y-14521D01*
X54938Y-14520D01*
X54714Y-14521D01*
X54491Y-14521D01*
X54488Y-14522D01*
X54486Y-14522D01*
X54076Y-14692D01*
X54076Y-14693D01*
X54073Y-14694D01*
X53754Y-15013D01*
X53752Y-15016D01*
X53751Y-15017D01*
X53666Y-15224D01*
X53580Y-15430D01*
X53580Y-15433D01*
X53579Y-15436D01*
X53580Y-15659D01*
X53580Y-15882D01*
X53581Y-15885D01*
X53581Y-15887D01*
X53751Y-16297D01*
X53752Y-16297D01*
X53753Y-16300D01*
X54072Y-16619D01*
X54075Y-16621D01*
X54076Y-16622D01*
X54283Y-16707D01*
X54489Y-16793D01*
X54492Y-16793D01*
X54495Y-16794D01*
X54718Y-16793D01*
X54941Y-16793D01*
X54944Y-16792D01*
X54946Y-16792D01*
X55356Y-16622D01*
X55356Y-16621D01*
X55359Y-16620D01*
X55678Y-16301D01*
X55680Y-16298D01*
X55681Y-16297D01*
X55766Y-16090D01*
X55852Y-15884D01*
X55852Y-15881D01*
X55853Y-15878D01*
X55853Y-31230D01*
X53025Y-31230D01*
X53025Y-28725D01*
X53025Y-28175D01*
X52987Y-28083D01*
X52916Y-28013D01*
X52885Y-28000D01*
X52916Y-27987D01*
X52986Y-27916D01*
X53024Y-27824D01*
X53025Y-27725D01*
X53025Y-27175D01*
X52987Y-27083D01*
X52916Y-27013D01*
X52824Y-26975D01*
X52725Y-26974D01*
X52175Y-26974D01*
X52083Y-27012D01*
X52013Y-27083D01*
X51985Y-27150D01*
X45012Y-27150D01*
X45023Y-27133D01*
X45023Y-27133D01*
X45050Y-27000D01*
X45050Y-26919D01*
X48970Y-22999D01*
X49662Y-22999D01*
X49724Y-23061D01*
X49902Y-23135D01*
X50096Y-23135D01*
X50275Y-23062D01*
X50312Y-23025D01*
X51673Y-23025D01*
X51692Y-23072D01*
X51763Y-23142D01*
X51855Y-23180D01*
X51954Y-23181D01*
X52544Y-23181D01*
X52636Y-23143D01*
X52706Y-23072D01*
X52744Y-22980D01*
X52745Y-22881D01*
X52745Y-22369D01*
X52716Y-22299D01*
X52744Y-22230D01*
X52745Y-22131D01*
X52745Y-21619D01*
X52707Y-21527D01*
X52636Y-21457D01*
X52544Y-21419D01*
X52445Y-21418D01*
X51855Y-21418D01*
X51763Y-21456D01*
X51708Y-21512D01*
X50337Y-21512D01*
X50293Y-21468D01*
X50411Y-21350D01*
X50486Y-21171D01*
X50486Y-20978D01*
X50412Y-20799D01*
X50293Y-20681D01*
X50411Y-20563D01*
X50486Y-20384D01*
X50486Y-20191D01*
X50412Y-20012D01*
X50293Y-19893D01*
X50411Y-19775D01*
X50486Y-19597D01*
X50486Y-19403D01*
X50412Y-19224D01*
X50293Y-19106D01*
X50411Y-18988D01*
X50486Y-18809D01*
X50486Y-18616D01*
X50412Y-18437D01*
X50293Y-18318D01*
X50411Y-18200D01*
X50486Y-18022D01*
X50486Y-17828D01*
X50412Y-17650D01*
X50293Y-17531D01*
X50411Y-17413D01*
X50422Y-17388D01*
X50428Y-17387D01*
X50454Y-17310D01*
X50486Y-17234D01*
X50486Y-17219D01*
X50491Y-17204D01*
X50486Y-17122D01*
X50486Y-17041D01*
X50480Y-17026D01*
X50479Y-17011D01*
X50428Y-16888D01*
X50422Y-16887D01*
X50412Y-16862D01*
X50293Y-16744D01*
X50411Y-16626D01*
X50422Y-16601D01*
X50428Y-16599D01*
X50454Y-16522D01*
X50486Y-16447D01*
X50486Y-16431D01*
X50491Y-16416D01*
X50486Y-16335D01*
X50486Y-16254D01*
X50480Y-16239D01*
X50479Y-16223D01*
X50428Y-16100D01*
X50422Y-16099D01*
X50412Y-16075D01*
X50275Y-15938D01*
X50250Y-15928D01*
X50249Y-15921D01*
X50172Y-15895D01*
X50097Y-15864D01*
X50081Y-15864D01*
X50066Y-15859D01*
X49985Y-15864D01*
X49903Y-15864D01*
X49889Y-15870D01*
X49873Y-15871D01*
X49750Y-15921D01*
X49749Y-15927D01*
X49724Y-15937D01*
X49588Y-16074D01*
X49577Y-16099D01*
X49571Y-16100D01*
X49545Y-16178D01*
X49513Y-16253D01*
X49513Y-16268D01*
X49508Y-16283D01*
X49513Y-16365D01*
X49513Y-16446D01*
X49519Y-16461D01*
X49520Y-16476D01*
X49571Y-16599D01*
X49577Y-16601D01*
X49587Y-16625D01*
X49706Y-16744D01*
X49588Y-16862D01*
X49577Y-16887D01*
X49571Y-16888D01*
X49545Y-16965D01*
X49513Y-17040D01*
X49513Y-17056D01*
X49508Y-17071D01*
X49513Y-17152D01*
X49513Y-17234D01*
X49519Y-17248D01*
X49520Y-17264D01*
X49571Y-17387D01*
X49577Y-17388D01*
X49587Y-17412D01*
X49706Y-17531D01*
X49662Y-17575D01*
X43274Y-17575D01*
X43140Y-17601D01*
X43027Y-17677D01*
X37752Y-22952D01*
X37676Y-23066D01*
X37650Y-23200D01*
X37650Y-27985D01*
X37583Y-28012D01*
X37513Y-28083D01*
X37500Y-28114D01*
X37487Y-28083D01*
X37416Y-28013D01*
X37350Y-27985D01*
X37350Y-27000D01*
X37323Y-26866D01*
X37247Y-26752D01*
X31347Y-20852D01*
X31233Y-20776D01*
X31100Y-20750D01*
X25418Y-20750D01*
X25349Y-20681D01*
X25445Y-20585D01*
X25455Y-20562D01*
X25461Y-20560D01*
X25490Y-20475D01*
X25525Y-20392D01*
X25525Y-20377D01*
X25530Y-20363D01*
X25525Y-20273D01*
X25525Y-20183D01*
X25519Y-20169D01*
X25519Y-20154D01*
X25461Y-20014D01*
X25455Y-20012D01*
X25445Y-19990D01*
X25349Y-19893D01*
X25445Y-19798D01*
X25455Y-19774D01*
X25461Y-19773D01*
X25490Y-19688D01*
X25525Y-19605D01*
X25525Y-19590D01*
X25530Y-19575D01*
X25525Y-19485D01*
X25525Y-19395D01*
X25519Y-19382D01*
X25519Y-19367D01*
X25461Y-19226D01*
X25455Y-19225D01*
X25445Y-19202D01*
X25349Y-19106D01*
X25445Y-19010D01*
X25455Y-18987D01*
X25461Y-18985D01*
X25490Y-18900D01*
X25525Y-18817D01*
X25525Y-18802D01*
X25530Y-18788D01*
X25525Y-18698D01*
X25525Y-18608D01*
X25519Y-18594D01*
X25519Y-18579D01*
X25461Y-18439D01*
X25455Y-18437D01*
X25445Y-18415D01*
X25349Y-18318D01*
X25445Y-18223D01*
X25455Y-18199D01*
X25461Y-18198D01*
X25490Y-18113D01*
X25525Y-18030D01*
X25525Y-18015D01*
X25530Y-18001D01*
X25525Y-17911D01*
X25525Y-17821D01*
X25519Y-17807D01*
X25519Y-17792D01*
X25461Y-17652D01*
X25455Y-17650D01*
X25445Y-17627D01*
X25349Y-17531D01*
X25445Y-17435D01*
X25455Y-17412D01*
X25461Y-17410D01*
X25490Y-17325D01*
X25525Y-17242D01*
X25525Y-17227D01*
X25530Y-17213D01*
X25525Y-17123D01*
X25525Y-17033D01*
X25519Y-17019D01*
X25519Y-17004D01*
X25461Y-16864D01*
X25455Y-16863D01*
X25445Y-16840D01*
X25349Y-16744D01*
X25445Y-16648D01*
X25455Y-16625D01*
X25461Y-16623D01*
X25490Y-16538D01*
X25525Y-16455D01*
X25525Y-16440D01*
X25530Y-16426D01*
X25525Y-16336D01*
X25525Y-16246D01*
X25519Y-16232D01*
X25519Y-16217D01*
X25461Y-16077D01*
X25455Y-16075D01*
X25445Y-16053D01*
X25298Y-15905D01*
X25274Y-15895D01*
X25273Y-15889D01*
X25188Y-15859D01*
X25105Y-15824D01*
X25090Y-15824D01*
X25075Y-15819D01*
X24985Y-15824D01*
X24895Y-15824D01*
X24882Y-15830D01*
X24867Y-15831D01*
X24726Y-15889D01*
X24725Y-15895D01*
X24702Y-15904D01*
X24554Y-16052D01*
X24544Y-16075D01*
X24538Y-16077D01*
X24509Y-16162D01*
X24474Y-16245D01*
X24474Y-16260D01*
X24469Y-16274D01*
X24474Y-16364D01*
X24474Y-16454D01*
X24480Y-16468D01*
X24480Y-16483D01*
X24538Y-16623D01*
X24544Y-16625D01*
X24554Y-16647D01*
X24650Y-16744D01*
X24554Y-16839D01*
X24544Y-16863D01*
X24538Y-16864D01*
X24509Y-16949D01*
X24474Y-17032D01*
X24474Y-17047D01*
X24469Y-17061D01*
X24474Y-17151D01*
X24474Y-17241D01*
X24480Y-17255D01*
X24480Y-17270D01*
X24538Y-17410D01*
X24544Y-17412D01*
X24554Y-17435D01*
X24650Y-17531D01*
X24554Y-17627D01*
X24544Y-17650D01*
X24538Y-17652D01*
X24509Y-17736D01*
X24474Y-17820D01*
X24474Y-17835D01*
X24469Y-17849D01*
X24474Y-17939D01*
X24474Y-18029D01*
X24480Y-18043D01*
X24480Y-18058D01*
X24538Y-18198D01*
X24544Y-18199D01*
X24554Y-18222D01*
X24650Y-18318D01*
X24554Y-18414D01*
X24544Y-18437D01*
X24538Y-18439D01*
X24509Y-18524D01*
X24474Y-18607D01*
X24474Y-18622D01*
X24469Y-18636D01*
X24474Y-18726D01*
X24474Y-18816D01*
X24480Y-18830D01*
X24480Y-18845D01*
X24538Y-18985D01*
X24544Y-18987D01*
X24554Y-19009D01*
X24650Y-19106D01*
X24554Y-19201D01*
X24544Y-19225D01*
X24538Y-19226D01*
X24509Y-19311D01*
X24474Y-19394D01*
X24474Y-19409D01*
X24469Y-19424D01*
X24474Y-19514D01*
X24474Y-19604D01*
X24480Y-19617D01*
X24480Y-19632D01*
X24538Y-19773D01*
X24544Y-19774D01*
X24554Y-19797D01*
X24650Y-19893D01*
X24554Y-19989D01*
X24544Y-20012D01*
X24538Y-20014D01*
X24509Y-20099D01*
X24474Y-20182D01*
X24474Y-20197D01*
X24469Y-20211D01*
X24474Y-20301D01*
X24474Y-20391D01*
X24480Y-20405D01*
X24480Y-20420D01*
X24538Y-20560D01*
X24544Y-20562D01*
X24554Y-20584D01*
X24650Y-20681D01*
X24554Y-20776D01*
X24474Y-20969D01*
X24474Y-21178D01*
X24554Y-21372D01*
X24650Y-21468D01*
X24554Y-21564D01*
X24474Y-21757D01*
X24474Y-21966D01*
X24554Y-22159D01*
X24650Y-22255D01*
X24554Y-22351D01*
X24474Y-22544D01*
X24474Y-22753D01*
X24554Y-22946D01*
X24701Y-23094D01*
X24894Y-23175D01*
X25030Y-23175D01*
X30602Y-28747D01*
X30716Y-28823D01*
X30850Y-28850D01*
X34485Y-28850D01*
X34512Y-28916D01*
X34583Y-28986D01*
X34675Y-29024D01*
X34774Y-29025D01*
X35324Y-29025D01*
X35416Y-28987D01*
X35486Y-28916D01*
X35499Y-28885D01*
X35512Y-28916D01*
X35583Y-28986D01*
X35675Y-29024D01*
X35774Y-29025D01*
X36324Y-29025D01*
X36416Y-28987D01*
X36486Y-28916D01*
X36499Y-28885D01*
X36512Y-28916D01*
X36583Y-28986D01*
X36650Y-29014D01*
X36650Y-29400D01*
X36676Y-29533D01*
X36752Y-29647D01*
X37152Y-30047D01*
X37152Y-30047D01*
X37266Y-30123D01*
X37312Y-30132D01*
X37314Y-30138D01*
X37350Y-30173D01*
X37350Y-30200D01*
X37376Y-30333D01*
X37452Y-30447D01*
X37952Y-30947D01*
X38066Y-31023D01*
X38066Y-31023D01*
X38200Y-31050D01*
X50300Y-31050D01*
X50433Y-31023D01*
X50433Y-31023D01*
X50547Y-30947D01*
X52469Y-29025D01*
X52824Y-29025D01*
X52916Y-28987D01*
X52986Y-28916D01*
X53024Y-28824D01*
X53025Y-28725D01*
X53025Y-31230D01*
X20420Y-31230D01*
X20420Y-29658D01*
X20420Y-15878D01*
X20419Y-15655D01*
X20419Y-15432D01*
X20418Y-15429D01*
X20418Y-15427D01*
X20248Y-15017D01*
X20247Y-15017D01*
X20246Y-15014D01*
X19927Y-14695D01*
X19924Y-14693D01*
X19923Y-14692D01*
X19716Y-14607D01*
X19510Y-14521D01*
X19507Y-14521D01*
X19504Y-14520D01*
X19281Y-14521D01*
X19058Y-14521D01*
X19055Y-14522D01*
X19053Y-14522D01*
X18643Y-14692D01*
X18643Y-14693D01*
X18640Y-14694D01*
X18321Y-15013D01*
X18319Y-15016D01*
X18318Y-15017D01*
X18233Y-15224D01*
X18147Y-15430D01*
X18147Y-15433D01*
X18146Y-15436D01*
X18147Y-15659D01*
X18147Y-15882D01*
X18148Y-15885D01*
X18148Y-15887D01*
X18318Y-16297D01*
X18319Y-16297D01*
X18319Y-16300D01*
X18639Y-16619D01*
X18642Y-16621D01*
X18643Y-16622D01*
X18850Y-16707D01*
X19056Y-16793D01*
X19059Y-16793D01*
X19061Y-16794D01*
X19285Y-16793D01*
X19508Y-16793D01*
X19511Y-16792D01*
X19513Y-16792D01*
X19923Y-16622D01*
X19923Y-16621D01*
X19926Y-16620D01*
X20245Y-16301D01*
X20247Y-16298D01*
X20248Y-16297D01*
X20333Y-16090D01*
X20419Y-15884D01*
X20419Y-15881D01*
X20420Y-15878D01*
X20420Y-29658D01*
X20419Y-29435D01*
X20419Y-29212D01*
X20418Y-29209D01*
X20418Y-29206D01*
X20248Y-28797D01*
X20247Y-28796D01*
X20246Y-28794D01*
X19927Y-28474D01*
X19924Y-28473D01*
X19923Y-28471D01*
X19716Y-28386D01*
X19510Y-28301D01*
X19507Y-28301D01*
X19504Y-28300D01*
X19281Y-28301D01*
X19058Y-28300D01*
X19055Y-28302D01*
X19053Y-28302D01*
X18643Y-28471D01*
X18643Y-28472D01*
X18640Y-28473D01*
X18321Y-28792D01*
X18319Y-28796D01*
X18318Y-28797D01*
X18233Y-29003D01*
X18147Y-29210D01*
X18147Y-29212D01*
X18146Y-29215D01*
X18147Y-29438D01*
X18147Y-29661D01*
X18148Y-29664D01*
X18148Y-29667D01*
X18318Y-30076D01*
X18319Y-30077D01*
X18319Y-30079D01*
X18639Y-30399D01*
X18642Y-30400D01*
X18643Y-30402D01*
X18850Y-30487D01*
X19056Y-30572D01*
X19059Y-30572D01*
X19061Y-30573D01*
X19285Y-30572D01*
X19508Y-30573D01*
X19511Y-30571D01*
X19513Y-30571D01*
X19923Y-30402D01*
X19923Y-30401D01*
X19926Y-30400D01*
X20245Y-30081D01*
X20247Y-30077D01*
X20248Y-30076D01*
X20333Y-29870D01*
X20419Y-29663D01*
X20419Y-29661D01*
X20420Y-29658D01*
X20420Y-31230D01*
X18000Y-31230D01*
X17769Y-31230D01*
X17769Y-13269D01*
X18000Y-13269D01*
X74730Y-13269D01*
X74730Y-31230D01*
X74730Y-31230D01*
G37*
G54D21*
X74730Y-31230D02*
X74650Y-31230D01*
X74650Y-23300D01*
X74649Y-23300D01*
X74650Y-23300D01*
X74650Y-20600D01*
X74649Y-20599D01*
X74623Y-20466D01*
X74547Y-20352D01*
X74547Y-20352D01*
X72250Y-18055D01*
X72250Y-16114D01*
X72316Y-16087D01*
X72386Y-16016D01*
X72424Y-15924D01*
X72425Y-15825D01*
X72425Y-15275D01*
X72387Y-15183D01*
X72316Y-15113D01*
X72224Y-15075D01*
X72125Y-15074D01*
X71575Y-15074D01*
X71483Y-15112D01*
X71413Y-15183D01*
X71400Y-15214D01*
X71387Y-15183D01*
X71316Y-15113D01*
X71224Y-15075D01*
X71125Y-15074D01*
X70575Y-15074D01*
X70483Y-15112D01*
X70413Y-15183D01*
X70375Y-15275D01*
X70374Y-15374D01*
X70374Y-15924D01*
X70412Y-16016D01*
X70483Y-16086D01*
X70550Y-16114D01*
X70550Y-19621D01*
X70463Y-19656D01*
X70393Y-19727D01*
X70355Y-19819D01*
X70354Y-19918D01*
X70354Y-20430D01*
X70383Y-20500D01*
X70355Y-20569D01*
X70354Y-20668D01*
X70354Y-21180D01*
X70392Y-21272D01*
X70463Y-21342D01*
X70550Y-21378D01*
X70550Y-21844D01*
X70471Y-21923D01*
X69899Y-21923D01*
X69807Y-21961D01*
X69737Y-22031D01*
X69698Y-22123D01*
X69698Y-22222D01*
X69698Y-22655D01*
X69736Y-22747D01*
X69807Y-22818D01*
X69898Y-22856D01*
X69998Y-22856D01*
X71100Y-22856D01*
X71192Y-22818D01*
X71262Y-22748D01*
X71301Y-22656D01*
X71301Y-22556D01*
X71301Y-22339D01*
X72198Y-22339D01*
X72198Y-22655D01*
X72236Y-22747D01*
X72307Y-22818D01*
X72398Y-22856D01*
X72498Y-22856D01*
X73600Y-22856D01*
X73692Y-22818D01*
X73762Y-22748D01*
X73801Y-22656D01*
X73801Y-22556D01*
X73801Y-22123D01*
X73763Y-22031D01*
X73692Y-21961D01*
X73601Y-21923D01*
X73501Y-21923D01*
X73028Y-21923D01*
X72847Y-21742D01*
X72733Y-21666D01*
X72600Y-21639D01*
X71250Y-21639D01*
X71250Y-21378D01*
X71336Y-21343D01*
X71406Y-21272D01*
X71444Y-21180D01*
X71445Y-21081D01*
X71445Y-20569D01*
X71416Y-20499D01*
X71444Y-20430D01*
X71445Y-20331D01*
X71445Y-19819D01*
X71407Y-19727D01*
X71336Y-19657D01*
X71250Y-19621D01*
X71250Y-16114D01*
X71316Y-16087D01*
X71386Y-16016D01*
X71399Y-15985D01*
X71412Y-16016D01*
X71483Y-16086D01*
X71550Y-16114D01*
X71550Y-18200D01*
X71576Y-18333D01*
X71652Y-18447D01*
X73950Y-20744D01*
X73950Y-23155D01*
X73855Y-23250D01*
X73760Y-23250D01*
X73692Y-23181D01*
X73601Y-23143D01*
X73501Y-23143D01*
X72399Y-23143D01*
X72307Y-23181D01*
X72237Y-23251D01*
X72233Y-23260D01*
X71266Y-23260D01*
X71263Y-23252D01*
X71192Y-23181D01*
X71101Y-23143D01*
X71001Y-23143D01*
X69899Y-23143D01*
X69807Y-23181D01*
X69737Y-23251D01*
X69698Y-23343D01*
X69698Y-23443D01*
X69698Y-23876D01*
X69736Y-23968D01*
X69807Y-24038D01*
X69898Y-24076D01*
X69998Y-24076D01*
X71100Y-24076D01*
X71192Y-24038D01*
X71262Y-23968D01*
X71266Y-23960D01*
X72233Y-23960D01*
X72236Y-23968D01*
X72307Y-24038D01*
X72398Y-24076D01*
X72498Y-24076D01*
X73600Y-24076D01*
X73692Y-24038D01*
X73762Y-23968D01*
X73770Y-23950D01*
X74000Y-23950D01*
X74133Y-23923D01*
X74133Y-23923D01*
X74247Y-23847D01*
X74547Y-23547D01*
X74547Y-23547D01*
X74547Y-23547D01*
X74623Y-23433D01*
X74650Y-23300D01*
X74650Y-31230D01*
X73569Y-31230D01*
X73569Y-29658D01*
X73568Y-29435D01*
X73569Y-29212D01*
X73568Y-29209D01*
X73568Y-29206D01*
X73398Y-28797D01*
X73397Y-28796D01*
X73396Y-28794D01*
X73077Y-28474D01*
X73073Y-28473D01*
X73072Y-28471D01*
X72866Y-28386D01*
X72659Y-28301D01*
X72657Y-28301D01*
X72654Y-28300D01*
X72431Y-28301D01*
X72208Y-28300D01*
X72205Y-28302D01*
X72202Y-28302D01*
X71793Y-28471D01*
X71792Y-28472D01*
X71790Y-28473D01*
X71470Y-28792D01*
X71469Y-28796D01*
X71467Y-28797D01*
X71383Y-29003D01*
X71297Y-29210D01*
X71297Y-29212D01*
X71296Y-29215D01*
X71297Y-29438D01*
X71297Y-29661D01*
X71298Y-29664D01*
X71298Y-29667D01*
X71467Y-30076D01*
X71468Y-30077D01*
X71469Y-30079D01*
X71788Y-30399D01*
X71792Y-30400D01*
X71793Y-30402D01*
X72000Y-30487D01*
X72206Y-30572D01*
X72208Y-30572D01*
X72211Y-30573D01*
X72434Y-30572D01*
X72658Y-30573D01*
X72660Y-30571D01*
X72663Y-30571D01*
X73072Y-30402D01*
X73073Y-30401D01*
X73075Y-30400D01*
X73395Y-30081D01*
X73396Y-30077D01*
X73398Y-30076D01*
X73483Y-29870D01*
X73568Y-29663D01*
X73568Y-29661D01*
X73569Y-29658D01*
X73569Y-31230D01*
X69550Y-31230D01*
X69550Y-23400D01*
X69550Y-21300D01*
X69523Y-21166D01*
X69523Y-21166D01*
X69447Y-21052D01*
X67050Y-18655D01*
X67050Y-18614D01*
X67116Y-18587D01*
X67186Y-18516D01*
X67224Y-18424D01*
X67225Y-18325D01*
X67225Y-17775D01*
X67187Y-17683D01*
X67116Y-17613D01*
X67024Y-17575D01*
X66925Y-17574D01*
X66375Y-17574D01*
X66283Y-17612D01*
X66213Y-17683D01*
X66200Y-17714D01*
X66187Y-17683D01*
X66116Y-17613D01*
X66024Y-17575D01*
X65925Y-17574D01*
X65375Y-17574D01*
X65283Y-17612D01*
X65213Y-17683D01*
X65175Y-17775D01*
X65174Y-17874D01*
X65174Y-18424D01*
X65212Y-18516D01*
X65283Y-18586D01*
X65350Y-18614D01*
X65350Y-19621D01*
X65263Y-19656D01*
X65193Y-19727D01*
X65155Y-19819D01*
X65154Y-19918D01*
X65154Y-20430D01*
X65183Y-20500D01*
X65155Y-20569D01*
X65154Y-20668D01*
X65154Y-21180D01*
X65192Y-21272D01*
X65263Y-21342D01*
X65350Y-21378D01*
X65350Y-21600D01*
X65350Y-21923D01*
X64899Y-21923D01*
X64807Y-21961D01*
X64737Y-22031D01*
X64698Y-22123D01*
X64698Y-22222D01*
X64698Y-22655D01*
X64736Y-22747D01*
X64807Y-22818D01*
X64898Y-22856D01*
X64998Y-22856D01*
X66100Y-22856D01*
X66192Y-22818D01*
X66262Y-22748D01*
X66301Y-22656D01*
X66301Y-22556D01*
X66301Y-22123D01*
X66263Y-22031D01*
X66192Y-21961D01*
X66165Y-21950D01*
X67065Y-21950D01*
X67210Y-22095D01*
X67198Y-22123D01*
X67198Y-22222D01*
X67198Y-22655D01*
X67236Y-22747D01*
X67307Y-22818D01*
X67398Y-22856D01*
X67498Y-22856D01*
X68600Y-22856D01*
X68692Y-22818D01*
X68762Y-22748D01*
X68801Y-22656D01*
X68801Y-22556D01*
X68801Y-22123D01*
X68763Y-22031D01*
X68692Y-21961D01*
X68601Y-21923D01*
X68501Y-21923D01*
X68028Y-21923D01*
X67457Y-21352D01*
X67344Y-21276D01*
X67210Y-21250D01*
X66216Y-21250D01*
X66244Y-21180D01*
X66245Y-21081D01*
X66245Y-20569D01*
X66216Y-20499D01*
X66244Y-20430D01*
X66245Y-20331D01*
X66245Y-19819D01*
X66207Y-19727D01*
X66136Y-19657D01*
X66050Y-19621D01*
X66050Y-18614D01*
X66116Y-18587D01*
X66186Y-18516D01*
X66199Y-18485D01*
X66212Y-18516D01*
X66283Y-18586D01*
X66350Y-18614D01*
X66350Y-18800D01*
X66376Y-18933D01*
X66452Y-19047D01*
X68850Y-21444D01*
X68850Y-23255D01*
X68844Y-23260D01*
X68766Y-23260D01*
X68763Y-23252D01*
X68692Y-23181D01*
X68601Y-23143D01*
X68501Y-23143D01*
X67399Y-23143D01*
X67307Y-23181D01*
X67237Y-23251D01*
X67233Y-23260D01*
X66266Y-23260D01*
X66263Y-23252D01*
X66192Y-23181D01*
X66101Y-23143D01*
X66001Y-23143D01*
X64899Y-23143D01*
X64807Y-23181D01*
X64737Y-23251D01*
X64698Y-23343D01*
X64698Y-23443D01*
X64698Y-23876D01*
X64736Y-23968D01*
X64807Y-24038D01*
X64898Y-24076D01*
X64998Y-24076D01*
X66100Y-24076D01*
X66192Y-24038D01*
X66262Y-23968D01*
X66266Y-23960D01*
X67233Y-23960D01*
X67236Y-23968D01*
X67307Y-24038D01*
X67398Y-24076D01*
X67498Y-24076D01*
X68600Y-24076D01*
X68692Y-24038D01*
X68762Y-23968D01*
X68766Y-23960D01*
X68989Y-23960D01*
X69123Y-23933D01*
X69123Y-23933D01*
X69237Y-23857D01*
X69447Y-23647D01*
X69523Y-23533D01*
X69523Y-23533D01*
X69550Y-23400D01*
X69550Y-31230D01*
X63845Y-31230D01*
X63845Y-21081D01*
X63845Y-20569D01*
X63816Y-20499D01*
X63844Y-20430D01*
X63845Y-20331D01*
X63845Y-19819D01*
X63807Y-19727D01*
X63736Y-19657D01*
X63650Y-19621D01*
X63650Y-15114D01*
X63716Y-15087D01*
X63786Y-15016D01*
X63824Y-14924D01*
X63825Y-14825D01*
X63825Y-14275D01*
X63787Y-14183D01*
X63716Y-14113D01*
X63624Y-14075D01*
X63525Y-14074D01*
X62975Y-14074D01*
X62883Y-14112D01*
X62813Y-14183D01*
X62800Y-14214D01*
X62787Y-14183D01*
X62716Y-14113D01*
X62624Y-14075D01*
X62525Y-14074D01*
X61975Y-14074D01*
X61883Y-14112D01*
X61813Y-14183D01*
X61775Y-14275D01*
X61774Y-14374D01*
X61774Y-14630D01*
X61652Y-14752D01*
X61576Y-14866D01*
X61550Y-15000D01*
X61550Y-23400D01*
X61576Y-23533D01*
X61652Y-23647D01*
X61862Y-23857D01*
X61976Y-23933D01*
X61976Y-23933D01*
X62110Y-23960D01*
X62233Y-23960D01*
X62236Y-23968D01*
X62307Y-24038D01*
X62398Y-24076D01*
X62498Y-24076D01*
X63600Y-24076D01*
X63692Y-24038D01*
X63762Y-23968D01*
X63801Y-23876D01*
X63801Y-23777D01*
X63801Y-23344D01*
X63763Y-23252D01*
X63692Y-23181D01*
X63601Y-23143D01*
X63501Y-23143D01*
X62399Y-23143D01*
X62307Y-23181D01*
X62250Y-23238D01*
X62250Y-22760D01*
X62307Y-22818D01*
X62398Y-22856D01*
X62498Y-22856D01*
X63600Y-22856D01*
X63692Y-22818D01*
X63762Y-22748D01*
X63801Y-22656D01*
X63801Y-22556D01*
X63801Y-22123D01*
X63763Y-22031D01*
X63692Y-21961D01*
X63650Y-21943D01*
X63650Y-21378D01*
X63736Y-21343D01*
X63806Y-21272D01*
X63844Y-21180D01*
X63845Y-21081D01*
X63845Y-31230D01*
X61301Y-31230D01*
X61301Y-23777D01*
X61301Y-23344D01*
X61263Y-23252D01*
X61192Y-23181D01*
X61101Y-23143D01*
X61001Y-23143D01*
X59899Y-23143D01*
X59807Y-23181D01*
X59741Y-23246D01*
X59350Y-22855D01*
X59350Y-19144D01*
X59469Y-19025D01*
X59824Y-19025D01*
X59916Y-18987D01*
X59986Y-18916D01*
X59999Y-18885D01*
X60012Y-18916D01*
X60083Y-18986D01*
X60150Y-19014D01*
X60150Y-19621D01*
X60063Y-19656D01*
X59993Y-19727D01*
X59955Y-19819D01*
X59954Y-19918D01*
X59954Y-20430D01*
X59983Y-20500D01*
X59955Y-20569D01*
X59954Y-20668D01*
X59954Y-21180D01*
X59992Y-21272D01*
X60063Y-21342D01*
X60150Y-21378D01*
X60150Y-21923D01*
X59899Y-21923D01*
X59807Y-21961D01*
X59737Y-22031D01*
X59698Y-22123D01*
X59698Y-22222D01*
X59698Y-22655D01*
X59736Y-22747D01*
X59807Y-22818D01*
X59898Y-22856D01*
X59998Y-22856D01*
X61100Y-22856D01*
X61192Y-22818D01*
X61262Y-22748D01*
X61301Y-22656D01*
X61301Y-22556D01*
X61301Y-22123D01*
X61263Y-22031D01*
X61192Y-21961D01*
X61101Y-21923D01*
X61001Y-21923D01*
X60850Y-21923D01*
X60850Y-21378D01*
X60936Y-21343D01*
X61006Y-21272D01*
X61044Y-21180D01*
X61045Y-21081D01*
X61045Y-20569D01*
X61016Y-20499D01*
X61044Y-20430D01*
X61045Y-20331D01*
X61045Y-19819D01*
X61007Y-19727D01*
X60936Y-19657D01*
X60850Y-19621D01*
X60850Y-19014D01*
X60916Y-18987D01*
X60986Y-18916D01*
X61024Y-18824D01*
X61025Y-18725D01*
X61025Y-18175D01*
X60987Y-18083D01*
X60916Y-18013D01*
X60824Y-17975D01*
X60725Y-17974D01*
X60175Y-17974D01*
X60083Y-18012D01*
X60013Y-18083D01*
X60000Y-18114D01*
X59987Y-18083D01*
X59916Y-18013D01*
X59824Y-17975D01*
X59725Y-17974D01*
X59175Y-17974D01*
X59083Y-18012D01*
X59013Y-18083D01*
X58975Y-18175D01*
X58974Y-18274D01*
X58974Y-18530D01*
X58752Y-18752D01*
X58676Y-18866D01*
X58650Y-19000D01*
X58650Y-23000D01*
X58676Y-23133D01*
X58752Y-23247D01*
X59362Y-23857D01*
X59476Y-23933D01*
X59476Y-23933D01*
X59610Y-23960D01*
X59733Y-23960D01*
X59736Y-23968D01*
X59807Y-24038D01*
X59898Y-24076D01*
X59998Y-24076D01*
X61100Y-24076D01*
X61192Y-24038D01*
X61262Y-23968D01*
X61301Y-23876D01*
X61301Y-23777D01*
X61301Y-31230D01*
X55853Y-31230D01*
X55853Y-15878D01*
X55852Y-15655D01*
X55852Y-15432D01*
X55851Y-15429D01*
X55851Y-15427D01*
X55681Y-15017D01*
X55680Y-15017D01*
X55680Y-15014D01*
X55360Y-14695D01*
X55357Y-14693D01*
X55356Y-14692D01*
X55149Y-14607D01*
X54943Y-14521D01*
X54940Y-14521D01*
X54938Y-14520D01*
X54714Y-14521D01*
X54491Y-14521D01*
X54488Y-14522D01*
X54486Y-14522D01*
X54076Y-14692D01*
X54076Y-14693D01*
X54073Y-14694D01*
X53754Y-15013D01*
X53752Y-15016D01*
X53751Y-15017D01*
X53666Y-15224D01*
X53580Y-15430D01*
X53580Y-15433D01*
X53579Y-15436D01*
X53580Y-15659D01*
X53580Y-15882D01*
X53581Y-15885D01*
X53581Y-15887D01*
X53751Y-16297D01*
X53752Y-16297D01*
X53753Y-16300D01*
X54072Y-16619D01*
X54075Y-16621D01*
X54076Y-16622D01*
X54283Y-16707D01*
X54489Y-16793D01*
X54492Y-16793D01*
X54495Y-16794D01*
X54718Y-16793D01*
X54941Y-16793D01*
X54944Y-16792D01*
X54946Y-16792D01*
X55356Y-16622D01*
X55356Y-16621D01*
X55359Y-16620D01*
X55678Y-16301D01*
X55680Y-16298D01*
X55681Y-16297D01*
X55766Y-16090D01*
X55852Y-15884D01*
X55852Y-15881D01*
X55853Y-15878D01*
X55853Y-31230D01*
X53025Y-31230D01*
X53025Y-28725D01*
X53025Y-28175D01*
X52987Y-28083D01*
X52916Y-28013D01*
X52885Y-28000D01*
X52916Y-27987D01*
X52986Y-27916D01*
X53024Y-27824D01*
X53025Y-27725D01*
X53025Y-27175D01*
X52987Y-27083D01*
X52916Y-27013D01*
X52824Y-26975D01*
X52725Y-26974D01*
X52175Y-26974D01*
X52083Y-27012D01*
X52013Y-27083D01*
X51985Y-27150D01*
X45012Y-27150D01*
X45023Y-27133D01*
X45023Y-27133D01*
X45050Y-27000D01*
X45050Y-26919D01*
X48970Y-22999D01*
X49662Y-22999D01*
X49724Y-23061D01*
X49902Y-23135D01*
X50096Y-23135D01*
X50275Y-23062D01*
X50312Y-23025D01*
X51673Y-23025D01*
X51692Y-23072D01*
X51763Y-23142D01*
X51855Y-23180D01*
X51954Y-23181D01*
X52544Y-23181D01*
X52636Y-23143D01*
X52706Y-23072D01*
X52744Y-22980D01*
X52745Y-22881D01*
X52745Y-22369D01*
X52716Y-22299D01*
X52744Y-22230D01*
X52745Y-22131D01*
X52745Y-21619D01*
X52707Y-21527D01*
X52636Y-21457D01*
X52544Y-21419D01*
X52445Y-21418D01*
X51855Y-21418D01*
X51763Y-21456D01*
X51708Y-21512D01*
X50337Y-21512D01*
X50293Y-21468D01*
X50411Y-21350D01*
X50486Y-21171D01*
X50486Y-20978D01*
X50412Y-20799D01*
X50293Y-20681D01*
X50411Y-20563D01*
X50486Y-20384D01*
X50486Y-20191D01*
X50412Y-20012D01*
X50293Y-19893D01*
X50411Y-19775D01*
X50486Y-19597D01*
X50486Y-19403D01*
X50412Y-19224D01*
X50293Y-19106D01*
X50411Y-18988D01*
X50486Y-18809D01*
X50486Y-18616D01*
X50412Y-18437D01*
X50293Y-18318D01*
X50411Y-18200D01*
X50486Y-18022D01*
X50486Y-17828D01*
X50412Y-17650D01*
X50293Y-17531D01*
X50411Y-17413D01*
X50422Y-17388D01*
X50428Y-17387D01*
X50454Y-17310D01*
X50486Y-17234D01*
X50486Y-17219D01*
X50491Y-17204D01*
X50486Y-17122D01*
X50486Y-17041D01*
X50480Y-17026D01*
X50479Y-17011D01*
X50428Y-16888D01*
X50422Y-16887D01*
X50412Y-16862D01*
X50293Y-16744D01*
X50411Y-16626D01*
X50422Y-16601D01*
X50428Y-16599D01*
X50454Y-16522D01*
X50486Y-16447D01*
X50486Y-16431D01*
X50491Y-16416D01*
X50486Y-16335D01*
X50486Y-16254D01*
X50480Y-16239D01*
X50479Y-16223D01*
X50428Y-16100D01*
X50422Y-16099D01*
X50412Y-16075D01*
X50275Y-15938D01*
X50250Y-15928D01*
X50249Y-15921D01*
X50172Y-15895D01*
X50097Y-15864D01*
X50081Y-15864D01*
X50066Y-15859D01*
X49985Y-15864D01*
X49903Y-15864D01*
X49889Y-15870D01*
X49873Y-15871D01*
X49750Y-15921D01*
X49749Y-15927D01*
X49724Y-15937D01*
X49588Y-16074D01*
X49577Y-16099D01*
X49571Y-16100D01*
X49545Y-16178D01*
X49513Y-16253D01*
X49513Y-16268D01*
X49508Y-16283D01*
X49513Y-16365D01*
X49513Y-16446D01*
X49519Y-16461D01*
X49520Y-16476D01*
X49571Y-16599D01*
X49577Y-16601D01*
X49587Y-16625D01*
X49706Y-16744D01*
X49588Y-16862D01*
X49577Y-16887D01*
X49571Y-16888D01*
X49545Y-16965D01*
X49513Y-17040D01*
X49513Y-17056D01*
X49508Y-17071D01*
X49513Y-17152D01*
X49513Y-17234D01*
X49519Y-17248D01*
X49520Y-17264D01*
X49571Y-17387D01*
X49577Y-17388D01*
X49587Y-17412D01*
X49706Y-17531D01*
X49662Y-17575D01*
X43274Y-17575D01*
X43140Y-17601D01*
X43027Y-17677D01*
X37752Y-22952D01*
X37676Y-23066D01*
X37650Y-23200D01*
X37650Y-27985D01*
X37583Y-28012D01*
X37513Y-28083D01*
X37500Y-28114D01*
X37487Y-28083D01*
X37416Y-28013D01*
X37350Y-27985D01*
X37350Y-27000D01*
X37323Y-26866D01*
X37247Y-26752D01*
X31347Y-20852D01*
X31233Y-20776D01*
X31100Y-20750D01*
X25418Y-20750D01*
X25349Y-20681D01*
X25445Y-20585D01*
X25455Y-20562D01*
X25461Y-20560D01*
X25490Y-20475D01*
X25525Y-20392D01*
X25525Y-20377D01*
X25530Y-20363D01*
X25525Y-20273D01*
X25525Y-20183D01*
X25519Y-20169D01*
X25519Y-20154D01*
X25461Y-20014D01*
X25455Y-20012D01*
X25445Y-19990D01*
X25349Y-19893D01*
X25445Y-19798D01*
X25455Y-19774D01*
X25461Y-19773D01*
X25490Y-19688D01*
X25525Y-19605D01*
X25525Y-19590D01*
X25530Y-19575D01*
X25525Y-19485D01*
X25525Y-19395D01*
X25519Y-19382D01*
X25519Y-19367D01*
X25461Y-19226D01*
X25455Y-19225D01*
X25445Y-19202D01*
X25349Y-19106D01*
X25445Y-19010D01*
X25455Y-18987D01*
X25461Y-18985D01*
X25490Y-18900D01*
X25525Y-18817D01*
X25525Y-18802D01*
X25530Y-18788D01*
X25525Y-18698D01*
X25525Y-18608D01*
X25519Y-18594D01*
X25519Y-18579D01*
X25461Y-18439D01*
X25455Y-18437D01*
X25445Y-18415D01*
X25349Y-18318D01*
X25445Y-18223D01*
X25455Y-18199D01*
X25461Y-18198D01*
X25490Y-18113D01*
X25525Y-18030D01*
X25525Y-18015D01*
X25530Y-18001D01*
X25525Y-17911D01*
X25525Y-17821D01*
X25519Y-17807D01*
X25519Y-17792D01*
X25461Y-17652D01*
X25455Y-17650D01*
X25445Y-17627D01*
X25349Y-17531D01*
X25445Y-17435D01*
X25455Y-17412D01*
X25461Y-17410D01*
X25490Y-17325D01*
X25525Y-17242D01*
X25525Y-17227D01*
X25530Y-17213D01*
X25525Y-17123D01*
X25525Y-17033D01*
X25519Y-17019D01*
X25519Y-17004D01*
X25461Y-16864D01*
X25455Y-16863D01*
X25445Y-16840D01*
X25349Y-16744D01*
X25445Y-16648D01*
X25455Y-16625D01*
X25461Y-16623D01*
X25490Y-16538D01*
X25525Y-16455D01*
X25525Y-16440D01*
X25530Y-16426D01*
X25525Y-16336D01*
X25525Y-16246D01*
X25519Y-16232D01*
X25519Y-16217D01*
X25461Y-16077D01*
X25455Y-16075D01*
X25445Y-16053D01*
X25298Y-15905D01*
X25274Y-15895D01*
X25273Y-15889D01*
X25188Y-15859D01*
X25105Y-15824D01*
X25090Y-15824D01*
X25075Y-15819D01*
X24985Y-15824D01*
X24895Y-15824D01*
X24882Y-15830D01*
X24867Y-15831D01*
X24726Y-15889D01*
X24725Y-15895D01*
X24702Y-15904D01*
X24554Y-16052D01*
X24544Y-16075D01*
X24538Y-16077D01*
X24509Y-16162D01*
X24474Y-16245D01*
X24474Y-16260D01*
X24469Y-16274D01*
X24474Y-16364D01*
X24474Y-16454D01*
X24480Y-16468D01*
X24480Y-16483D01*
X24538Y-16623D01*
X24544Y-16625D01*
X24554Y-16647D01*
X24650Y-16744D01*
X24554Y-16839D01*
X24544Y-16863D01*
X24538Y-16864D01*
X24509Y-16949D01*
X24474Y-17032D01*
X24474Y-17047D01*
X24469Y-17061D01*
X24474Y-17151D01*
X24474Y-17241D01*
X24480Y-17255D01*
X24480Y-17270D01*
X24538Y-17410D01*
X24544Y-17412D01*
X24554Y-17435D01*
X24650Y-17531D01*
X24554Y-17627D01*
X24544Y-17650D01*
X24538Y-17652D01*
X24509Y-17736D01*
X24474Y-17820D01*
X24474Y-17835D01*
X24469Y-17849D01*
X24474Y-17939D01*
X24474Y-18029D01*
X24480Y-18043D01*
X24480Y-18058D01*
X24538Y-18198D01*
X24544Y-18199D01*
X24554Y-18222D01*
X24650Y-18318D01*
X24554Y-18414D01*
X24544Y-18437D01*
X24538Y-18439D01*
X24509Y-18524D01*
X24474Y-18607D01*
X24474Y-18622D01*
X24469Y-18636D01*
X24474Y-18726D01*
X24474Y-18816D01*
X24480Y-18830D01*
X24480Y-18845D01*
X24538Y-18985D01*
X24544Y-18987D01*
X24554Y-19009D01*
X24650Y-19106D01*
X24554Y-19201D01*
X24544Y-19225D01*
X24538Y-19226D01*
X24509Y-19311D01*
X24474Y-19394D01*
X24474Y-19409D01*
X24469Y-19424D01*
X24474Y-19514D01*
X24474Y-19604D01*
X24480Y-19617D01*
X24480Y-19632D01*
X24538Y-19773D01*
X24544Y-19774D01*
X24554Y-19797D01*
X24650Y-19893D01*
X24554Y-19989D01*
X24544Y-20012D01*
X24538Y-20014D01*
X24509Y-20099D01*
X24474Y-20182D01*
X24474Y-20197D01*
X24469Y-20211D01*
X24474Y-20301D01*
X24474Y-20391D01*
X24480Y-20405D01*
X24480Y-20420D01*
X24538Y-20560D01*
X24544Y-20562D01*
X24554Y-20584D01*
X24650Y-20681D01*
X24554Y-20776D01*
X24474Y-20969D01*
X24474Y-21178D01*
X24554Y-21372D01*
X24650Y-21468D01*
X24554Y-21564D01*
X24474Y-21757D01*
X24474Y-21966D01*
X24554Y-22159D01*
X24650Y-22255D01*
X24554Y-22351D01*
X24474Y-22544D01*
X24474Y-22753D01*
X24554Y-22946D01*
X24701Y-23094D01*
X24894Y-23175D01*
X25030Y-23175D01*
X30602Y-28747D01*
X30716Y-28823D01*
X30850Y-28850D01*
X34485Y-28850D01*
X34512Y-28916D01*
X34583Y-28986D01*
X34675Y-29024D01*
X34774Y-29025D01*
X35324Y-29025D01*
X35416Y-28987D01*
X35486Y-28916D01*
X35499Y-28885D01*
X35512Y-28916D01*
X35583Y-28986D01*
X35675Y-29024D01*
X35774Y-29025D01*
X36324Y-29025D01*
X36416Y-28987D01*
X36486Y-28916D01*
X36499Y-28885D01*
X36512Y-28916D01*
X36583Y-28986D01*
X36650Y-29014D01*
X36650Y-29400D01*
X36676Y-29533D01*
X36752Y-29647D01*
X37152Y-30047D01*
X37152Y-30047D01*
X37266Y-30123D01*
X37312Y-30132D01*
X37314Y-30138D01*
X37350Y-30173D01*
X37350Y-30200D01*
X37376Y-30333D01*
X37452Y-30447D01*
X37952Y-30947D01*
X38066Y-31023D01*
X38066Y-31023D01*
X38200Y-31050D01*
X50300Y-31050D01*
X50433Y-31023D01*
X50433Y-31023D01*
X50547Y-30947D01*
X52469Y-29025D01*
X52824Y-29025D01*
X52916Y-28987D01*
X52986Y-28916D01*
X53024Y-28824D01*
X53025Y-28725D01*
X53025Y-31230D01*
X20420Y-31230D01*
X20420Y-29658D01*
X20420Y-15878D01*
X20419Y-15655D01*
X20419Y-15432D01*
X20418Y-15429D01*
X20418Y-15427D01*
X20248Y-15017D01*
X20247Y-15017D01*
X20246Y-15014D01*
X19927Y-14695D01*
X19924Y-14693D01*
X19923Y-14692D01*
X19716Y-14607D01*
X19510Y-14521D01*
X19507Y-14521D01*
X19504Y-14520D01*
X19281Y-14521D01*
X19058Y-14521D01*
X19055Y-14522D01*
X19053Y-14522D01*
X18643Y-14692D01*
X18643Y-14693D01*
X18640Y-14694D01*
X18321Y-15013D01*
X18319Y-15016D01*
X18318Y-15017D01*
X18233Y-15224D01*
X18147Y-15430D01*
X18147Y-15433D01*
X18146Y-15436D01*
X18147Y-15659D01*
X18147Y-15882D01*
X18148Y-15885D01*
X18148Y-15887D01*
X18318Y-16297D01*
X18319Y-16297D01*
X18319Y-16300D01*
X18639Y-16619D01*
X18642Y-16621D01*
X18643Y-16622D01*
X18850Y-16707D01*
X19056Y-16793D01*
X19059Y-16793D01*
X19061Y-16794D01*
X19285Y-16793D01*
X19508Y-16793D01*
X19511Y-16792D01*
X19513Y-16792D01*
X19923Y-16622D01*
X19923Y-16621D01*
X19926Y-16620D01*
X20245Y-16301D01*
X20247Y-16298D01*
X20248Y-16297D01*
X20333Y-16090D01*
X20419Y-15884D01*
X20419Y-15881D01*
X20420Y-15878D01*
X20420Y-29658D01*
X20419Y-29435D01*
X20419Y-29212D01*
X20418Y-29209D01*
X20418Y-29206D01*
X20248Y-28797D01*
X20247Y-28796D01*
X20246Y-28794D01*
X19927Y-28474D01*
X19924Y-28473D01*
X19923Y-28471D01*
X19716Y-28386D01*
X19510Y-28301D01*
X19507Y-28301D01*
X19504Y-28300D01*
X19281Y-28301D01*
X19058Y-28300D01*
X19055Y-28302D01*
X19053Y-28302D01*
X18643Y-28471D01*
X18643Y-28472D01*
X18640Y-28473D01*
X18321Y-28792D01*
X18319Y-28796D01*
X18318Y-28797D01*
X18233Y-29003D01*
X18147Y-29210D01*
X18147Y-29212D01*
X18146Y-29215D01*
X18147Y-29438D01*
X18147Y-29661D01*
X18148Y-29664D01*
X18148Y-29667D01*
X18318Y-30076D01*
X18319Y-30077D01*
X18319Y-30079D01*
X18639Y-30399D01*
X18642Y-30400D01*
X18643Y-30402D01*
X18850Y-30487D01*
X19056Y-30572D01*
X19059Y-30572D01*
X19061Y-30573D01*
X19285Y-30572D01*
X19508Y-30573D01*
X19511Y-30571D01*
X19513Y-30571D01*
X19923Y-30402D01*
X19923Y-30401D01*
X19926Y-30400D01*
X20245Y-30081D01*
X20247Y-30077D01*
X20248Y-30076D01*
X20333Y-29870D01*
X20419Y-29663D01*
X20419Y-29661D01*
X20420Y-29658D01*
X20420Y-31230D01*
X18000Y-31230D01*
X17769Y-31230D01*
X17769Y-13269D01*
X18000Y-13269D01*
X74730Y-13269D01*
X74730Y-31230D01*
M02*
